M48
; DRILL file {KiCad 9.0.0-9.0.0-2~ubuntu24.04.1} date 2025-03-16T16:10:11-0400
; FORMAT={-:-/ absolute / metric / decimal}
; #@! TF.CreationDate,2025-03-16T16:10:11-04:00
; #@! TF.GenerationSoftware,Kicad,Pcbnew,9.0.0-9.0.0-2~ubuntu24.04.1
; #@! TF.FileFunction,Plated,1,4,PTH
FMAT,2
METRIC
; #@! TA.AperFunction,Plated,PTH,ViaDrill
T1C0.300
; #@! TA.AperFunction,Plated,PTH,ComponentDrill
T2C0.300
; #@! TA.AperFunction,Plated,PTH,ComponentDrill
T3C0.800
%
G90
G05
T1
X4.065Y-22.86
X4.065Y-24.13
X4.065Y-25.4
X4.065Y-26.67
X4.065Y-52.06
X4.065Y-53.33
X4.065Y-54.6
X4.065Y-55.87
X5.0Y-5.0
X5.0Y-10.0
X5.0Y-35.0
X5.0Y-40.0
X5.0Y-45.0
X5.0Y-70.0
X5.0Y-75.0
X5.85Y-27.305
X5.85Y-28.575
X5.85Y-32.56
X5.85Y-56.505
X5.85Y-57.775
X5.85Y-61.76
X7.635Y-25.4
X7.635Y-26.67
X7.635Y-54.6
X7.635Y-55.87
X10.0Y-5.0
X10.0Y-10.0
X10.0Y-35.0
X10.0Y-40.0
X10.0Y-55.0
X10.0Y-60.0
X10.0Y-70.0
X10.0Y-75.0
X14.33Y-24.4
X14.33Y-53.6
X14.42Y-19.74
X14.42Y-48.94
X15.0Y-5.0
X15.0Y-70.0
X15.0Y-75.0
X16.286Y-26.421
X16.286Y-55.621
X16.325Y-24.777
X16.325Y-53.977
X16.327Y-25.615
X16.327Y-54.815
X16.337Y-27.352
X16.337Y-56.552
X16.515Y-28.733
X16.515Y-57.933
X16.8Y-21.6
X16.8Y-50.8
X16.955Y-29.585
X16.955Y-58.785
X17.26Y-27.44
X17.26Y-56.64
X17.63Y-22.39
X17.63Y-51.59
X17.8Y-16.9
X17.8Y-46.1
X17.85Y-30.13
X17.85Y-59.33
X17.95Y-13.3
X17.95Y-42.5
X18.26Y-20.76
X18.26Y-49.96
X18.63Y-23.01
X18.63Y-52.21
X18.73Y-30.14
X18.73Y-59.34
X18.95Y-10.7
X18.95Y-13.3
X18.95Y-26.38
X18.95Y-29.2
X18.95Y-39.9
X18.95Y-42.5
X18.95Y-55.58
X18.95Y-58.4
X19.1Y-20.25
X19.1Y-49.45
X19.32Y-25.22
X19.32Y-27.55
X19.32Y-54.42
X19.32Y-56.75
X19.45Y-37.5
X19.45Y-38.9
X19.45Y-66.7
X19.45Y-68.1
X19.54Y-30.17
X19.54Y-59.37
X19.9Y-20.76
X19.9Y-49.96
X19.95Y-12.0
X19.95Y-13.3
X19.95Y-41.2
X19.95Y-42.5
X20.0Y-5.0
X20.0Y-70.0
X20.0Y-75.0
X20.536Y-30.184
X20.536Y-59.384
X20.85Y-20.6
X20.85Y-49.8
X21.286Y-22.397
X21.286Y-51.597
X21.29Y-26.39
X21.29Y-28.83
X21.29Y-55.59
X21.29Y-58.03
X21.537Y-30.185
X21.537Y-59.385
X21.65Y-10.7
X21.65Y-13.3
X21.65Y-39.9
X21.65Y-42.5
X22.15Y-37.5
X22.15Y-38.9
X22.15Y-66.7
X22.15Y-68.1
X22.65Y-13.3
X22.65Y-42.5
X23.03Y-23.33
X23.03Y-52.53
X23.15Y-37.5
X23.15Y-66.7
X23.19Y-28.354
X23.19Y-57.554
X23.29Y-33.24
X23.29Y-62.44
X23.42Y-26.56
X23.42Y-55.76
X23.55Y-25.47
X23.55Y-54.67
X23.56Y-24.67
X23.56Y-53.87
X23.65Y-13.3
X23.65Y-42.5
X24.04Y-21.05
X24.04Y-50.25
X24.13Y-29.7
X24.13Y-58.9
X24.14Y-28.32
X24.14Y-57.52
X24.99Y-18.42
X24.99Y-47.62
X25.0Y-5.0
X25.0Y-10.0
X25.0Y-39.0
X25.0Y-70.0
X25.0Y-75.0
X25.21Y-24.99
X25.21Y-54.19
X30.0Y-5.0
X30.0Y-10.0
X30.0Y-39.0
X30.0Y-70.0
X30.0Y-75.0
X34.53Y-24.4
X34.53Y-53.6
X34.62Y-19.74
X34.62Y-48.94
X35.0Y-5.0
X35.0Y-10.0
X35.0Y-39.0
X35.0Y-70.0
X35.0Y-75.0
X36.486Y-26.421
X36.486Y-55.621
X36.525Y-24.777
X36.525Y-53.977
X36.527Y-25.615
X36.527Y-54.815
X36.538Y-27.352
X36.538Y-56.552
X36.715Y-28.733
X36.715Y-57.933
X37.0Y-21.6
X37.0Y-50.8
X37.155Y-29.585
X37.155Y-58.785
X37.46Y-27.44
X37.46Y-56.64
X37.83Y-22.39
X37.83Y-51.59
X38.0Y-16.9
X38.0Y-46.1
X38.05Y-30.13
X38.05Y-59.33
X38.15Y-13.3
X38.15Y-42.5
X38.46Y-20.76
X38.46Y-49.96
X38.83Y-23.01
X38.83Y-52.21
X38.93Y-30.14
X38.93Y-59.34
X39.15Y-10.7
X39.15Y-13.3
X39.15Y-26.38
X39.15Y-29.2
X39.15Y-39.9
X39.15Y-42.5
X39.15Y-55.58
X39.15Y-58.4
X39.3Y-20.25
X39.3Y-49.45
X39.52Y-25.22
X39.52Y-27.55
X39.52Y-54.42
X39.52Y-56.75
X39.65Y-37.5
X39.65Y-38.9
X39.65Y-66.7
X39.65Y-68.1
X39.74Y-30.17
X39.74Y-59.37
X40.0Y-5.0
X40.0Y-10.0
X40.0Y-70.0
X40.0Y-75.0
X40.1Y-20.76
X40.1Y-49.96
X40.15Y-12.0
X40.15Y-13.3
X40.15Y-41.2
X40.15Y-42.5
X40.736Y-30.184
X40.736Y-59.384
X41.05Y-20.6
X41.05Y-49.8
X41.486Y-22.397
X41.486Y-51.597
X41.49Y-26.39
X41.49Y-28.83
X41.49Y-55.59
X41.49Y-58.03
X41.737Y-30.185
X41.737Y-59.385
X41.85Y-12.0
X41.85Y-13.3
X41.85Y-41.2
X41.85Y-42.5
X42.35Y-37.5
X42.35Y-38.9
X42.35Y-66.7
X42.35Y-68.1
X42.85Y-13.3
X42.85Y-42.5
X43.23Y-23.33
X43.23Y-52.53
X43.35Y-37.5
X43.35Y-66.7
X43.39Y-28.354
X43.39Y-57.554
X43.49Y-33.24
X43.49Y-62.44
X43.62Y-26.56
X43.62Y-55.76
X43.75Y-25.47
X43.75Y-54.67
X43.76Y-24.67
X43.76Y-53.87
X43.85Y-13.3
X43.85Y-42.5
X44.24Y-21.05
X44.24Y-50.25
X44.33Y-29.7
X44.33Y-58.9
X44.34Y-28.32
X44.34Y-57.52
X45.0Y-5.0
X45.0Y-10.0
X45.0Y-39.0
X45.0Y-70.0
X45.0Y-75.0
X45.19Y-18.42
X45.19Y-47.62
X45.41Y-24.99
X45.41Y-54.19
X50.0Y-5.0
X50.0Y-10.0
X50.0Y-39.0
X50.0Y-70.0
X50.0Y-75.0
X54.73Y-24.4
X54.73Y-53.6
X54.82Y-19.74
X54.82Y-48.94
X55.0Y-5.0
X55.0Y-10.0
X55.0Y-39.0
X55.0Y-70.0
X55.0Y-75.0
X56.686Y-26.421
X56.686Y-55.621
X56.725Y-24.777
X56.725Y-53.977
X56.727Y-25.615
X56.727Y-54.815
X56.737Y-27.352
X56.737Y-56.552
X56.915Y-28.733
X56.915Y-57.933
X57.2Y-21.6
X57.2Y-50.8
X57.355Y-29.585
X57.355Y-58.785
X57.66Y-27.44
X57.66Y-56.64
X58.03Y-22.39
X58.03Y-51.59
X58.2Y-16.9
X58.2Y-46.1
X58.25Y-30.13
X58.25Y-59.33
X58.35Y-13.3
X58.35Y-42.5
X58.66Y-20.76
X58.66Y-49.96
X59.03Y-23.01
X59.03Y-52.21
X59.13Y-30.14
X59.13Y-59.34
X59.35Y-10.7
X59.35Y-13.3
X59.35Y-26.38
X59.35Y-29.2
X59.35Y-39.9
X59.35Y-42.5
X59.35Y-55.58
X59.35Y-58.4
X59.5Y-20.25
X59.5Y-49.45
X59.72Y-25.22
X59.72Y-27.55
X59.72Y-54.42
X59.72Y-56.75
X59.85Y-37.5
X59.85Y-66.7
X59.94Y-30.17
X59.94Y-59.37
X60.0Y-5.0
X60.0Y-10.0
X60.0Y-39.0
X60.0Y-70.0
X60.0Y-75.0
X60.3Y-20.76
X60.3Y-49.96
X60.35Y-12.0
X60.35Y-13.3
X60.35Y-41.2
X60.35Y-42.5
X60.936Y-30.184
X60.936Y-59.384
X61.25Y-20.6
X61.25Y-49.8
X61.686Y-22.397
X61.686Y-51.597
X61.69Y-26.39
X61.69Y-28.83
X61.69Y-55.59
X61.69Y-58.03
X61.938Y-30.185
X61.938Y-59.385
X62.05Y-12.0
X62.05Y-13.3
X62.05Y-41.2
X62.05Y-42.5
X62.55Y-37.5
X62.55Y-66.7
X63.05Y-13.3
X63.05Y-42.5
X63.43Y-23.33
X63.43Y-52.53
X63.55Y-37.5
X63.55Y-66.7
X63.59Y-28.354
X63.59Y-57.554
X63.69Y-33.24
X63.69Y-62.44
X63.82Y-26.56
X63.82Y-55.76
X63.95Y-25.47
X63.95Y-54.67
X63.96Y-24.67
X63.96Y-53.87
X64.05Y-13.3
X64.05Y-42.5
X64.44Y-21.05
X64.44Y-50.25
X64.53Y-29.7
X64.53Y-58.9
X64.54Y-28.32
X64.54Y-57.52
X65.0Y-5.0
X65.0Y-10.0
X65.0Y-40.0
X65.0Y-70.0
X65.0Y-75.0
X65.39Y-18.42
X65.39Y-47.62
X65.61Y-24.99
X65.61Y-54.19
X70.0Y-5.0
X70.0Y-10.0
X70.0Y-35.0
X70.0Y-40.0
X70.0Y-45.0
X70.0Y-70.0
X70.0Y-75.0
X75.0Y-5.0
X75.0Y-10.0
X75.0Y-20.0
X75.0Y-25.0
X75.0Y-30.0
X75.0Y-35.0
X75.0Y-40.0
X75.0Y-45.0
X75.0Y-50.0
X75.0Y-55.0
X75.0Y-60.0
X75.0Y-70.0
X75.0Y-75.0
T2
X18.77Y-17.13
X18.77Y-18.13
X18.77Y-46.33
X18.77Y-47.33
X18.79Y-33.9
X18.79Y-63.1
X19.77Y-17.13
X19.77Y-18.13
X19.77Y-46.33
X19.77Y-47.33
X19.79Y-33.9
X19.79Y-63.1
X20.77Y-17.13
X20.77Y-46.33
X20.79Y-33.9
X20.79Y-63.1
X21.77Y-17.13
X21.77Y-46.33
X21.79Y-33.9
X21.79Y-63.1
X22.77Y-17.13
X22.77Y-18.13
X22.77Y-46.33
X22.77Y-47.33
X23.77Y-17.13
X23.77Y-18.13
X23.77Y-46.33
X23.77Y-47.33
X24.07Y-33.9
X24.07Y-63.1
X38.97Y-17.13
X38.97Y-18.13
X38.97Y-46.33
X38.97Y-47.33
X38.99Y-33.9
X38.99Y-63.1
X39.97Y-17.13
X39.97Y-18.13
X39.97Y-46.33
X39.97Y-47.33
X39.99Y-33.9
X39.99Y-63.1
X40.97Y-17.13
X40.97Y-46.33
X40.99Y-33.9
X40.99Y-63.1
X41.97Y-17.13
X41.97Y-46.33
X41.99Y-33.9
X41.99Y-63.1
X42.97Y-17.13
X42.97Y-18.13
X42.97Y-46.33
X42.97Y-47.33
X43.97Y-17.13
X43.97Y-18.13
X43.97Y-46.33
X43.97Y-47.33
X44.27Y-33.9
X44.27Y-63.1
X59.17Y-17.13
X59.17Y-18.13
X59.17Y-46.33
X59.17Y-47.33
X59.19Y-33.9
X59.19Y-63.1
X60.17Y-17.13
X60.17Y-18.13
X60.17Y-46.33
X60.17Y-47.33
X60.19Y-33.9
X60.19Y-63.1
X61.17Y-17.13
X61.17Y-46.33
X61.19Y-33.9
X61.19Y-63.1
X62.17Y-17.13
X62.17Y-46.33
X62.19Y-33.9
X62.19Y-63.1
X63.17Y-17.13
X63.17Y-18.13
X63.17Y-46.33
X63.17Y-47.33
X64.17Y-17.13
X64.17Y-18.13
X64.17Y-46.33
X64.17Y-47.33
X64.47Y-33.9
X64.47Y-63.1
T3
X13.7Y-20.9
X13.7Y-23.4
X13.7Y-25.4
X13.7Y-27.4
X13.7Y-29.9
X13.7Y-50.1
X13.7Y-52.6
X13.7Y-54.6
X13.7Y-56.6
X13.7Y-59.1
X33.9Y-20.9
X33.9Y-23.4
X33.9Y-25.4
X33.9Y-27.4
X33.9Y-29.9
X33.9Y-50.1
X33.9Y-52.6
X33.9Y-54.6
X33.9Y-56.6
X33.9Y-59.1
X54.1Y-20.9
X54.1Y-23.4
X54.1Y-25.4
X54.1Y-27.4
X54.1Y-29.9
X54.1Y-50.1
X54.1Y-52.6
X54.1Y-54.6
X54.1Y-56.6
X54.1Y-59.1
M30
