G04 #@! TF.GenerationSoftware,KiCad,Pcbnew,9.0.0-9.0.0-2~ubuntu24.04.1*
G04 #@! TF.CreationDate,2025-03-16T16:10:11-04:00*
G04 #@! TF.ProjectId,panel9,70616e65-6c39-42e6-9b69-6361645f7063,rev?*
G04 #@! TF.SameCoordinates,Original*
G04 #@! TF.FileFunction,Paste,Bot*
G04 #@! TF.FilePolarity,Positive*
%FSLAX46Y46*%
G04 Gerber Fmt 4.6, Leading zero omitted, Abs format (unit mm)*
G04 Created by KiCad (PCBNEW 9.0.0-9.0.0-2~ubuntu24.04.1) date 2025-03-16 16:10:11*
%MOMM*%
%LPD*%
G01*
G04 APERTURE LIST*
G04 Aperture macros list*
%AMRoundRect*
0 Rectangle with rounded corners*
0 $1 Rounding radius*
0 $2 $3 $4 $5 $6 $7 $8 $9 X,Y pos of 4 corners*
0 Add a 4 corners polygon primitive as box body*
4,1,4,$2,$3,$4,$5,$6,$7,$8,$9,$2,$3,0*
0 Add four circle primitives for the rounded corners*
1,1,$1+$1,$2,$3*
1,1,$1+$1,$4,$5*
1,1,$1+$1,$6,$7*
1,1,$1+$1,$8,$9*
0 Add four rect primitives between the rounded corners*
20,1,$1+$1,$2,$3,$4,$5,0*
20,1,$1+$1,$4,$5,$6,$7,0*
20,1,$1+$1,$6,$7,$8,$9,0*
20,1,$1+$1,$8,$9,$2,$3,0*%
%AMFreePoly0*
4,1,6,0.725000,-0.725000,-0.125000,-0.725000,-0.725000,-0.125000,-0.725000,0.725000,0.725000,0.725000,0.725000,-0.725000,0.725000,-0.725000,$1*%
G04 Aperture macros list end*
%ADD10RoundRect,0.079500X-0.079500X-0.100500X0.079500X-0.100500X0.079500X0.100500X-0.079500X0.100500X0*%
%ADD11R,0.400000X0.800000*%
%ADD12R,0.800000X0.400000*%
%ADD13R,1.450000X1.450000*%
%ADD14FreePoly0,90.000000*%
%ADD15R,0.700000X0.700000*%
%ADD16RoundRect,0.135000X-0.185000X0.135000X-0.185000X-0.135000X0.185000X-0.135000X0.185000X0.135000X0*%
%ADD17RoundRect,0.135000X-0.135000X-0.185000X0.135000X-0.185000X0.135000X0.185000X-0.135000X0.185000X0*%
%ADD18RoundRect,0.140000X-0.170000X0.140000X-0.170000X-0.140000X0.170000X-0.140000X0.170000X0.140000X0*%
%ADD19RoundRect,0.140000X-0.140000X-0.170000X0.140000X-0.170000X0.140000X0.170000X-0.140000X0.170000X0*%
G04 APERTURE END LIST*
D10*
G04 #@! TO.C,C13*
X43555000Y-32550000D03*
X44245000Y-32550000D03*
G04 #@! TD*
D11*
G04 #@! TO.C,U3*
X24300000Y-31300000D03*
X23500000Y-31300000D03*
X22700000Y-31300000D03*
X21900000Y-31300000D03*
X21100000Y-31300000D03*
X20300000Y-31300000D03*
X19500000Y-31300000D03*
X18700000Y-31300000D03*
X17900000Y-31300000D03*
X17100000Y-31300000D03*
X16300000Y-31300000D03*
D12*
X15400000Y-30200000D03*
X15400000Y-29400000D03*
X15400000Y-28600000D03*
X15400000Y-27800000D03*
X15400000Y-27000000D03*
X15400000Y-26200000D03*
X15400000Y-25400000D03*
X15400000Y-24600000D03*
X15400000Y-23800000D03*
X15400000Y-23000000D03*
X15400000Y-22200000D03*
X15400000Y-21400000D03*
X15400000Y-20600000D03*
D11*
X16300000Y-19500000D03*
X17100000Y-19500000D03*
X17900000Y-19500000D03*
X18700000Y-19500000D03*
X19500000Y-19500000D03*
X20300000Y-19500000D03*
X21100000Y-19500000D03*
X21900000Y-19500000D03*
X22700000Y-19500000D03*
X23500000Y-19500000D03*
X24300000Y-19500000D03*
D12*
X25200000Y-20600000D03*
X25200000Y-21400000D03*
X25200000Y-22200000D03*
X25200000Y-23000000D03*
X25200000Y-23800000D03*
X25200000Y-24600000D03*
X25200000Y-25400000D03*
X25200000Y-26200000D03*
X25200000Y-27000000D03*
X25200000Y-27800000D03*
X25200000Y-28600000D03*
X25200000Y-29400000D03*
X25200000Y-30200000D03*
D13*
X18325000Y-27375000D03*
X20300000Y-27375000D03*
D14*
X22275000Y-27375000D03*
D13*
X18325000Y-25400000D03*
X20300000Y-25400000D03*
X22275000Y-25400000D03*
X18325000Y-23425000D03*
X20300000Y-23425000D03*
X22275000Y-23425000D03*
D15*
X25250000Y-19450000D03*
X15350000Y-19450000D03*
X15350000Y-31350000D03*
X25250000Y-31350000D03*
G04 #@! TD*
D11*
G04 #@! TO.C,U3*
X64700000Y-31300000D03*
X63900000Y-31300000D03*
X63100000Y-31300000D03*
X62300000Y-31300000D03*
X61500000Y-31300000D03*
X60700000Y-31300000D03*
X59900000Y-31300000D03*
X59100000Y-31300000D03*
X58300000Y-31300000D03*
X57500000Y-31300000D03*
X56700000Y-31300000D03*
D12*
X55800000Y-30200000D03*
X55800000Y-29400000D03*
X55800000Y-28600000D03*
X55800000Y-27800000D03*
X55800000Y-27000000D03*
X55800000Y-26200000D03*
X55800000Y-25400000D03*
X55800000Y-24600000D03*
X55800000Y-23800000D03*
X55800000Y-23000000D03*
X55800000Y-22200000D03*
X55800000Y-21400000D03*
X55800000Y-20600000D03*
D11*
X56700000Y-19500000D03*
X57500000Y-19500000D03*
X58300000Y-19500000D03*
X59100000Y-19500000D03*
X59900000Y-19500000D03*
X60700000Y-19500000D03*
X61500000Y-19500000D03*
X62300000Y-19500000D03*
X63100000Y-19500000D03*
X63900000Y-19500000D03*
X64700000Y-19500000D03*
D12*
X65600000Y-20600000D03*
X65600000Y-21400000D03*
X65600000Y-22200000D03*
X65600000Y-23000000D03*
X65600000Y-23800000D03*
X65600000Y-24600000D03*
X65600000Y-25400000D03*
X65600000Y-26200000D03*
X65600000Y-27000000D03*
X65600000Y-27800000D03*
X65600000Y-28600000D03*
X65600000Y-29400000D03*
X65600000Y-30200000D03*
D13*
X58725000Y-27375000D03*
X60700000Y-27375000D03*
D14*
X62675000Y-27375000D03*
D13*
X58725000Y-25400000D03*
X60700000Y-25400000D03*
X62675000Y-25400000D03*
X58725000Y-23425000D03*
X60700000Y-23425000D03*
X62675000Y-23425000D03*
D15*
X65650000Y-19450000D03*
X55750000Y-19450000D03*
X55750000Y-31350000D03*
X65650000Y-31350000D03*
G04 #@! TD*
D10*
G04 #@! TO.C,C13*
X23355000Y-32550000D03*
X24045000Y-32550000D03*
G04 #@! TD*
D16*
G04 #@! TO.C,R6*
X38130000Y-61820000D03*
X38130000Y-62840000D03*
G04 #@! TD*
D17*
G04 #@! TO.C,R10*
X61040000Y-32670000D03*
X62060000Y-32670000D03*
G04 #@! TD*
G04 #@! TO.C,R10*
X20640000Y-61870000D03*
X21660000Y-61870000D03*
G04 #@! TD*
D16*
G04 #@! TO.C,R6*
X17930000Y-32620000D03*
X17930000Y-33640000D03*
G04 #@! TD*
G04 #@! TO.C,R6*
X17930000Y-61820000D03*
X17930000Y-62840000D03*
G04 #@! TD*
D18*
G04 #@! TO.C,C14*
X22540000Y-32630000D03*
X22540000Y-33590000D03*
G04 #@! TD*
D11*
G04 #@! TO.C,U3*
X44500000Y-60500000D03*
X43700000Y-60500000D03*
X42900000Y-60500000D03*
X42100000Y-60500000D03*
X41300000Y-60500000D03*
X40500000Y-60500000D03*
X39700000Y-60500000D03*
X38900000Y-60500000D03*
X38100000Y-60500000D03*
X37300000Y-60500000D03*
X36500000Y-60500000D03*
D12*
X35600000Y-59400000D03*
X35600000Y-58600000D03*
X35600000Y-57800000D03*
X35600000Y-57000000D03*
X35600000Y-56200000D03*
X35600000Y-55400000D03*
X35600000Y-54600000D03*
X35600000Y-53800000D03*
X35600000Y-53000000D03*
X35600000Y-52200000D03*
X35600000Y-51400000D03*
X35600000Y-50600000D03*
X35600000Y-49800000D03*
D11*
X36500000Y-48700000D03*
X37300000Y-48700000D03*
X38100000Y-48700000D03*
X38900000Y-48700000D03*
X39700000Y-48700000D03*
X40500000Y-48700000D03*
X41300000Y-48700000D03*
X42100000Y-48700000D03*
X42900000Y-48700000D03*
X43700000Y-48700000D03*
X44500000Y-48700000D03*
D12*
X45400000Y-49800000D03*
X45400000Y-50600000D03*
X45400000Y-51400000D03*
X45400000Y-52200000D03*
X45400000Y-53000000D03*
X45400000Y-53800000D03*
X45400000Y-54600000D03*
X45400000Y-55400000D03*
X45400000Y-56200000D03*
X45400000Y-57000000D03*
X45400000Y-57800000D03*
X45400000Y-58600000D03*
X45400000Y-59400000D03*
D13*
X38525000Y-56575000D03*
X40500000Y-56575000D03*
D14*
X42475000Y-56575000D03*
D13*
X38525000Y-54600000D03*
X40500000Y-54600000D03*
X42475000Y-54600000D03*
X38525000Y-52625000D03*
X40500000Y-52625000D03*
X42475000Y-52625000D03*
D15*
X45450000Y-48650000D03*
X35550000Y-48650000D03*
X35550000Y-60550000D03*
X45450000Y-60550000D03*
G04 #@! TD*
D10*
G04 #@! TO.C,C13*
X63755000Y-61750000D03*
X64445000Y-61750000D03*
G04 #@! TD*
D11*
G04 #@! TO.C,U3*
X64700000Y-60500000D03*
X63900000Y-60500000D03*
X63100000Y-60500000D03*
X62300000Y-60500000D03*
X61500000Y-60500000D03*
X60700000Y-60500000D03*
X59900000Y-60500000D03*
X59100000Y-60500000D03*
X58300000Y-60500000D03*
X57500000Y-60500000D03*
X56700000Y-60500000D03*
D12*
X55800000Y-59400000D03*
X55800000Y-58600000D03*
X55800000Y-57800000D03*
X55800000Y-57000000D03*
X55800000Y-56200000D03*
X55800000Y-55400000D03*
X55800000Y-54600000D03*
X55800000Y-53800000D03*
X55800000Y-53000000D03*
X55800000Y-52200000D03*
X55800000Y-51400000D03*
X55800000Y-50600000D03*
X55800000Y-49800000D03*
D11*
X56700000Y-48700000D03*
X57500000Y-48700000D03*
X58300000Y-48700000D03*
X59100000Y-48700000D03*
X59900000Y-48700000D03*
X60700000Y-48700000D03*
X61500000Y-48700000D03*
X62300000Y-48700000D03*
X63100000Y-48700000D03*
X63900000Y-48700000D03*
X64700000Y-48700000D03*
D12*
X65600000Y-49800000D03*
X65600000Y-50600000D03*
X65600000Y-51400000D03*
X65600000Y-52200000D03*
X65600000Y-53000000D03*
X65600000Y-53800000D03*
X65600000Y-54600000D03*
X65600000Y-55400000D03*
X65600000Y-56200000D03*
X65600000Y-57000000D03*
X65600000Y-57800000D03*
X65600000Y-58600000D03*
X65600000Y-59400000D03*
D13*
X58725000Y-56575000D03*
X60700000Y-56575000D03*
D14*
X62675000Y-56575000D03*
D13*
X58725000Y-54600000D03*
X60700000Y-54600000D03*
X62675000Y-54600000D03*
X58725000Y-52625000D03*
X60700000Y-52625000D03*
X62675000Y-52625000D03*
D15*
X65650000Y-48650000D03*
X55750000Y-48650000D03*
X55750000Y-60550000D03*
X65650000Y-60550000D03*
G04 #@! TD*
D16*
G04 #@! TO.C,R6*
X38130000Y-32620000D03*
X38130000Y-33640000D03*
G04 #@! TD*
D18*
G04 #@! TO.C,C14*
X22540000Y-61830000D03*
X22540000Y-62790000D03*
G04 #@! TD*
D16*
G04 #@! TO.C,R6*
X58330000Y-32620000D03*
X58330000Y-33640000D03*
G04 #@! TD*
D10*
G04 #@! TO.C,C13*
X63755000Y-32550000D03*
X64445000Y-32550000D03*
G04 #@! TD*
D19*
G04 #@! TO.C,C5*
X39030000Y-32680000D03*
X39990000Y-32680000D03*
G04 #@! TD*
D17*
G04 #@! TO.C,R10*
X40840000Y-61870000D03*
X41860000Y-61870000D03*
G04 #@! TD*
D18*
G04 #@! TO.C,C14*
X42740000Y-61830000D03*
X42740000Y-62790000D03*
G04 #@! TD*
D10*
G04 #@! TO.C,C13*
X43555000Y-61750000D03*
X44245000Y-61750000D03*
G04 #@! TD*
D17*
G04 #@! TO.C,R10*
X40840000Y-32670000D03*
X41860000Y-32670000D03*
G04 #@! TD*
D16*
G04 #@! TO.C,R6*
X58330000Y-61820000D03*
X58330000Y-62840000D03*
G04 #@! TD*
D18*
G04 #@! TO.C,C14*
X62940000Y-61830000D03*
X62940000Y-62790000D03*
G04 #@! TD*
D11*
G04 #@! TO.C,U3*
X24300000Y-60500000D03*
X23500000Y-60500000D03*
X22700000Y-60500000D03*
X21900000Y-60500000D03*
X21100000Y-60500000D03*
X20300000Y-60500000D03*
X19500000Y-60500000D03*
X18700000Y-60500000D03*
X17900000Y-60500000D03*
X17100000Y-60500000D03*
X16300000Y-60500000D03*
D12*
X15400000Y-59400000D03*
X15400000Y-58600000D03*
X15400000Y-57800000D03*
X15400000Y-57000000D03*
X15400000Y-56200000D03*
X15400000Y-55400000D03*
X15400000Y-54600000D03*
X15400000Y-53800000D03*
X15400000Y-53000000D03*
X15400000Y-52200000D03*
X15400000Y-51400000D03*
X15400000Y-50600000D03*
X15400000Y-49800000D03*
D11*
X16300000Y-48700000D03*
X17100000Y-48700000D03*
X17900000Y-48700000D03*
X18700000Y-48700000D03*
X19500000Y-48700000D03*
X20300000Y-48700000D03*
X21100000Y-48700000D03*
X21900000Y-48700000D03*
X22700000Y-48700000D03*
X23500000Y-48700000D03*
X24300000Y-48700000D03*
D12*
X25200000Y-49800000D03*
X25200000Y-50600000D03*
X25200000Y-51400000D03*
X25200000Y-52200000D03*
X25200000Y-53000000D03*
X25200000Y-53800000D03*
X25200000Y-54600000D03*
X25200000Y-55400000D03*
X25200000Y-56200000D03*
X25200000Y-57000000D03*
X25200000Y-57800000D03*
X25200000Y-58600000D03*
X25200000Y-59400000D03*
D13*
X18325000Y-56575000D03*
X20300000Y-56575000D03*
D14*
X22275000Y-56575000D03*
D13*
X18325000Y-54600000D03*
X20300000Y-54600000D03*
X22275000Y-54600000D03*
X18325000Y-52625000D03*
X20300000Y-52625000D03*
X22275000Y-52625000D03*
D15*
X25250000Y-48650000D03*
X15350000Y-48650000D03*
X15350000Y-60550000D03*
X25250000Y-60550000D03*
G04 #@! TD*
D17*
G04 #@! TO.C,R10*
X61040000Y-61870000D03*
X62060000Y-61870000D03*
G04 #@! TD*
D18*
G04 #@! TO.C,C14*
X42740000Y-32630000D03*
X42740000Y-33590000D03*
G04 #@! TD*
D19*
G04 #@! TO.C,C5*
X39030000Y-61880000D03*
X39990000Y-61880000D03*
G04 #@! TD*
D10*
G04 #@! TO.C,C13*
X23355000Y-61750000D03*
X24045000Y-61750000D03*
G04 #@! TD*
D19*
G04 #@! TO.C,C5*
X59230000Y-61880000D03*
X60190000Y-61880000D03*
G04 #@! TD*
D18*
G04 #@! TO.C,C14*
X62940000Y-32630000D03*
X62940000Y-33590000D03*
G04 #@! TD*
D11*
G04 #@! TO.C,U3*
X44500000Y-31300000D03*
X43700000Y-31300000D03*
X42900000Y-31300000D03*
X42100000Y-31300000D03*
X41300000Y-31300000D03*
X40500000Y-31300000D03*
X39700000Y-31300000D03*
X38900000Y-31300000D03*
X38100000Y-31300000D03*
X37300000Y-31300000D03*
X36500000Y-31300000D03*
D12*
X35600000Y-30200000D03*
X35600000Y-29400000D03*
X35600000Y-28600000D03*
X35600000Y-27800000D03*
X35600000Y-27000000D03*
X35600000Y-26200000D03*
X35600000Y-25400000D03*
X35600000Y-24600000D03*
X35600000Y-23800000D03*
X35600000Y-23000000D03*
X35600000Y-22200000D03*
X35600000Y-21400000D03*
X35600000Y-20600000D03*
D11*
X36500000Y-19500000D03*
X37300000Y-19500000D03*
X38100000Y-19500000D03*
X38900000Y-19500000D03*
X39700000Y-19500000D03*
X40500000Y-19500000D03*
X41300000Y-19500000D03*
X42100000Y-19500000D03*
X42900000Y-19500000D03*
X43700000Y-19500000D03*
X44500000Y-19500000D03*
D12*
X45400000Y-20600000D03*
X45400000Y-21400000D03*
X45400000Y-22200000D03*
X45400000Y-23000000D03*
X45400000Y-23800000D03*
X45400000Y-24600000D03*
X45400000Y-25400000D03*
X45400000Y-26200000D03*
X45400000Y-27000000D03*
X45400000Y-27800000D03*
X45400000Y-28600000D03*
X45400000Y-29400000D03*
X45400000Y-30200000D03*
D13*
X38525000Y-27375000D03*
X40500000Y-27375000D03*
D14*
X42475000Y-27375000D03*
D13*
X38525000Y-25400000D03*
X40500000Y-25400000D03*
X42475000Y-25400000D03*
X38525000Y-23425000D03*
X40500000Y-23425000D03*
X42475000Y-23425000D03*
D15*
X45450000Y-19450000D03*
X35550000Y-19450000D03*
X35550000Y-31350000D03*
X45450000Y-31350000D03*
G04 #@! TD*
D19*
G04 #@! TO.C,C5*
X18830000Y-32680000D03*
X19790000Y-32680000D03*
G04 #@! TD*
G04 #@! TO.C,C5*
X59230000Y-32680000D03*
X60190000Y-32680000D03*
G04 #@! TD*
G04 #@! TO.C,C5*
X18830000Y-61880000D03*
X19790000Y-61880000D03*
G04 #@! TD*
D17*
G04 #@! TO.C,R10*
X20640000Y-32670000D03*
X21660000Y-32670000D03*
G04 #@! TD*
M02*
