G04 #@! TF.GenerationSoftware,KiCad,Pcbnew,9.0.0-9.0.0-2~ubuntu24.04.1*
G04 #@! TF.CreationDate,2025-03-16T16:10:10-04:00*
G04 #@! TF.ProjectId,panel9,70616e65-6c39-42e6-9b69-6361645f7063,rev?*
G04 #@! TF.SameCoordinates,Original*
G04 #@! TF.FileFunction,Soldermask,Top*
G04 #@! TF.FilePolarity,Negative*
%FSLAX46Y46*%
G04 Gerber Fmt 4.6, Leading zero omitted, Abs format (unit mm)*
G04 Created by KiCad (PCBNEW 9.0.0-9.0.0-2~ubuntu24.04.1) date 2025-03-16 16:10:10*
%MOMM*%
%LPD*%
G01*
G04 APERTURE LIST*
G04 Aperture macros list*
%AMRoundRect*
0 Rectangle with rounded corners*
0 $1 Rounding radius*
0 $2 $3 $4 $5 $6 $7 $8 $9 X,Y pos of 4 corners*
0 Add a 4 corners polygon primitive as box body*
4,1,4,$2,$3,$4,$5,$6,$7,$8,$9,$2,$3,0*
0 Add four circle primitives for the rounded corners*
1,1,$1+$1,$2,$3*
1,1,$1+$1,$4,$5*
1,1,$1+$1,$6,$7*
1,1,$1+$1,$8,$9*
0 Add four rect primitives between the rounded corners*
20,1,$1+$1,$2,$3,$4,$5,0*
20,1,$1+$1,$4,$5,$6,$7,0*
20,1,$1+$1,$6,$7,$8,$9,0*
20,1,$1+$1,$8,$9,$2,$3,0*%
G04 Aperture macros list end*
%ADD10RoundRect,0.100000X-0.130000X-0.100000X0.130000X-0.100000X0.130000X0.100000X-0.130000X0.100000X0*%
%ADD11RoundRect,0.135000X0.185000X-0.135000X0.185000X0.135000X-0.185000X0.135000X-0.185000X-0.135000X0*%
%ADD12R,0.200000X0.600000*%
%ADD13R,0.200000X0.200000*%
%ADD14RoundRect,0.100000X0.130000X0.100000X-0.130000X0.100000X-0.130000X-0.100000X0.130000X-0.100000X0*%
%ADD15C,0.600000*%
%ADD16R,0.350000X0.650000*%
%ADD17R,2.350000X1.600000*%
%ADD18R,0.300000X0.500000*%
%ADD19RoundRect,0.050000X-0.387500X-0.050000X0.387500X-0.050000X0.387500X0.050000X-0.387500X0.050000X0*%
%ADD20RoundRect,0.050000X-0.050000X-0.387500X0.050000X-0.387500X0.050000X0.387500X-0.050000X0.387500X0*%
%ADD21R,4.000000X4.000000*%
%ADD22RoundRect,0.140000X-0.170000X0.140000X-0.170000X-0.140000X0.170000X-0.140000X0.170000X0.140000X0*%
%ADD23RoundRect,0.100000X0.100000X-0.130000X0.100000X0.130000X-0.100000X0.130000X-0.100000X-0.130000X0*%
%ADD24C,2.000000*%
%ADD25RoundRect,0.218750X-0.256250X0.218750X-0.256250X-0.218750X0.256250X-0.218750X0.256250X0.218750X0*%
%ADD26R,1.700000X0.900000*%
%ADD27RoundRect,0.100000X-0.100000X0.130000X-0.100000X-0.130000X0.100000X-0.130000X0.100000X0.130000X0*%
%ADD28R,0.600000X0.600000*%
%ADD29O,0.600000X0.600000*%
%ADD30R,1.350000X1.350000*%
%ADD31O,1.350000X1.350000*%
%ADD32RoundRect,0.140000X0.170000X-0.140000X0.170000X0.140000X-0.170000X0.140000X-0.170000X-0.140000X0*%
%ADD33C,3.000000*%
%ADD34R,0.800000X0.900000*%
%ADD35RoundRect,0.135000X-0.185000X0.135000X-0.185000X-0.135000X0.185000X-0.135000X0.185000X0.135000X0*%
%ADD36RoundRect,0.140000X-0.140000X-0.170000X0.140000X-0.170000X0.140000X0.170000X-0.140000X0.170000X0*%
%ADD37C,2.374900*%
%ADD38C,0.990600*%
%ADD39C,0.787400*%
G04 APERTURE END LIST*
D10*
G04 #@! TO.C,C11*
X43685000Y-58440000D03*
X44325000Y-58440000D03*
G04 #@! TD*
D11*
G04 #@! TO.C,R4*
X21310000Y-48980000D03*
X21310000Y-47960000D03*
G04 #@! TD*
D12*
G04 #@! TO.C,U4*
X19320000Y-33106117D03*
D13*
X19120000Y-32906117D03*
D12*
X19820000Y-33106117D03*
X20320000Y-33106117D03*
X20820000Y-33106117D03*
D13*
X21020000Y-32906117D03*
X21020000Y-32306117D03*
D12*
X20820000Y-32106117D03*
X20320000Y-32106117D03*
X19820000Y-32106117D03*
D13*
X19120000Y-32306117D03*
D12*
X19320000Y-32106117D03*
G04 #@! TD*
D14*
G04 #@! TO.C,C9*
X19660000Y-23080000D03*
X19020000Y-23080000D03*
G04 #@! TD*
D10*
G04 #@! TO.C,C11*
X63885000Y-29240000D03*
X64525000Y-29240000D03*
G04 #@! TD*
D15*
G04 #@! TO.C,*
X76600000Y-15000000D03*
G04 #@! TD*
D16*
G04 #@! TO.C,U1*
X38310000Y-21730000D03*
X38960000Y-21730000D03*
X39610000Y-21730000D03*
X40260000Y-21730000D03*
X40260000Y-18980000D03*
X39610000Y-18980000D03*
X38960000Y-18980000D03*
X38310000Y-18980000D03*
D17*
X39285000Y-20355000D03*
G04 #@! TD*
D14*
G04 #@! TO.C,C2*
X55950000Y-52285000D03*
X55310000Y-52285000D03*
G04 #@! TD*
D18*
G04 #@! TO.C,D1*
X56180000Y-48945000D03*
X55480000Y-48945000D03*
G04 #@! TD*
G04 #@! TO.C,D1*
X15780000Y-19745000D03*
X15080000Y-19745000D03*
G04 #@! TD*
D19*
G04 #@! TO.C,U2*
X35700000Y-24960000D03*
X35700000Y-25360000D03*
X35700000Y-25760000D03*
X35700000Y-26160000D03*
X35700000Y-26560000D03*
X35700000Y-26960000D03*
X35700000Y-27360000D03*
X35700000Y-27760000D03*
X35700000Y-28160000D03*
X35700000Y-28560000D03*
X35700000Y-28960000D03*
X35700000Y-29360000D03*
X35700000Y-29760000D03*
X35700000Y-30160000D03*
D20*
X36537500Y-30997500D03*
X36937500Y-30997500D03*
X37337500Y-30997500D03*
X37737500Y-30997500D03*
X38137500Y-30997500D03*
X38537500Y-30997500D03*
X38937500Y-30997500D03*
X39337500Y-30997500D03*
X39737500Y-30997500D03*
X40137500Y-30997500D03*
X40537500Y-30997500D03*
X40937500Y-30997500D03*
X41337500Y-30997500D03*
X41737500Y-30997500D03*
D19*
X42575000Y-30160000D03*
X42575000Y-29760000D03*
X42575000Y-29360000D03*
X42575000Y-28960000D03*
X42575000Y-28560000D03*
X42575000Y-28160000D03*
X42575000Y-27760000D03*
X42575000Y-27360000D03*
X42575000Y-26960000D03*
X42575000Y-26560000D03*
X42575000Y-26160000D03*
X42575000Y-25760000D03*
X42575000Y-25360000D03*
X42575000Y-24960000D03*
D20*
X41737500Y-24122500D03*
X41337500Y-24122500D03*
X40937500Y-24122500D03*
X40537500Y-24122500D03*
X40137500Y-24122500D03*
X39737500Y-24122500D03*
X39337500Y-24122500D03*
X38937500Y-24122500D03*
X38537500Y-24122500D03*
X38137500Y-24122500D03*
X37737500Y-24122500D03*
X37337500Y-24122500D03*
X36937500Y-24122500D03*
X36537500Y-24122500D03*
D21*
X39137500Y-27560000D03*
G04 #@! TD*
D10*
G04 #@! TO.C,C11*
X23485000Y-58440000D03*
X24125000Y-58440000D03*
G04 #@! TD*
D22*
G04 #@! TO.C,C16*
X16830000Y-19715000D03*
X16830000Y-20675000D03*
G04 #@! TD*
D10*
G04 #@! TO.C,C10*
X63870000Y-59350000D03*
X64510000Y-59350000D03*
G04 #@! TD*
D23*
G04 #@! TO.C,C8*
X36480000Y-52260000D03*
X36480000Y-51620000D03*
G04 #@! TD*
D10*
G04 #@! TO.C,C15*
X62560000Y-18930000D03*
X63200000Y-18930000D03*
G04 #@! TD*
D23*
G04 #@! TO.C,C7*
X57380000Y-52255000D03*
X57380000Y-51615000D03*
G04 #@! TD*
D24*
G04 #@! TO.C,KiKit_TO_1*
X2500000Y-2500000D03*
G04 #@! TD*
D14*
G04 #@! TO.C,C9*
X60060000Y-52280000D03*
X59420000Y-52280000D03*
G04 #@! TD*
D11*
G04 #@! TO.C,R1*
X45190000Y-49770000D03*
X45190000Y-48750000D03*
G04 #@! TD*
D25*
G04 #@! TO.C,D6*
X65520000Y-28312500D03*
X65520000Y-29887500D03*
G04 #@! TD*
D19*
G04 #@! TO.C,U2*
X15500000Y-24960000D03*
X15500000Y-25360000D03*
X15500000Y-25760000D03*
X15500000Y-26160000D03*
X15500000Y-26560000D03*
X15500000Y-26960000D03*
X15500000Y-27360000D03*
X15500000Y-27760000D03*
X15500000Y-28160000D03*
X15500000Y-28560000D03*
X15500000Y-28960000D03*
X15500000Y-29360000D03*
X15500000Y-29760000D03*
X15500000Y-30160000D03*
D20*
X16337500Y-30997500D03*
X16737500Y-30997500D03*
X17137500Y-30997500D03*
X17537500Y-30997500D03*
X17937500Y-30997500D03*
X18337500Y-30997500D03*
X18737500Y-30997500D03*
X19137500Y-30997500D03*
X19537500Y-30997500D03*
X19937500Y-30997500D03*
X20337500Y-30997500D03*
X20737500Y-30997500D03*
X21137500Y-30997500D03*
X21537500Y-30997500D03*
D19*
X22375000Y-30160000D03*
X22375000Y-29760000D03*
X22375000Y-29360000D03*
X22375000Y-28960000D03*
X22375000Y-28560000D03*
X22375000Y-28160000D03*
X22375000Y-27760000D03*
X22375000Y-27360000D03*
X22375000Y-26960000D03*
X22375000Y-26560000D03*
X22375000Y-26160000D03*
X22375000Y-25760000D03*
X22375000Y-25360000D03*
X22375000Y-24960000D03*
D20*
X21537500Y-24122500D03*
X21137500Y-24122500D03*
X20737500Y-24122500D03*
X20337500Y-24122500D03*
X19937500Y-24122500D03*
X19537500Y-24122500D03*
X19137500Y-24122500D03*
X18737500Y-24122500D03*
X18337500Y-24122500D03*
X17937500Y-24122500D03*
X17537500Y-24122500D03*
X17137500Y-24122500D03*
X16737500Y-24122500D03*
X16337500Y-24122500D03*
D21*
X18937500Y-27560000D03*
G04 #@! TD*
D15*
G04 #@! TO.C,REF\u002A\u002A*
X79600000Y-15000000D03*
G04 #@! TD*
D26*
G04 #@! TO.C,SW1*
X44950000Y-23700000D03*
X44950000Y-27100000D03*
G04 #@! TD*
D15*
G04 #@! TO.C,*
X75600000Y-15000000D03*
G04 #@! TD*
D14*
G04 #@! TO.C,C9*
X60060000Y-23080000D03*
X59420000Y-23080000D03*
G04 #@! TD*
D15*
G04 #@! TO.C,*
X72600000Y-15000000D03*
G04 #@! TD*
D14*
G04 #@! TO.C,C2*
X15550000Y-23085000D03*
X14910000Y-23085000D03*
G04 #@! TD*
D16*
G04 #@! TO.C,U1*
X18110000Y-50930000D03*
X18760000Y-50930000D03*
X19410000Y-50930000D03*
X20060000Y-50930000D03*
X20060000Y-48180000D03*
X19410000Y-48180000D03*
X18760000Y-48180000D03*
X18110000Y-48180000D03*
D17*
X19085000Y-49555000D03*
G04 #@! TD*
D26*
G04 #@! TO.C,SW1*
X65150000Y-52900000D03*
X65150000Y-56300000D03*
G04 #@! TD*
D27*
G04 #@! TO.C,C1*
X18220000Y-32070000D03*
X18220000Y-32710000D03*
G04 #@! TD*
D10*
G04 #@! TO.C,C10*
X43670000Y-30150000D03*
X44310000Y-30150000D03*
G04 #@! TD*
D14*
G04 #@! TO.C,C9*
X39860000Y-23080000D03*
X39220000Y-23080000D03*
G04 #@! TD*
G04 #@! TO.C,C2*
X35750000Y-23085000D03*
X35110000Y-23085000D03*
G04 #@! TD*
D24*
G04 #@! TO.C,KiKit_TO_3*
X2500000Y-77500000D03*
G04 #@! TD*
D28*
G04 #@! TO.C,J3*
X18790000Y-33900000D03*
D29*
X19790000Y-33900000D03*
X20790000Y-33900000D03*
X21790000Y-33900000D03*
G04 #@! TD*
D30*
G04 #@! TO.C,J1*
X54100000Y-29900000D03*
D31*
X54100000Y-27400000D03*
X54100000Y-25400000D03*
X54100000Y-23400000D03*
X54100000Y-20900000D03*
G04 #@! TD*
D19*
G04 #@! TO.C,U2*
X35700000Y-54160000D03*
X35700000Y-54560000D03*
X35700000Y-54960000D03*
X35700000Y-55360000D03*
X35700000Y-55760000D03*
X35700000Y-56160000D03*
X35700000Y-56560000D03*
X35700000Y-56960000D03*
X35700000Y-57360000D03*
X35700000Y-57760000D03*
X35700000Y-58160000D03*
X35700000Y-58560000D03*
X35700000Y-58960000D03*
X35700000Y-59360000D03*
D20*
X36537500Y-60197500D03*
X36937500Y-60197500D03*
X37337500Y-60197500D03*
X37737500Y-60197500D03*
X38137500Y-60197500D03*
X38537500Y-60197500D03*
X38937500Y-60197500D03*
X39337500Y-60197500D03*
X39737500Y-60197500D03*
X40137500Y-60197500D03*
X40537500Y-60197500D03*
X40937500Y-60197500D03*
X41337500Y-60197500D03*
X41737500Y-60197500D03*
D19*
X42575000Y-59360000D03*
X42575000Y-58960000D03*
X42575000Y-58560000D03*
X42575000Y-58160000D03*
X42575000Y-57760000D03*
X42575000Y-57360000D03*
X42575000Y-56960000D03*
X42575000Y-56560000D03*
X42575000Y-56160000D03*
X42575000Y-55760000D03*
X42575000Y-55360000D03*
X42575000Y-54960000D03*
X42575000Y-54560000D03*
X42575000Y-54160000D03*
D20*
X41737500Y-53322500D03*
X41337500Y-53322500D03*
X40937500Y-53322500D03*
X40537500Y-53322500D03*
X40137500Y-53322500D03*
X39737500Y-53322500D03*
X39337500Y-53322500D03*
X38937500Y-53322500D03*
X38537500Y-53322500D03*
X38137500Y-53322500D03*
X37737500Y-53322500D03*
X37337500Y-53322500D03*
X36937500Y-53322500D03*
X36537500Y-53322500D03*
D21*
X39137500Y-56760000D03*
G04 #@! TD*
D28*
G04 #@! TO.C,J3*
X38990000Y-33900000D03*
D29*
X39990000Y-33900000D03*
X40990000Y-33900000D03*
X41990000Y-33900000D03*
G04 #@! TD*
D15*
G04 #@! TO.C,J4*
X24070000Y-33900000D03*
G04 #@! TD*
G04 #@! TO.C,*
X70600000Y-65000000D03*
G04 #@! TD*
D23*
G04 #@! TO.C,C8*
X56680000Y-52260000D03*
X56680000Y-51620000D03*
G04 #@! TD*
D15*
G04 #@! TO.C,*
X8400000Y-15000000D03*
G04 #@! TD*
D10*
G04 #@! TO.C,C10*
X43670000Y-59350000D03*
X44310000Y-59350000D03*
G04 #@! TD*
D32*
G04 #@! TO.C,C18*
X24510000Y-22570000D03*
X24510000Y-21610000D03*
G04 #@! TD*
D10*
G04 #@! TO.C,C12*
X20420000Y-23080000D03*
X21060000Y-23080000D03*
G04 #@! TD*
G04 #@! TO.C,C12*
X20420000Y-52280000D03*
X21060000Y-52280000D03*
G04 #@! TD*
D15*
G04 #@! TO.C,*
X74600000Y-15000000D03*
G04 #@! TD*
D11*
G04 #@! TO.C,R4*
X41510000Y-48980000D03*
X41510000Y-47960000D03*
G04 #@! TD*
D14*
G04 #@! TO.C,C2*
X55950000Y-23085000D03*
X55310000Y-23085000D03*
G04 #@! TD*
D27*
G04 #@! TO.C,C1*
X38420000Y-61270000D03*
X38420000Y-61910000D03*
G04 #@! TD*
D33*
G04 #@! TO.C,KiKit_FID_T_2*
X68000000Y-3850000D03*
G04 #@! TD*
D30*
G04 #@! TO.C,J1*
X54100000Y-59100000D03*
D31*
X54100000Y-56600000D03*
X54100000Y-54600000D03*
X54100000Y-52600000D03*
X54100000Y-50100000D03*
G04 #@! TD*
D25*
G04 #@! TO.C,D6*
X45320000Y-28312500D03*
X45320000Y-29887500D03*
G04 #@! TD*
D15*
G04 #@! TO.C,*
X3400000Y-65000000D03*
G04 #@! TD*
D32*
G04 #@! TO.C,C4*
X14990000Y-21605000D03*
X14990000Y-20645000D03*
G04 #@! TD*
D25*
G04 #@! TO.C,D6*
X25120000Y-57512500D03*
X25120000Y-59087500D03*
G04 #@! TD*
D16*
G04 #@! TO.C,U1*
X38310000Y-50930000D03*
X38960000Y-50930000D03*
X39610000Y-50930000D03*
X40260000Y-50930000D03*
X40260000Y-48180000D03*
X39610000Y-48180000D03*
X38960000Y-48180000D03*
X38310000Y-48180000D03*
D17*
X39285000Y-49555000D03*
G04 #@! TD*
D27*
G04 #@! TO.C,C6*
X62320000Y-61260000D03*
X62320000Y-61900000D03*
G04 #@! TD*
D15*
G04 #@! TO.C,*
X3400000Y-15000000D03*
G04 #@! TD*
D30*
G04 #@! TO.C,J1*
X33900000Y-59100000D03*
D31*
X33900000Y-56600000D03*
X33900000Y-54600000D03*
X33900000Y-52600000D03*
X33900000Y-50100000D03*
G04 #@! TD*
D10*
G04 #@! TO.C,C15*
X42360000Y-48130000D03*
X43000000Y-48130000D03*
G04 #@! TD*
D27*
G04 #@! TO.C,C6*
X42120000Y-61260000D03*
X42120000Y-61900000D03*
G04 #@! TD*
D30*
G04 #@! TO.C,J1*
X13700000Y-29900000D03*
D31*
X13700000Y-27400000D03*
X13700000Y-25400000D03*
X13700000Y-23400000D03*
X13700000Y-20900000D03*
G04 #@! TD*
D11*
G04 #@! TO.C,R4*
X61710000Y-48980000D03*
X61710000Y-47960000D03*
G04 #@! TD*
D34*
G04 #@! TO.C,Y1*
X42390000Y-50100000D03*
X42390000Y-51500000D03*
X43490000Y-51500000D03*
X43490000Y-50100000D03*
G04 #@! TD*
D30*
G04 #@! TO.C,J1*
X33900000Y-29900000D03*
D31*
X33900000Y-27400000D03*
X33900000Y-25400000D03*
X33900000Y-23400000D03*
X33900000Y-20900000D03*
G04 #@! TD*
D18*
G04 #@! TO.C,D1*
X35980000Y-48945000D03*
X35280000Y-48945000D03*
G04 #@! TD*
D35*
G04 #@! TO.C,R11*
X65670000Y-60020000D03*
X65670000Y-61040000D03*
G04 #@! TD*
D10*
G04 #@! TO.C,C15*
X22160000Y-48130000D03*
X22800000Y-48130000D03*
G04 #@! TD*
D28*
G04 #@! TO.C,J3*
X38990000Y-63100000D03*
D29*
X39990000Y-63100000D03*
X40990000Y-63100000D03*
X41990000Y-63100000D03*
G04 #@! TD*
D12*
G04 #@! TO.C,U4*
X59720000Y-33106117D03*
D13*
X59520000Y-32906117D03*
D12*
X60220000Y-33106117D03*
X60720000Y-33106117D03*
X61220000Y-33106117D03*
D13*
X61420000Y-32906117D03*
X61420000Y-32306117D03*
D12*
X61220000Y-32106117D03*
X60720000Y-32106117D03*
X60220000Y-32106117D03*
D13*
X59520000Y-32306117D03*
D12*
X59720000Y-32106117D03*
G04 #@! TD*
D11*
G04 #@! TO.C,R1*
X24990000Y-49770000D03*
X24990000Y-48750000D03*
G04 #@! TD*
D15*
G04 #@! TO.C,J4*
X44270000Y-33900000D03*
G04 #@! TD*
D27*
G04 #@! TO.C,C6*
X21920000Y-32060000D03*
X21920000Y-32700000D03*
G04 #@! TD*
D32*
G04 #@! TO.C,C4*
X14990000Y-50805000D03*
X14990000Y-49845000D03*
G04 #@! TD*
D15*
G04 #@! TO.C,J4*
X44270000Y-63100000D03*
G04 #@! TD*
D26*
G04 #@! TO.C,SW1*
X44950000Y-52900000D03*
X44950000Y-56300000D03*
G04 #@! TD*
D23*
G04 #@! TO.C,C7*
X16980000Y-23055000D03*
X16980000Y-22415000D03*
G04 #@! TD*
D15*
G04 #@! TO.C,*
X78600000Y-15000000D03*
G04 #@! TD*
G04 #@! TO.C,*
X69600000Y-65000000D03*
G04 #@! TD*
D32*
G04 #@! TO.C,C4*
X35190000Y-21605000D03*
X35190000Y-20645000D03*
G04 #@! TD*
D35*
G04 #@! TO.C,R11*
X25270000Y-60020000D03*
X25270000Y-61040000D03*
G04 #@! TD*
D26*
G04 #@! TO.C,SW1*
X65150000Y-23700000D03*
X65150000Y-27100000D03*
G04 #@! TD*
D36*
G04 #@! TO.C,C19*
X42410000Y-48940000D03*
X43370000Y-48940000D03*
G04 #@! TD*
D23*
G04 #@! TO.C,C8*
X16280000Y-52260000D03*
X16280000Y-51620000D03*
G04 #@! TD*
D14*
G04 #@! TO.C,C3*
X15550000Y-22385000D03*
X14910000Y-22385000D03*
G04 #@! TD*
D15*
G04 #@! TO.C,*
X7400000Y-65000000D03*
G04 #@! TD*
D22*
G04 #@! TO.C,C16*
X37030000Y-48915000D03*
X37030000Y-49875000D03*
G04 #@! TD*
D10*
G04 #@! TO.C,C12*
X60820000Y-52280000D03*
X61460000Y-52280000D03*
G04 #@! TD*
D37*
G04 #@! TO.C,REF\u002A\u002A*
X8390000Y-20320000D03*
D38*
X5850000Y-20320000D03*
D37*
X3310000Y-20320000D03*
X8390000Y-28575000D03*
X3310000Y-28575000D03*
D38*
X6866000Y-30480000D03*
X4834000Y-30480000D03*
D39*
X5215000Y-21590000D03*
X5215000Y-22860000D03*
X5215000Y-24130000D03*
X5215000Y-25400000D03*
X5215000Y-26670000D03*
X5215000Y-27940000D03*
X5215000Y-29210000D03*
X6485000Y-29210000D03*
X6485000Y-27940000D03*
X6485000Y-26670000D03*
X6485000Y-25400000D03*
X6485000Y-24130000D03*
X6485000Y-22860000D03*
X6485000Y-21590000D03*
G04 #@! TD*
D14*
G04 #@! TO.C,C9*
X19660000Y-52280000D03*
X19020000Y-52280000D03*
G04 #@! TD*
D32*
G04 #@! TO.C,C18*
X44710000Y-51770000D03*
X44710000Y-50810000D03*
G04 #@! TD*
D10*
G04 #@! TO.C,C10*
X23470000Y-30150000D03*
X24110000Y-30150000D03*
G04 #@! TD*
D15*
G04 #@! TO.C,*
X4400000Y-65000000D03*
G04 #@! TD*
D33*
G04 #@! TO.C,KiKit_FID_T_3*
X12000000Y-76150000D03*
G04 #@! TD*
D10*
G04 #@! TO.C,C10*
X23470000Y-59350000D03*
X24110000Y-59350000D03*
G04 #@! TD*
D23*
G04 #@! TO.C,C8*
X16280000Y-23060000D03*
X16280000Y-22420000D03*
G04 #@! TD*
D14*
G04 #@! TO.C,C3*
X55950000Y-22385000D03*
X55310000Y-22385000D03*
G04 #@! TD*
D16*
G04 #@! TO.C,U1*
X58510000Y-21730000D03*
X59160000Y-21730000D03*
X59810000Y-21730000D03*
X60460000Y-21730000D03*
X60460000Y-18980000D03*
X59810000Y-18980000D03*
X59160000Y-18980000D03*
X58510000Y-18980000D03*
D17*
X59485000Y-20355000D03*
G04 #@! TD*
D25*
G04 #@! TO.C,D6*
X25120000Y-28312500D03*
X25120000Y-29887500D03*
G04 #@! TD*
D14*
G04 #@! TO.C,C9*
X39860000Y-52280000D03*
X39220000Y-52280000D03*
G04 #@! TD*
D23*
G04 #@! TO.C,C8*
X56680000Y-23060000D03*
X56680000Y-22420000D03*
G04 #@! TD*
G04 #@! TO.C,C7*
X57380000Y-23055000D03*
X57380000Y-22415000D03*
G04 #@! TD*
D15*
G04 #@! TO.C,*
X77600000Y-65000000D03*
G04 #@! TD*
D23*
G04 #@! TO.C,C8*
X36480000Y-23060000D03*
X36480000Y-22420000D03*
G04 #@! TD*
D10*
G04 #@! TO.C,C11*
X23485000Y-29240000D03*
X24125000Y-29240000D03*
G04 #@! TD*
G04 #@! TO.C,C15*
X42360000Y-18930000D03*
X43000000Y-18930000D03*
G04 #@! TD*
D27*
G04 #@! TO.C,C1*
X58620000Y-32070000D03*
X58620000Y-32710000D03*
G04 #@! TD*
D22*
G04 #@! TO.C,C16*
X16830000Y-48915000D03*
X16830000Y-49875000D03*
G04 #@! TD*
D32*
G04 #@! TO.C,C17*
X56310000Y-50805000D03*
X56310000Y-49845000D03*
G04 #@! TD*
D23*
G04 #@! TO.C,C7*
X16980000Y-52255000D03*
X16980000Y-51615000D03*
G04 #@! TD*
D27*
G04 #@! TO.C,C1*
X38420000Y-32070000D03*
X38420000Y-32710000D03*
G04 #@! TD*
D15*
G04 #@! TO.C,*
X7400000Y-15000000D03*
G04 #@! TD*
D14*
G04 #@! TO.C,C2*
X15550000Y-52285000D03*
X14910000Y-52285000D03*
G04 #@! TD*
D28*
G04 #@! TO.C,J3*
X59190000Y-63100000D03*
D29*
X60190000Y-63100000D03*
X61190000Y-63100000D03*
X62190000Y-63100000D03*
G04 #@! TD*
D22*
G04 #@! TO.C,C16*
X57230000Y-19715000D03*
X57230000Y-20675000D03*
G04 #@! TD*
D15*
G04 #@! TO.C,*
X400000Y-15000000D03*
G04 #@! TD*
D34*
G04 #@! TO.C,Y1*
X42390000Y-20900000D03*
X42390000Y-22300000D03*
X43490000Y-22300000D03*
X43490000Y-20900000D03*
G04 #@! TD*
D35*
G04 #@! TO.C,R11*
X45470000Y-60020000D03*
X45470000Y-61040000D03*
G04 #@! TD*
D22*
G04 #@! TO.C,C16*
X57230000Y-48915000D03*
X57230000Y-49875000D03*
G04 #@! TD*
D32*
G04 #@! TO.C,C18*
X64910000Y-51770000D03*
X64910000Y-50810000D03*
G04 #@! TD*
D15*
G04 #@! TO.C,*
X2400000Y-65000000D03*
G04 #@! TD*
G04 #@! TO.C,*
X2400000Y-15000000D03*
G04 #@! TD*
D12*
G04 #@! TO.C,U4*
X39520000Y-33106117D03*
D13*
X39320000Y-32906117D03*
D12*
X40020000Y-33106117D03*
X40520000Y-33106117D03*
X41020000Y-33106117D03*
D13*
X41220000Y-32906117D03*
X41220000Y-32306117D03*
D12*
X41020000Y-32106117D03*
X40520000Y-32106117D03*
X40020000Y-32106117D03*
D13*
X39320000Y-32306117D03*
D12*
X39520000Y-32106117D03*
G04 #@! TD*
D23*
G04 #@! TO.C,C7*
X37180000Y-52255000D03*
X37180000Y-51615000D03*
G04 #@! TD*
D14*
G04 #@! TO.C,C3*
X35750000Y-22385000D03*
X35110000Y-22385000D03*
G04 #@! TD*
D15*
G04 #@! TO.C,*
X5400000Y-15000000D03*
G04 #@! TD*
G04 #@! TO.C,*
X5400000Y-65000000D03*
G04 #@! TD*
D37*
G04 #@! TO.C,REF\u002A\u002A*
X8390000Y-49520000D03*
D38*
X5850000Y-49520000D03*
D37*
X3310000Y-49520000D03*
X8390000Y-57775000D03*
X3310000Y-57775000D03*
D38*
X6866000Y-59680000D03*
X4834000Y-59680000D03*
D39*
X5215000Y-50790000D03*
X5215000Y-52060000D03*
X5215000Y-53330000D03*
X5215000Y-54600000D03*
X5215000Y-55870000D03*
X5215000Y-57140000D03*
X5215000Y-58410000D03*
X6485000Y-58410000D03*
X6485000Y-57140000D03*
X6485000Y-55870000D03*
X6485000Y-54600000D03*
X6485000Y-53330000D03*
X6485000Y-52060000D03*
X6485000Y-50790000D03*
G04 #@! TD*
D19*
G04 #@! TO.C,U2*
X55900000Y-24960000D03*
X55900000Y-25360000D03*
X55900000Y-25760000D03*
X55900000Y-26160000D03*
X55900000Y-26560000D03*
X55900000Y-26960000D03*
X55900000Y-27360000D03*
X55900000Y-27760000D03*
X55900000Y-28160000D03*
X55900000Y-28560000D03*
X55900000Y-28960000D03*
X55900000Y-29360000D03*
X55900000Y-29760000D03*
X55900000Y-30160000D03*
D20*
X56737500Y-30997500D03*
X57137500Y-30997500D03*
X57537500Y-30997500D03*
X57937500Y-30997500D03*
X58337500Y-30997500D03*
X58737500Y-30997500D03*
X59137500Y-30997500D03*
X59537500Y-30997500D03*
X59937500Y-30997500D03*
X60337500Y-30997500D03*
X60737500Y-30997500D03*
X61137500Y-30997500D03*
X61537500Y-30997500D03*
X61937500Y-30997500D03*
D19*
X62775000Y-30160000D03*
X62775000Y-29760000D03*
X62775000Y-29360000D03*
X62775000Y-28960000D03*
X62775000Y-28560000D03*
X62775000Y-28160000D03*
X62775000Y-27760000D03*
X62775000Y-27360000D03*
X62775000Y-26960000D03*
X62775000Y-26560000D03*
X62775000Y-26160000D03*
X62775000Y-25760000D03*
X62775000Y-25360000D03*
X62775000Y-24960000D03*
D20*
X61937500Y-24122500D03*
X61537500Y-24122500D03*
X61137500Y-24122500D03*
X60737500Y-24122500D03*
X60337500Y-24122500D03*
X59937500Y-24122500D03*
X59537500Y-24122500D03*
X59137500Y-24122500D03*
X58737500Y-24122500D03*
X58337500Y-24122500D03*
X57937500Y-24122500D03*
X57537500Y-24122500D03*
X57137500Y-24122500D03*
X56737500Y-24122500D03*
D21*
X59337500Y-27560000D03*
G04 #@! TD*
D15*
G04 #@! TO.C,*
X6400000Y-65000000D03*
G04 #@! TD*
D32*
G04 #@! TO.C,C18*
X24510000Y-51770000D03*
X24510000Y-50810000D03*
G04 #@! TD*
D15*
G04 #@! TO.C,*
X68600000Y-65000000D03*
G04 #@! TD*
D25*
G04 #@! TO.C,D6*
X65520000Y-57512500D03*
X65520000Y-59087500D03*
G04 #@! TD*
D27*
G04 #@! TO.C,C1*
X18220000Y-61270000D03*
X18220000Y-61910000D03*
G04 #@! TD*
D15*
G04 #@! TO.C,*
X68600000Y-15000000D03*
G04 #@! TD*
D36*
G04 #@! TO.C,C19*
X22210000Y-19740000D03*
X23170000Y-19740000D03*
G04 #@! TD*
D15*
G04 #@! TO.C,J4*
X24070000Y-63100000D03*
G04 #@! TD*
D18*
G04 #@! TO.C,D1*
X15780000Y-48945000D03*
X15080000Y-48945000D03*
G04 #@! TD*
D14*
G04 #@! TO.C,C3*
X55950000Y-51585000D03*
X55310000Y-51585000D03*
G04 #@! TD*
D18*
G04 #@! TO.C,D1*
X56180000Y-19745000D03*
X55480000Y-19745000D03*
G04 #@! TD*
D35*
G04 #@! TO.C,R11*
X25270000Y-30820000D03*
X25270000Y-31840000D03*
G04 #@! TD*
D12*
G04 #@! TO.C,U4*
X19320000Y-62306117D03*
D13*
X19120000Y-62106117D03*
D12*
X19820000Y-62306117D03*
X20320000Y-62306117D03*
X20820000Y-62306117D03*
D13*
X21020000Y-62106117D03*
X21020000Y-61506117D03*
D12*
X20820000Y-61306117D03*
X20320000Y-61306117D03*
X19820000Y-61306117D03*
D13*
X19120000Y-61506117D03*
D12*
X19320000Y-61306117D03*
G04 #@! TD*
D15*
G04 #@! TO.C,J4*
X64470000Y-63100000D03*
G04 #@! TD*
G04 #@! TO.C,*
X6400000Y-15000000D03*
G04 #@! TD*
D11*
G04 #@! TO.C,R1*
X65390000Y-20570000D03*
X65390000Y-19550000D03*
G04 #@! TD*
D27*
G04 #@! TO.C,C1*
X58620000Y-61270000D03*
X58620000Y-61910000D03*
G04 #@! TD*
D32*
G04 #@! TO.C,C4*
X55390000Y-21605000D03*
X55390000Y-20645000D03*
G04 #@! TD*
D11*
G04 #@! TO.C,R4*
X61710000Y-19780000D03*
X61710000Y-18760000D03*
G04 #@! TD*
D28*
G04 #@! TO.C,J3*
X18790000Y-63100000D03*
D29*
X19790000Y-63100000D03*
X20790000Y-63100000D03*
X21790000Y-63100000D03*
G04 #@! TD*
D11*
G04 #@! TO.C,R1*
X65390000Y-49770000D03*
X65390000Y-48750000D03*
G04 #@! TD*
D32*
G04 #@! TO.C,C18*
X44710000Y-22570000D03*
X44710000Y-21610000D03*
G04 #@! TD*
G04 #@! TO.C,C17*
X36110000Y-50805000D03*
X36110000Y-49845000D03*
G04 #@! TD*
D25*
G04 #@! TO.C,D6*
X45320000Y-57512500D03*
X45320000Y-59087500D03*
G04 #@! TD*
D19*
G04 #@! TO.C,U2*
X15500000Y-54160000D03*
X15500000Y-54560000D03*
X15500000Y-54960000D03*
X15500000Y-55360000D03*
X15500000Y-55760000D03*
X15500000Y-56160000D03*
X15500000Y-56560000D03*
X15500000Y-56960000D03*
X15500000Y-57360000D03*
X15500000Y-57760000D03*
X15500000Y-58160000D03*
X15500000Y-58560000D03*
X15500000Y-58960000D03*
X15500000Y-59360000D03*
D20*
X16337500Y-60197500D03*
X16737500Y-60197500D03*
X17137500Y-60197500D03*
X17537500Y-60197500D03*
X17937500Y-60197500D03*
X18337500Y-60197500D03*
X18737500Y-60197500D03*
X19137500Y-60197500D03*
X19537500Y-60197500D03*
X19937500Y-60197500D03*
X20337500Y-60197500D03*
X20737500Y-60197500D03*
X21137500Y-60197500D03*
X21537500Y-60197500D03*
D19*
X22375000Y-59360000D03*
X22375000Y-58960000D03*
X22375000Y-58560000D03*
X22375000Y-58160000D03*
X22375000Y-57760000D03*
X22375000Y-57360000D03*
X22375000Y-56960000D03*
X22375000Y-56560000D03*
X22375000Y-56160000D03*
X22375000Y-55760000D03*
X22375000Y-55360000D03*
X22375000Y-54960000D03*
X22375000Y-54560000D03*
X22375000Y-54160000D03*
D20*
X21537500Y-53322500D03*
X21137500Y-53322500D03*
X20737500Y-53322500D03*
X20337500Y-53322500D03*
X19937500Y-53322500D03*
X19537500Y-53322500D03*
X19137500Y-53322500D03*
X18737500Y-53322500D03*
X18337500Y-53322500D03*
X17937500Y-53322500D03*
X17537500Y-53322500D03*
X17137500Y-53322500D03*
X16737500Y-53322500D03*
X16337500Y-53322500D03*
D21*
X18937500Y-56760000D03*
G04 #@! TD*
D34*
G04 #@! TO.C,Y1*
X62590000Y-20900000D03*
X62590000Y-22300000D03*
X63690000Y-22300000D03*
X63690000Y-20900000D03*
G04 #@! TD*
D26*
G04 #@! TO.C,SW1*
X24750000Y-23700000D03*
X24750000Y-27100000D03*
G04 #@! TD*
D33*
G04 #@! TO.C,KiKit_FID_T_4*
X68000000Y-76150000D03*
G04 #@! TD*
D35*
G04 #@! TO.C,R11*
X45470000Y-30820000D03*
X45470000Y-31840000D03*
G04 #@! TD*
D15*
G04 #@! TO.C,*
X8400000Y-65000000D03*
G04 #@! TD*
D34*
G04 #@! TO.C,Y1*
X22190000Y-50100000D03*
X22190000Y-51500000D03*
X23290000Y-51500000D03*
X23290000Y-50100000D03*
G04 #@! TD*
D16*
G04 #@! TO.C,U1*
X18110000Y-21730000D03*
X18760000Y-21730000D03*
X19410000Y-21730000D03*
X20060000Y-21730000D03*
X20060000Y-18980000D03*
X19410000Y-18980000D03*
X18760000Y-18980000D03*
X18110000Y-18980000D03*
D17*
X19085000Y-20355000D03*
G04 #@! TD*
D32*
G04 #@! TO.C,C17*
X15910000Y-50805000D03*
X15910000Y-49845000D03*
G04 #@! TD*
D15*
G04 #@! TO.C,*
X69600000Y-15000000D03*
G04 #@! TD*
D12*
G04 #@! TO.C,U4*
X39520000Y-62306117D03*
D13*
X39320000Y-62106117D03*
D12*
X40020000Y-62306117D03*
X40520000Y-62306117D03*
X41020000Y-62306117D03*
D13*
X41220000Y-62106117D03*
X41220000Y-61506117D03*
D12*
X41020000Y-61306117D03*
X40520000Y-61306117D03*
X40020000Y-61306117D03*
D13*
X39320000Y-61506117D03*
D12*
X39520000Y-61306117D03*
G04 #@! TD*
D34*
G04 #@! TO.C,Y1*
X22190000Y-20900000D03*
X22190000Y-22300000D03*
X23290000Y-22300000D03*
X23290000Y-20900000D03*
G04 #@! TD*
D36*
G04 #@! TO.C,C19*
X42410000Y-19740000D03*
X43370000Y-19740000D03*
G04 #@! TD*
D15*
G04 #@! TO.C,*
X76600000Y-65000000D03*
G04 #@! TD*
G04 #@! TO.C,*
X9400000Y-15000000D03*
G04 #@! TD*
D12*
G04 #@! TO.C,U4*
X59720000Y-62306117D03*
D13*
X59520000Y-62106117D03*
D12*
X60220000Y-62306117D03*
X60720000Y-62306117D03*
X61220000Y-62306117D03*
D13*
X61420000Y-62106117D03*
X61420000Y-61506117D03*
D12*
X61220000Y-61306117D03*
X60720000Y-61306117D03*
X60220000Y-61306117D03*
D13*
X59520000Y-61506117D03*
D12*
X59720000Y-61306117D03*
G04 #@! TD*
D34*
G04 #@! TO.C,Y1*
X62590000Y-50100000D03*
X62590000Y-51500000D03*
X63690000Y-51500000D03*
X63690000Y-50100000D03*
G04 #@! TD*
D15*
G04 #@! TO.C,*
X1400000Y-65000000D03*
G04 #@! TD*
D14*
G04 #@! TO.C,C3*
X15550000Y-51585000D03*
X14910000Y-51585000D03*
G04 #@! TD*
D15*
G04 #@! TO.C,*
X78600000Y-65000000D03*
G04 #@! TD*
D35*
G04 #@! TO.C,R11*
X65670000Y-30820000D03*
X65670000Y-31840000D03*
G04 #@! TD*
D10*
G04 #@! TO.C,C11*
X63885000Y-58440000D03*
X64525000Y-58440000D03*
G04 #@! TD*
D32*
G04 #@! TO.C,C17*
X56310000Y-21605000D03*
X56310000Y-20645000D03*
G04 #@! TD*
D36*
G04 #@! TO.C,C19*
X22210000Y-48940000D03*
X23170000Y-48940000D03*
G04 #@! TD*
D15*
G04 #@! TO.C,*
X73600000Y-15000000D03*
G04 #@! TD*
D10*
G04 #@! TO.C,C11*
X43685000Y-29240000D03*
X44325000Y-29240000D03*
G04 #@! TD*
D18*
G04 #@! TO.C,D1*
X35980000Y-19745000D03*
X35280000Y-19745000D03*
G04 #@! TD*
D15*
G04 #@! TO.C,*
X400000Y-65000000D03*
G04 #@! TD*
D10*
G04 #@! TO.C,C15*
X62560000Y-48130000D03*
X63200000Y-48130000D03*
G04 #@! TD*
G04 #@! TO.C,C15*
X22160000Y-18930000D03*
X22800000Y-18930000D03*
G04 #@! TD*
D22*
G04 #@! TO.C,C16*
X37030000Y-19715000D03*
X37030000Y-20675000D03*
G04 #@! TD*
D19*
G04 #@! TO.C,U2*
X55900000Y-54160000D03*
X55900000Y-54560000D03*
X55900000Y-54960000D03*
X55900000Y-55360000D03*
X55900000Y-55760000D03*
X55900000Y-56160000D03*
X55900000Y-56560000D03*
X55900000Y-56960000D03*
X55900000Y-57360000D03*
X55900000Y-57760000D03*
X55900000Y-58160000D03*
X55900000Y-58560000D03*
X55900000Y-58960000D03*
X55900000Y-59360000D03*
D20*
X56737500Y-60197500D03*
X57137500Y-60197500D03*
X57537500Y-60197500D03*
X57937500Y-60197500D03*
X58337500Y-60197500D03*
X58737500Y-60197500D03*
X59137500Y-60197500D03*
X59537500Y-60197500D03*
X59937500Y-60197500D03*
X60337500Y-60197500D03*
X60737500Y-60197500D03*
X61137500Y-60197500D03*
X61537500Y-60197500D03*
X61937500Y-60197500D03*
D19*
X62775000Y-59360000D03*
X62775000Y-58960000D03*
X62775000Y-58560000D03*
X62775000Y-58160000D03*
X62775000Y-57760000D03*
X62775000Y-57360000D03*
X62775000Y-56960000D03*
X62775000Y-56560000D03*
X62775000Y-56160000D03*
X62775000Y-55760000D03*
X62775000Y-55360000D03*
X62775000Y-54960000D03*
X62775000Y-54560000D03*
X62775000Y-54160000D03*
D20*
X61937500Y-53322500D03*
X61537500Y-53322500D03*
X61137500Y-53322500D03*
X60737500Y-53322500D03*
X60337500Y-53322500D03*
X59937500Y-53322500D03*
X59537500Y-53322500D03*
X59137500Y-53322500D03*
X58737500Y-53322500D03*
X58337500Y-53322500D03*
X57937500Y-53322500D03*
X57537500Y-53322500D03*
X57137500Y-53322500D03*
X56737500Y-53322500D03*
D21*
X59337500Y-56760000D03*
G04 #@! TD*
D10*
G04 #@! TO.C,C10*
X63870000Y-30150000D03*
X64510000Y-30150000D03*
G04 #@! TD*
G04 #@! TO.C,C12*
X60820000Y-23080000D03*
X61460000Y-23080000D03*
G04 #@! TD*
D15*
G04 #@! TO.C,*
X71600000Y-15000000D03*
G04 #@! TD*
G04 #@! TO.C,*
X70600000Y-15000000D03*
G04 #@! TD*
G04 #@! TO.C,J4*
X64470000Y-33900000D03*
G04 #@! TD*
D27*
G04 #@! TO.C,C6*
X62320000Y-32060000D03*
X62320000Y-32700000D03*
G04 #@! TD*
D24*
G04 #@! TO.C,KiKit_TO_4*
X77500000Y-77500000D03*
G04 #@! TD*
D32*
G04 #@! TO.C,C18*
X64910000Y-22570000D03*
X64910000Y-21610000D03*
G04 #@! TD*
D11*
G04 #@! TO.C,R1*
X45190000Y-20570000D03*
X45190000Y-19550000D03*
G04 #@! TD*
D33*
G04 #@! TO.C,KiKit_FID_T_1*
X12000000Y-3850000D03*
G04 #@! TD*
D27*
G04 #@! TO.C,C6*
X42120000Y-32060000D03*
X42120000Y-32700000D03*
G04 #@! TD*
D14*
G04 #@! TO.C,C3*
X35750000Y-51585000D03*
X35110000Y-51585000D03*
G04 #@! TD*
D23*
G04 #@! TO.C,C7*
X37180000Y-23055000D03*
X37180000Y-22415000D03*
G04 #@! TD*
D28*
G04 #@! TO.C,J3*
X59190000Y-33900000D03*
D29*
X60190000Y-33900000D03*
X61190000Y-33900000D03*
X62190000Y-33900000D03*
G04 #@! TD*
D26*
G04 #@! TO.C,SW1*
X24750000Y-52900000D03*
X24750000Y-56300000D03*
G04 #@! TD*
D15*
G04 #@! TO.C,*
X4400000Y-15000000D03*
G04 #@! TD*
G04 #@! TO.C,*
X74600000Y-65000000D03*
G04 #@! TD*
D36*
G04 #@! TO.C,C19*
X62610000Y-19740000D03*
X63570000Y-19740000D03*
G04 #@! TD*
D15*
G04 #@! TO.C,*
X9400000Y-65000000D03*
G04 #@! TD*
D11*
G04 #@! TO.C,R4*
X21310000Y-19780000D03*
X21310000Y-18760000D03*
G04 #@! TD*
D27*
G04 #@! TO.C,C6*
X21920000Y-61260000D03*
X21920000Y-61900000D03*
G04 #@! TD*
D24*
G04 #@! TO.C,KiKit_TO_2*
X77500000Y-2500000D03*
G04 #@! TD*
D32*
G04 #@! TO.C,C4*
X35190000Y-50805000D03*
X35190000Y-49845000D03*
G04 #@! TD*
D15*
G04 #@! TO.C,*
X1400000Y-15000000D03*
G04 #@! TD*
D14*
G04 #@! TO.C,C2*
X35750000Y-52285000D03*
X35110000Y-52285000D03*
G04 #@! TD*
D30*
G04 #@! TO.C,J1*
X13700000Y-59100000D03*
D31*
X13700000Y-56600000D03*
X13700000Y-54600000D03*
X13700000Y-52600000D03*
X13700000Y-50100000D03*
G04 #@! TD*
D32*
G04 #@! TO.C,C17*
X36110000Y-21605000D03*
X36110000Y-20645000D03*
G04 #@! TD*
D15*
G04 #@! TO.C,*
X77600000Y-15000000D03*
G04 #@! TD*
D10*
G04 #@! TO.C,C12*
X40620000Y-52280000D03*
X41260000Y-52280000D03*
G04 #@! TD*
D15*
G04 #@! TO.C,*
X75600000Y-65000000D03*
G04 #@! TD*
D32*
G04 #@! TO.C,C4*
X55390000Y-50805000D03*
X55390000Y-49845000D03*
G04 #@! TD*
D10*
G04 #@! TO.C,C12*
X40620000Y-23080000D03*
X41260000Y-23080000D03*
G04 #@! TD*
D11*
G04 #@! TO.C,R4*
X41510000Y-19780000D03*
X41510000Y-18760000D03*
G04 #@! TD*
D15*
G04 #@! TO.C,*
X71600000Y-65000000D03*
G04 #@! TD*
G04 #@! TO.C,*
X73600000Y-65000000D03*
G04 #@! TD*
D11*
G04 #@! TO.C,R1*
X24990000Y-20570000D03*
X24990000Y-19550000D03*
G04 #@! TD*
D16*
G04 #@! TO.C,U1*
X58510000Y-50930000D03*
X59160000Y-50930000D03*
X59810000Y-50930000D03*
X60460000Y-50930000D03*
X60460000Y-48180000D03*
X59810000Y-48180000D03*
X59160000Y-48180000D03*
X58510000Y-48180000D03*
D17*
X59485000Y-49555000D03*
G04 #@! TD*
D32*
G04 #@! TO.C,C17*
X15910000Y-21605000D03*
X15910000Y-20645000D03*
G04 #@! TD*
D36*
G04 #@! TO.C,C19*
X62610000Y-48940000D03*
X63570000Y-48940000D03*
G04 #@! TD*
D15*
G04 #@! TO.C,REF\u002A\u002A*
X79600000Y-65000000D03*
G04 #@! TD*
G04 #@! TO.C,*
X72600000Y-65000000D03*
G04 #@! TD*
D28*
G04 #@! TO.C,J2*
X18770000Y-17130000D03*
D29*
X18770000Y-18130000D03*
X19770000Y-17130000D03*
X19770000Y-18130000D03*
X20770000Y-17130000D03*
X21770000Y-17130000D03*
X22770000Y-17130000D03*
X22770000Y-18130000D03*
X23770000Y-17130000D03*
X23770000Y-18130000D03*
G04 #@! TD*
D28*
G04 #@! TO.C,J2*
X38970000Y-17130000D03*
D29*
X38970000Y-18130000D03*
X39970000Y-17130000D03*
X39970000Y-18130000D03*
X40970000Y-17130000D03*
X41970000Y-17130000D03*
X42970000Y-17130000D03*
X42970000Y-18130000D03*
X43970000Y-17130000D03*
X43970000Y-18130000D03*
G04 #@! TD*
D28*
G04 #@! TO.C,J2*
X38970000Y-46330000D03*
D29*
X38970000Y-47330000D03*
X39970000Y-46330000D03*
X39970000Y-47330000D03*
X40970000Y-46330000D03*
X41970000Y-46330000D03*
X42970000Y-46330000D03*
X42970000Y-47330000D03*
X43970000Y-46330000D03*
X43970000Y-47330000D03*
G04 #@! TD*
D28*
G04 #@! TO.C,J2*
X18770000Y-46330000D03*
D29*
X18770000Y-47330000D03*
X19770000Y-46330000D03*
X19770000Y-47330000D03*
X20770000Y-46330000D03*
X21770000Y-46330000D03*
X22770000Y-46330000D03*
X22770000Y-47330000D03*
X23770000Y-46330000D03*
X23770000Y-47330000D03*
G04 #@! TD*
D28*
G04 #@! TO.C,J2*
X59170000Y-17130000D03*
D29*
X59170000Y-18130000D03*
X60170000Y-17130000D03*
X60170000Y-18130000D03*
X61170000Y-17130000D03*
X62170000Y-17130000D03*
X63170000Y-17130000D03*
X63170000Y-18130000D03*
X64170000Y-17130000D03*
X64170000Y-18130000D03*
G04 #@! TD*
D28*
G04 #@! TO.C,J2*
X59170000Y-46330000D03*
D29*
X59170000Y-47330000D03*
X60170000Y-46330000D03*
X60170000Y-47330000D03*
X61170000Y-46330000D03*
X62170000Y-46330000D03*
X63170000Y-46330000D03*
X63170000Y-47330000D03*
X64170000Y-46330000D03*
X64170000Y-47330000D03*
G04 #@! TD*
M02*
