G04 #@! TF.GenerationSoftware,KiCad,Pcbnew,9.0.0-9.0.0-2~ubuntu24.04.1*
G04 #@! TF.CreationDate,2025-03-16T16:10:11-04:00*
G04 #@! TF.ProjectId,panel9,70616e65-6c39-42e6-9b69-6361645f7063,rev?*
G04 #@! TF.SameCoordinates,Original*
G04 #@! TF.FileFunction,Paste,Top*
G04 #@! TF.FilePolarity,Positive*
%FSLAX46Y46*%
G04 Gerber Fmt 4.6, Leading zero omitted, Abs format (unit mm)*
G04 Created by KiCad (PCBNEW 9.0.0-9.0.0-2~ubuntu24.04.1) date 2025-03-16 16:10:11*
%MOMM*%
%LPD*%
G01*
G04 APERTURE LIST*
G04 Aperture macros list*
%AMRoundRect*
0 Rectangle with rounded corners*
0 $1 Rounding radius*
0 $2 $3 $4 $5 $6 $7 $8 $9 X,Y pos of 4 corners*
0 Add a 4 corners polygon primitive as box body*
4,1,4,$2,$3,$4,$5,$6,$7,$8,$9,$2,$3,0*
0 Add four circle primitives for the rounded corners*
1,1,$1+$1,$2,$3*
1,1,$1+$1,$4,$5*
1,1,$1+$1,$6,$7*
1,1,$1+$1,$8,$9*
0 Add four rect primitives between the rounded corners*
20,1,$1+$1,$2,$3,$4,$5,0*
20,1,$1+$1,$4,$5,$6,$7,0*
20,1,$1+$1,$6,$7,$8,$9,0*
20,1,$1+$1,$8,$9,$2,$3,0*%
G04 Aperture macros list end*
%ADD10RoundRect,0.079500X-0.079500X-0.100500X0.079500X-0.100500X0.079500X0.100500X-0.079500X0.100500X0*%
%ADD11RoundRect,0.135000X0.185000X-0.135000X0.185000X0.135000X-0.185000X0.135000X-0.185000X-0.135000X0*%
%ADD12R,0.200000X0.600000*%
%ADD13R,0.200000X0.200000*%
%ADD14RoundRect,0.079500X0.079500X0.100500X-0.079500X0.100500X-0.079500X-0.100500X0.079500X-0.100500X0*%
%ADD15R,1.000000X0.600000*%
%ADD16R,0.350000X0.650000*%
%ADD17R,0.300000X0.500000*%
%ADD18RoundRect,0.387168X-0.487832X-0.487832X0.487832X-0.487832X0.487832X0.487832X-0.487832X0.487832X0*%
%ADD19RoundRect,0.050000X-0.387500X-0.050000X0.387500X-0.050000X0.387500X0.050000X-0.387500X0.050000X0*%
%ADD20RoundRect,0.050000X-0.050000X-0.387500X0.050000X-0.387500X0.050000X0.387500X-0.050000X0.387500X0*%
%ADD21RoundRect,0.140000X-0.170000X0.140000X-0.170000X-0.140000X0.170000X-0.140000X0.170000X0.140000X0*%
%ADD22RoundRect,0.079500X0.100500X-0.079500X0.100500X0.079500X-0.100500X0.079500X-0.100500X-0.079500X0*%
%ADD23RoundRect,0.218750X-0.256250X0.218750X-0.256250X-0.218750X0.256250X-0.218750X0.256250X0.218750X0*%
%ADD24R,1.700000X0.900000*%
%ADD25RoundRect,0.079500X-0.100500X0.079500X-0.100500X-0.079500X0.100500X-0.079500X0.100500X0.079500X0*%
%ADD26RoundRect,0.140000X0.170000X-0.140000X0.170000X0.140000X-0.170000X0.140000X-0.170000X-0.140000X0*%
%ADD27R,0.800000X0.900000*%
%ADD28RoundRect,0.135000X-0.185000X0.135000X-0.185000X-0.135000X0.185000X-0.135000X0.185000X0.135000X0*%
%ADD29RoundRect,0.140000X-0.140000X-0.170000X0.140000X-0.170000X0.140000X0.170000X-0.140000X0.170000X0*%
G04 APERTURE END LIST*
D10*
G04 #@! TO.C,C11*
X43660000Y-58440000D03*
X44350000Y-58440000D03*
G04 #@! TD*
D11*
G04 #@! TO.C,R4*
X21310000Y-48980000D03*
X21310000Y-47960000D03*
G04 #@! TD*
D12*
G04 #@! TO.C,U4*
X19320000Y-33106117D03*
D13*
X19120000Y-32906117D03*
D12*
X19820000Y-33106117D03*
X20320000Y-33106117D03*
X20820000Y-33106117D03*
D13*
X21020000Y-32906117D03*
X21020000Y-32306117D03*
D12*
X20820000Y-32106117D03*
X20320000Y-32106117D03*
X19820000Y-32106117D03*
D13*
X19120000Y-32306117D03*
D12*
X19320000Y-32106117D03*
G04 #@! TD*
D14*
G04 #@! TO.C,C9*
X19685000Y-23080000D03*
X18995000Y-23080000D03*
G04 #@! TD*
D10*
G04 #@! TO.C,C11*
X63860000Y-29240000D03*
X64550000Y-29240000D03*
G04 #@! TD*
D15*
G04 #@! TO.C,U1*
X38685000Y-20742500D03*
X39885000Y-20742500D03*
X38685000Y-19967500D03*
X39885000Y-19967500D03*
D16*
X38310000Y-21730000D03*
X38960000Y-21730000D03*
X39610000Y-21730000D03*
X40260000Y-21730000D03*
X40260000Y-18980000D03*
X39610000Y-18980000D03*
X38960000Y-18980000D03*
X38310000Y-18980000D03*
G04 #@! TD*
D14*
G04 #@! TO.C,C2*
X55975000Y-52285000D03*
X55285000Y-52285000D03*
G04 #@! TD*
D17*
G04 #@! TO.C,D1*
X56180000Y-48945000D03*
X55480000Y-48945000D03*
G04 #@! TD*
G04 #@! TO.C,D1*
X15780000Y-19745000D03*
X15080000Y-19745000D03*
G04 #@! TD*
D18*
G04 #@! TO.C,U2*
X38137500Y-26560000D03*
X38137500Y-28560000D03*
X40137500Y-26560000D03*
X40137500Y-28560000D03*
D19*
X35700000Y-24960000D03*
X35700000Y-25360000D03*
X35700000Y-25760000D03*
X35700000Y-26160000D03*
X35700000Y-26560000D03*
X35700000Y-26960000D03*
X35700000Y-27360000D03*
X35700000Y-27760000D03*
X35700000Y-28160000D03*
X35700000Y-28560000D03*
X35700000Y-28960000D03*
X35700000Y-29360000D03*
X35700000Y-29760000D03*
X35700000Y-30160000D03*
D20*
X36537500Y-30997500D03*
X36937500Y-30997500D03*
X37337500Y-30997500D03*
X37737500Y-30997500D03*
X38137500Y-30997500D03*
X38537500Y-30997500D03*
X38937500Y-30997500D03*
X39337500Y-30997500D03*
X39737500Y-30997500D03*
X40137500Y-30997500D03*
X40537500Y-30997500D03*
X40937500Y-30997500D03*
X41337500Y-30997500D03*
X41737500Y-30997500D03*
D19*
X42575000Y-30160000D03*
X42575000Y-29760000D03*
X42575000Y-29360000D03*
X42575000Y-28960000D03*
X42575000Y-28560000D03*
X42575000Y-28160000D03*
X42575000Y-27760000D03*
X42575000Y-27360000D03*
X42575000Y-26960000D03*
X42575000Y-26560000D03*
X42575000Y-26160000D03*
X42575000Y-25760000D03*
X42575000Y-25360000D03*
X42575000Y-24960000D03*
D20*
X41737500Y-24122500D03*
X41337500Y-24122500D03*
X40937500Y-24122500D03*
X40537500Y-24122500D03*
X40137500Y-24122500D03*
X39737500Y-24122500D03*
X39337500Y-24122500D03*
X38937500Y-24122500D03*
X38537500Y-24122500D03*
X38137500Y-24122500D03*
X37737500Y-24122500D03*
X37337500Y-24122500D03*
X36937500Y-24122500D03*
X36537500Y-24122500D03*
G04 #@! TD*
D10*
G04 #@! TO.C,C11*
X23460000Y-58440000D03*
X24150000Y-58440000D03*
G04 #@! TD*
D21*
G04 #@! TO.C,C16*
X16830000Y-19715000D03*
X16830000Y-20675000D03*
G04 #@! TD*
D10*
G04 #@! TO.C,C10*
X63845000Y-59350000D03*
X64535000Y-59350000D03*
G04 #@! TD*
D22*
G04 #@! TO.C,C8*
X36480000Y-52285000D03*
X36480000Y-51595000D03*
G04 #@! TD*
D10*
G04 #@! TO.C,C15*
X62535000Y-18930000D03*
X63225000Y-18930000D03*
G04 #@! TD*
D22*
G04 #@! TO.C,C7*
X57380000Y-52280000D03*
X57380000Y-51590000D03*
G04 #@! TD*
D14*
G04 #@! TO.C,C9*
X60085000Y-52280000D03*
X59395000Y-52280000D03*
G04 #@! TD*
D11*
G04 #@! TO.C,R1*
X45190000Y-49770000D03*
X45190000Y-48750000D03*
G04 #@! TD*
D23*
G04 #@! TO.C,D6*
X65520000Y-28312500D03*
X65520000Y-29887500D03*
G04 #@! TD*
D18*
G04 #@! TO.C,U2*
X17937500Y-26560000D03*
X17937500Y-28560000D03*
X19937500Y-26560000D03*
X19937500Y-28560000D03*
D19*
X15500000Y-24960000D03*
X15500000Y-25360000D03*
X15500000Y-25760000D03*
X15500000Y-26160000D03*
X15500000Y-26560000D03*
X15500000Y-26960000D03*
X15500000Y-27360000D03*
X15500000Y-27760000D03*
X15500000Y-28160000D03*
X15500000Y-28560000D03*
X15500000Y-28960000D03*
X15500000Y-29360000D03*
X15500000Y-29760000D03*
X15500000Y-30160000D03*
D20*
X16337500Y-30997500D03*
X16737500Y-30997500D03*
X17137500Y-30997500D03*
X17537500Y-30997500D03*
X17937500Y-30997500D03*
X18337500Y-30997500D03*
X18737500Y-30997500D03*
X19137500Y-30997500D03*
X19537500Y-30997500D03*
X19937500Y-30997500D03*
X20337500Y-30997500D03*
X20737500Y-30997500D03*
X21137500Y-30997500D03*
X21537500Y-30997500D03*
D19*
X22375000Y-30160000D03*
X22375000Y-29760000D03*
X22375000Y-29360000D03*
X22375000Y-28960000D03*
X22375000Y-28560000D03*
X22375000Y-28160000D03*
X22375000Y-27760000D03*
X22375000Y-27360000D03*
X22375000Y-26960000D03*
X22375000Y-26560000D03*
X22375000Y-26160000D03*
X22375000Y-25760000D03*
X22375000Y-25360000D03*
X22375000Y-24960000D03*
D20*
X21537500Y-24122500D03*
X21137500Y-24122500D03*
X20737500Y-24122500D03*
X20337500Y-24122500D03*
X19937500Y-24122500D03*
X19537500Y-24122500D03*
X19137500Y-24122500D03*
X18737500Y-24122500D03*
X18337500Y-24122500D03*
X17937500Y-24122500D03*
X17537500Y-24122500D03*
X17137500Y-24122500D03*
X16737500Y-24122500D03*
X16337500Y-24122500D03*
G04 #@! TD*
D24*
G04 #@! TO.C,SW1*
X44950000Y-23700000D03*
X44950000Y-27100000D03*
G04 #@! TD*
D14*
G04 #@! TO.C,C9*
X60085000Y-23080000D03*
X59395000Y-23080000D03*
G04 #@! TD*
G04 #@! TO.C,C2*
X15575000Y-23085000D03*
X14885000Y-23085000D03*
G04 #@! TD*
D15*
G04 #@! TO.C,U1*
X18485000Y-49942500D03*
X19685000Y-49942500D03*
X18485000Y-49167500D03*
X19685000Y-49167500D03*
D16*
X18110000Y-50930000D03*
X18760000Y-50930000D03*
X19410000Y-50930000D03*
X20060000Y-50930000D03*
X20060000Y-48180000D03*
X19410000Y-48180000D03*
X18760000Y-48180000D03*
X18110000Y-48180000D03*
G04 #@! TD*
D24*
G04 #@! TO.C,SW1*
X65150000Y-52900000D03*
X65150000Y-56300000D03*
G04 #@! TD*
D25*
G04 #@! TO.C,C1*
X18220000Y-32045000D03*
X18220000Y-32735000D03*
G04 #@! TD*
D10*
G04 #@! TO.C,C10*
X43645000Y-30150000D03*
X44335000Y-30150000D03*
G04 #@! TD*
D14*
G04 #@! TO.C,C9*
X39885000Y-23080000D03*
X39195000Y-23080000D03*
G04 #@! TD*
G04 #@! TO.C,C2*
X35775000Y-23085000D03*
X35085000Y-23085000D03*
G04 #@! TD*
D18*
G04 #@! TO.C,U2*
X38137500Y-55760000D03*
X38137500Y-57760000D03*
X40137500Y-55760000D03*
X40137500Y-57760000D03*
D19*
X35700000Y-54160000D03*
X35700000Y-54560000D03*
X35700000Y-54960000D03*
X35700000Y-55360000D03*
X35700000Y-55760000D03*
X35700000Y-56160000D03*
X35700000Y-56560000D03*
X35700000Y-56960000D03*
X35700000Y-57360000D03*
X35700000Y-57760000D03*
X35700000Y-58160000D03*
X35700000Y-58560000D03*
X35700000Y-58960000D03*
X35700000Y-59360000D03*
D20*
X36537500Y-60197500D03*
X36937500Y-60197500D03*
X37337500Y-60197500D03*
X37737500Y-60197500D03*
X38137500Y-60197500D03*
X38537500Y-60197500D03*
X38937500Y-60197500D03*
X39337500Y-60197500D03*
X39737500Y-60197500D03*
X40137500Y-60197500D03*
X40537500Y-60197500D03*
X40937500Y-60197500D03*
X41337500Y-60197500D03*
X41737500Y-60197500D03*
D19*
X42575000Y-59360000D03*
X42575000Y-58960000D03*
X42575000Y-58560000D03*
X42575000Y-58160000D03*
X42575000Y-57760000D03*
X42575000Y-57360000D03*
X42575000Y-56960000D03*
X42575000Y-56560000D03*
X42575000Y-56160000D03*
X42575000Y-55760000D03*
X42575000Y-55360000D03*
X42575000Y-54960000D03*
X42575000Y-54560000D03*
X42575000Y-54160000D03*
D20*
X41737500Y-53322500D03*
X41337500Y-53322500D03*
X40937500Y-53322500D03*
X40537500Y-53322500D03*
X40137500Y-53322500D03*
X39737500Y-53322500D03*
X39337500Y-53322500D03*
X38937500Y-53322500D03*
X38537500Y-53322500D03*
X38137500Y-53322500D03*
X37737500Y-53322500D03*
X37337500Y-53322500D03*
X36937500Y-53322500D03*
X36537500Y-53322500D03*
G04 #@! TD*
D22*
G04 #@! TO.C,C8*
X56680000Y-52285000D03*
X56680000Y-51595000D03*
G04 #@! TD*
D10*
G04 #@! TO.C,C10*
X43645000Y-59350000D03*
X44335000Y-59350000D03*
G04 #@! TD*
D26*
G04 #@! TO.C,C18*
X24510000Y-22570000D03*
X24510000Y-21610000D03*
G04 #@! TD*
D10*
G04 #@! TO.C,C12*
X20395000Y-23080000D03*
X21085000Y-23080000D03*
G04 #@! TD*
G04 #@! TO.C,C12*
X20395000Y-52280000D03*
X21085000Y-52280000D03*
G04 #@! TD*
D11*
G04 #@! TO.C,R4*
X41510000Y-48980000D03*
X41510000Y-47960000D03*
G04 #@! TD*
D14*
G04 #@! TO.C,C2*
X55975000Y-23085000D03*
X55285000Y-23085000D03*
G04 #@! TD*
D25*
G04 #@! TO.C,C1*
X38420000Y-61245000D03*
X38420000Y-61935000D03*
G04 #@! TD*
D23*
G04 #@! TO.C,D6*
X45320000Y-28312500D03*
X45320000Y-29887500D03*
G04 #@! TD*
D26*
G04 #@! TO.C,C4*
X14990000Y-21605000D03*
X14990000Y-20645000D03*
G04 #@! TD*
D23*
G04 #@! TO.C,D6*
X25120000Y-57512500D03*
X25120000Y-59087500D03*
G04 #@! TD*
D15*
G04 #@! TO.C,U1*
X38685000Y-49942500D03*
X39885000Y-49942500D03*
X38685000Y-49167500D03*
X39885000Y-49167500D03*
D16*
X38310000Y-50930000D03*
X38960000Y-50930000D03*
X39610000Y-50930000D03*
X40260000Y-50930000D03*
X40260000Y-48180000D03*
X39610000Y-48180000D03*
X38960000Y-48180000D03*
X38310000Y-48180000D03*
G04 #@! TD*
D25*
G04 #@! TO.C,C6*
X62320000Y-61235000D03*
X62320000Y-61925000D03*
G04 #@! TD*
D10*
G04 #@! TO.C,C15*
X42335000Y-48130000D03*
X43025000Y-48130000D03*
G04 #@! TD*
D25*
G04 #@! TO.C,C6*
X42120000Y-61235000D03*
X42120000Y-61925000D03*
G04 #@! TD*
D11*
G04 #@! TO.C,R4*
X61710000Y-48980000D03*
X61710000Y-47960000D03*
G04 #@! TD*
D27*
G04 #@! TO.C,Y1*
X42390000Y-50100000D03*
X42390000Y-51500000D03*
X43490000Y-51500000D03*
X43490000Y-50100000D03*
G04 #@! TD*
D17*
G04 #@! TO.C,D1*
X35980000Y-48945000D03*
X35280000Y-48945000D03*
G04 #@! TD*
D28*
G04 #@! TO.C,R11*
X65670000Y-60020000D03*
X65670000Y-61040000D03*
G04 #@! TD*
D10*
G04 #@! TO.C,C15*
X22135000Y-48130000D03*
X22825000Y-48130000D03*
G04 #@! TD*
D12*
G04 #@! TO.C,U4*
X59720000Y-33106117D03*
D13*
X59520000Y-32906117D03*
D12*
X60220000Y-33106117D03*
X60720000Y-33106117D03*
X61220000Y-33106117D03*
D13*
X61420000Y-32906117D03*
X61420000Y-32306117D03*
D12*
X61220000Y-32106117D03*
X60720000Y-32106117D03*
X60220000Y-32106117D03*
D13*
X59520000Y-32306117D03*
D12*
X59720000Y-32106117D03*
G04 #@! TD*
D11*
G04 #@! TO.C,R1*
X24990000Y-49770000D03*
X24990000Y-48750000D03*
G04 #@! TD*
D25*
G04 #@! TO.C,C6*
X21920000Y-32035000D03*
X21920000Y-32725000D03*
G04 #@! TD*
D26*
G04 #@! TO.C,C4*
X14990000Y-50805000D03*
X14990000Y-49845000D03*
G04 #@! TD*
D24*
G04 #@! TO.C,SW1*
X44950000Y-52900000D03*
X44950000Y-56300000D03*
G04 #@! TD*
D22*
G04 #@! TO.C,C7*
X16980000Y-23080000D03*
X16980000Y-22390000D03*
G04 #@! TD*
D26*
G04 #@! TO.C,C4*
X35190000Y-21605000D03*
X35190000Y-20645000D03*
G04 #@! TD*
D28*
G04 #@! TO.C,R11*
X25270000Y-60020000D03*
X25270000Y-61040000D03*
G04 #@! TD*
D24*
G04 #@! TO.C,SW1*
X65150000Y-23700000D03*
X65150000Y-27100000D03*
G04 #@! TD*
D29*
G04 #@! TO.C,C19*
X42410000Y-48940000D03*
X43370000Y-48940000D03*
G04 #@! TD*
D22*
G04 #@! TO.C,C8*
X16280000Y-52285000D03*
X16280000Y-51595000D03*
G04 #@! TD*
D14*
G04 #@! TO.C,C3*
X15575000Y-22385000D03*
X14885000Y-22385000D03*
G04 #@! TD*
D21*
G04 #@! TO.C,C16*
X37030000Y-48915000D03*
X37030000Y-49875000D03*
G04 #@! TD*
D10*
G04 #@! TO.C,C12*
X60795000Y-52280000D03*
X61485000Y-52280000D03*
G04 #@! TD*
D14*
G04 #@! TO.C,C9*
X19685000Y-52280000D03*
X18995000Y-52280000D03*
G04 #@! TD*
D26*
G04 #@! TO.C,C18*
X44710000Y-51770000D03*
X44710000Y-50810000D03*
G04 #@! TD*
D10*
G04 #@! TO.C,C10*
X23445000Y-30150000D03*
X24135000Y-30150000D03*
G04 #@! TD*
G04 #@! TO.C,C10*
X23445000Y-59350000D03*
X24135000Y-59350000D03*
G04 #@! TD*
D22*
G04 #@! TO.C,C8*
X16280000Y-23085000D03*
X16280000Y-22395000D03*
G04 #@! TD*
D14*
G04 #@! TO.C,C3*
X55975000Y-22385000D03*
X55285000Y-22385000D03*
G04 #@! TD*
D15*
G04 #@! TO.C,U1*
X58885000Y-20742500D03*
X60085000Y-20742500D03*
X58885000Y-19967500D03*
X60085000Y-19967500D03*
D16*
X58510000Y-21730000D03*
X59160000Y-21730000D03*
X59810000Y-21730000D03*
X60460000Y-21730000D03*
X60460000Y-18980000D03*
X59810000Y-18980000D03*
X59160000Y-18980000D03*
X58510000Y-18980000D03*
G04 #@! TD*
D23*
G04 #@! TO.C,D6*
X25120000Y-28312500D03*
X25120000Y-29887500D03*
G04 #@! TD*
D14*
G04 #@! TO.C,C9*
X39885000Y-52280000D03*
X39195000Y-52280000D03*
G04 #@! TD*
D22*
G04 #@! TO.C,C8*
X56680000Y-23085000D03*
X56680000Y-22395000D03*
G04 #@! TD*
G04 #@! TO.C,C7*
X57380000Y-23080000D03*
X57380000Y-22390000D03*
G04 #@! TD*
G04 #@! TO.C,C8*
X36480000Y-23085000D03*
X36480000Y-22395000D03*
G04 #@! TD*
D10*
G04 #@! TO.C,C11*
X23460000Y-29240000D03*
X24150000Y-29240000D03*
G04 #@! TD*
G04 #@! TO.C,C15*
X42335000Y-18930000D03*
X43025000Y-18930000D03*
G04 #@! TD*
D25*
G04 #@! TO.C,C1*
X58620000Y-32045000D03*
X58620000Y-32735000D03*
G04 #@! TD*
D21*
G04 #@! TO.C,C16*
X16830000Y-48915000D03*
X16830000Y-49875000D03*
G04 #@! TD*
D26*
G04 #@! TO.C,C17*
X56310000Y-50805000D03*
X56310000Y-49845000D03*
G04 #@! TD*
D22*
G04 #@! TO.C,C7*
X16980000Y-52280000D03*
X16980000Y-51590000D03*
G04 #@! TD*
D25*
G04 #@! TO.C,C1*
X38420000Y-32045000D03*
X38420000Y-32735000D03*
G04 #@! TD*
D14*
G04 #@! TO.C,C2*
X15575000Y-52285000D03*
X14885000Y-52285000D03*
G04 #@! TD*
D21*
G04 #@! TO.C,C16*
X57230000Y-19715000D03*
X57230000Y-20675000D03*
G04 #@! TD*
D27*
G04 #@! TO.C,Y1*
X42390000Y-20900000D03*
X42390000Y-22300000D03*
X43490000Y-22300000D03*
X43490000Y-20900000D03*
G04 #@! TD*
D28*
G04 #@! TO.C,R11*
X45470000Y-60020000D03*
X45470000Y-61040000D03*
G04 #@! TD*
D21*
G04 #@! TO.C,C16*
X57230000Y-48915000D03*
X57230000Y-49875000D03*
G04 #@! TD*
D26*
G04 #@! TO.C,C18*
X64910000Y-51770000D03*
X64910000Y-50810000D03*
G04 #@! TD*
D12*
G04 #@! TO.C,U4*
X39520000Y-33106117D03*
D13*
X39320000Y-32906117D03*
D12*
X40020000Y-33106117D03*
X40520000Y-33106117D03*
X41020000Y-33106117D03*
D13*
X41220000Y-32906117D03*
X41220000Y-32306117D03*
D12*
X41020000Y-32106117D03*
X40520000Y-32106117D03*
X40020000Y-32106117D03*
D13*
X39320000Y-32306117D03*
D12*
X39520000Y-32106117D03*
G04 #@! TD*
D22*
G04 #@! TO.C,C7*
X37180000Y-52280000D03*
X37180000Y-51590000D03*
G04 #@! TD*
D14*
G04 #@! TO.C,C3*
X35775000Y-22385000D03*
X35085000Y-22385000D03*
G04 #@! TD*
D18*
G04 #@! TO.C,U2*
X58337500Y-26560000D03*
X58337500Y-28560000D03*
X60337500Y-26560000D03*
X60337500Y-28560000D03*
D19*
X55900000Y-24960000D03*
X55900000Y-25360000D03*
X55900000Y-25760000D03*
X55900000Y-26160000D03*
X55900000Y-26560000D03*
X55900000Y-26960000D03*
X55900000Y-27360000D03*
X55900000Y-27760000D03*
X55900000Y-28160000D03*
X55900000Y-28560000D03*
X55900000Y-28960000D03*
X55900000Y-29360000D03*
X55900000Y-29760000D03*
X55900000Y-30160000D03*
D20*
X56737500Y-30997500D03*
X57137500Y-30997500D03*
X57537500Y-30997500D03*
X57937500Y-30997500D03*
X58337500Y-30997500D03*
X58737500Y-30997500D03*
X59137500Y-30997500D03*
X59537500Y-30997500D03*
X59937500Y-30997500D03*
X60337500Y-30997500D03*
X60737500Y-30997500D03*
X61137500Y-30997500D03*
X61537500Y-30997500D03*
X61937500Y-30997500D03*
D19*
X62775000Y-30160000D03*
X62775000Y-29760000D03*
X62775000Y-29360000D03*
X62775000Y-28960000D03*
X62775000Y-28560000D03*
X62775000Y-28160000D03*
X62775000Y-27760000D03*
X62775000Y-27360000D03*
X62775000Y-26960000D03*
X62775000Y-26560000D03*
X62775000Y-26160000D03*
X62775000Y-25760000D03*
X62775000Y-25360000D03*
X62775000Y-24960000D03*
D20*
X61937500Y-24122500D03*
X61537500Y-24122500D03*
X61137500Y-24122500D03*
X60737500Y-24122500D03*
X60337500Y-24122500D03*
X59937500Y-24122500D03*
X59537500Y-24122500D03*
X59137500Y-24122500D03*
X58737500Y-24122500D03*
X58337500Y-24122500D03*
X57937500Y-24122500D03*
X57537500Y-24122500D03*
X57137500Y-24122500D03*
X56737500Y-24122500D03*
G04 #@! TD*
D26*
G04 #@! TO.C,C18*
X24510000Y-51770000D03*
X24510000Y-50810000D03*
G04 #@! TD*
D23*
G04 #@! TO.C,D6*
X65520000Y-57512500D03*
X65520000Y-59087500D03*
G04 #@! TD*
D25*
G04 #@! TO.C,C1*
X18220000Y-61245000D03*
X18220000Y-61935000D03*
G04 #@! TD*
D29*
G04 #@! TO.C,C19*
X22210000Y-19740000D03*
X23170000Y-19740000D03*
G04 #@! TD*
D17*
G04 #@! TO.C,D1*
X15780000Y-48945000D03*
X15080000Y-48945000D03*
G04 #@! TD*
D14*
G04 #@! TO.C,C3*
X55975000Y-51585000D03*
X55285000Y-51585000D03*
G04 #@! TD*
D17*
G04 #@! TO.C,D1*
X56180000Y-19745000D03*
X55480000Y-19745000D03*
G04 #@! TD*
D28*
G04 #@! TO.C,R11*
X25270000Y-30820000D03*
X25270000Y-31840000D03*
G04 #@! TD*
D12*
G04 #@! TO.C,U4*
X19320000Y-62306117D03*
D13*
X19120000Y-62106117D03*
D12*
X19820000Y-62306117D03*
X20320000Y-62306117D03*
X20820000Y-62306117D03*
D13*
X21020000Y-62106117D03*
X21020000Y-61506117D03*
D12*
X20820000Y-61306117D03*
X20320000Y-61306117D03*
X19820000Y-61306117D03*
D13*
X19120000Y-61506117D03*
D12*
X19320000Y-61306117D03*
G04 #@! TD*
D11*
G04 #@! TO.C,R1*
X65390000Y-20570000D03*
X65390000Y-19550000D03*
G04 #@! TD*
D25*
G04 #@! TO.C,C1*
X58620000Y-61245000D03*
X58620000Y-61935000D03*
G04 #@! TD*
D26*
G04 #@! TO.C,C4*
X55390000Y-21605000D03*
X55390000Y-20645000D03*
G04 #@! TD*
D11*
G04 #@! TO.C,R4*
X61710000Y-19780000D03*
X61710000Y-18760000D03*
G04 #@! TD*
G04 #@! TO.C,R1*
X65390000Y-49770000D03*
X65390000Y-48750000D03*
G04 #@! TD*
D26*
G04 #@! TO.C,C18*
X44710000Y-22570000D03*
X44710000Y-21610000D03*
G04 #@! TD*
G04 #@! TO.C,C17*
X36110000Y-50805000D03*
X36110000Y-49845000D03*
G04 #@! TD*
D23*
G04 #@! TO.C,D6*
X45320000Y-57512500D03*
X45320000Y-59087500D03*
G04 #@! TD*
D18*
G04 #@! TO.C,U2*
X17937500Y-55760000D03*
X17937500Y-57760000D03*
X19937500Y-55760000D03*
X19937500Y-57760000D03*
D19*
X15500000Y-54160000D03*
X15500000Y-54560000D03*
X15500000Y-54960000D03*
X15500000Y-55360000D03*
X15500000Y-55760000D03*
X15500000Y-56160000D03*
X15500000Y-56560000D03*
X15500000Y-56960000D03*
X15500000Y-57360000D03*
X15500000Y-57760000D03*
X15500000Y-58160000D03*
X15500000Y-58560000D03*
X15500000Y-58960000D03*
X15500000Y-59360000D03*
D20*
X16337500Y-60197500D03*
X16737500Y-60197500D03*
X17137500Y-60197500D03*
X17537500Y-60197500D03*
X17937500Y-60197500D03*
X18337500Y-60197500D03*
X18737500Y-60197500D03*
X19137500Y-60197500D03*
X19537500Y-60197500D03*
X19937500Y-60197500D03*
X20337500Y-60197500D03*
X20737500Y-60197500D03*
X21137500Y-60197500D03*
X21537500Y-60197500D03*
D19*
X22375000Y-59360000D03*
X22375000Y-58960000D03*
X22375000Y-58560000D03*
X22375000Y-58160000D03*
X22375000Y-57760000D03*
X22375000Y-57360000D03*
X22375000Y-56960000D03*
X22375000Y-56560000D03*
X22375000Y-56160000D03*
X22375000Y-55760000D03*
X22375000Y-55360000D03*
X22375000Y-54960000D03*
X22375000Y-54560000D03*
X22375000Y-54160000D03*
D20*
X21537500Y-53322500D03*
X21137500Y-53322500D03*
X20737500Y-53322500D03*
X20337500Y-53322500D03*
X19937500Y-53322500D03*
X19537500Y-53322500D03*
X19137500Y-53322500D03*
X18737500Y-53322500D03*
X18337500Y-53322500D03*
X17937500Y-53322500D03*
X17537500Y-53322500D03*
X17137500Y-53322500D03*
X16737500Y-53322500D03*
X16337500Y-53322500D03*
G04 #@! TD*
D27*
G04 #@! TO.C,Y1*
X62590000Y-20900000D03*
X62590000Y-22300000D03*
X63690000Y-22300000D03*
X63690000Y-20900000D03*
G04 #@! TD*
D24*
G04 #@! TO.C,SW1*
X24750000Y-23700000D03*
X24750000Y-27100000D03*
G04 #@! TD*
D28*
G04 #@! TO.C,R11*
X45470000Y-30820000D03*
X45470000Y-31840000D03*
G04 #@! TD*
D27*
G04 #@! TO.C,Y1*
X22190000Y-50100000D03*
X22190000Y-51500000D03*
X23290000Y-51500000D03*
X23290000Y-50100000D03*
G04 #@! TD*
D15*
G04 #@! TO.C,U1*
X18485000Y-20742500D03*
X19685000Y-20742500D03*
X18485000Y-19967500D03*
X19685000Y-19967500D03*
D16*
X18110000Y-21730000D03*
X18760000Y-21730000D03*
X19410000Y-21730000D03*
X20060000Y-21730000D03*
X20060000Y-18980000D03*
X19410000Y-18980000D03*
X18760000Y-18980000D03*
X18110000Y-18980000D03*
G04 #@! TD*
D26*
G04 #@! TO.C,C17*
X15910000Y-50805000D03*
X15910000Y-49845000D03*
G04 #@! TD*
D12*
G04 #@! TO.C,U4*
X39520000Y-62306117D03*
D13*
X39320000Y-62106117D03*
D12*
X40020000Y-62306117D03*
X40520000Y-62306117D03*
X41020000Y-62306117D03*
D13*
X41220000Y-62106117D03*
X41220000Y-61506117D03*
D12*
X41020000Y-61306117D03*
X40520000Y-61306117D03*
X40020000Y-61306117D03*
D13*
X39320000Y-61506117D03*
D12*
X39520000Y-61306117D03*
G04 #@! TD*
D27*
G04 #@! TO.C,Y1*
X22190000Y-20900000D03*
X22190000Y-22300000D03*
X23290000Y-22300000D03*
X23290000Y-20900000D03*
G04 #@! TD*
D29*
G04 #@! TO.C,C19*
X42410000Y-19740000D03*
X43370000Y-19740000D03*
G04 #@! TD*
D12*
G04 #@! TO.C,U4*
X59720000Y-62306117D03*
D13*
X59520000Y-62106117D03*
D12*
X60220000Y-62306117D03*
X60720000Y-62306117D03*
X61220000Y-62306117D03*
D13*
X61420000Y-62106117D03*
X61420000Y-61506117D03*
D12*
X61220000Y-61306117D03*
X60720000Y-61306117D03*
X60220000Y-61306117D03*
D13*
X59520000Y-61506117D03*
D12*
X59720000Y-61306117D03*
G04 #@! TD*
D27*
G04 #@! TO.C,Y1*
X62590000Y-50100000D03*
X62590000Y-51500000D03*
X63690000Y-51500000D03*
X63690000Y-50100000D03*
G04 #@! TD*
D14*
G04 #@! TO.C,C3*
X15575000Y-51585000D03*
X14885000Y-51585000D03*
G04 #@! TD*
D28*
G04 #@! TO.C,R11*
X65670000Y-30820000D03*
X65670000Y-31840000D03*
G04 #@! TD*
D10*
G04 #@! TO.C,C11*
X63860000Y-58440000D03*
X64550000Y-58440000D03*
G04 #@! TD*
D26*
G04 #@! TO.C,C17*
X56310000Y-21605000D03*
X56310000Y-20645000D03*
G04 #@! TD*
D29*
G04 #@! TO.C,C19*
X22210000Y-48940000D03*
X23170000Y-48940000D03*
G04 #@! TD*
D10*
G04 #@! TO.C,C11*
X43660000Y-29240000D03*
X44350000Y-29240000D03*
G04 #@! TD*
D17*
G04 #@! TO.C,D1*
X35980000Y-19745000D03*
X35280000Y-19745000D03*
G04 #@! TD*
D10*
G04 #@! TO.C,C15*
X62535000Y-48130000D03*
X63225000Y-48130000D03*
G04 #@! TD*
G04 #@! TO.C,C15*
X22135000Y-18930000D03*
X22825000Y-18930000D03*
G04 #@! TD*
D21*
G04 #@! TO.C,C16*
X37030000Y-19715000D03*
X37030000Y-20675000D03*
G04 #@! TD*
D18*
G04 #@! TO.C,U2*
X58337500Y-55760000D03*
X58337500Y-57760000D03*
X60337500Y-55760000D03*
X60337500Y-57760000D03*
D19*
X55900000Y-54160000D03*
X55900000Y-54560000D03*
X55900000Y-54960000D03*
X55900000Y-55360000D03*
X55900000Y-55760000D03*
X55900000Y-56160000D03*
X55900000Y-56560000D03*
X55900000Y-56960000D03*
X55900000Y-57360000D03*
X55900000Y-57760000D03*
X55900000Y-58160000D03*
X55900000Y-58560000D03*
X55900000Y-58960000D03*
X55900000Y-59360000D03*
D20*
X56737500Y-60197500D03*
X57137500Y-60197500D03*
X57537500Y-60197500D03*
X57937500Y-60197500D03*
X58337500Y-60197500D03*
X58737500Y-60197500D03*
X59137500Y-60197500D03*
X59537500Y-60197500D03*
X59937500Y-60197500D03*
X60337500Y-60197500D03*
X60737500Y-60197500D03*
X61137500Y-60197500D03*
X61537500Y-60197500D03*
X61937500Y-60197500D03*
D19*
X62775000Y-59360000D03*
X62775000Y-58960000D03*
X62775000Y-58560000D03*
X62775000Y-58160000D03*
X62775000Y-57760000D03*
X62775000Y-57360000D03*
X62775000Y-56960000D03*
X62775000Y-56560000D03*
X62775000Y-56160000D03*
X62775000Y-55760000D03*
X62775000Y-55360000D03*
X62775000Y-54960000D03*
X62775000Y-54560000D03*
X62775000Y-54160000D03*
D20*
X61937500Y-53322500D03*
X61537500Y-53322500D03*
X61137500Y-53322500D03*
X60737500Y-53322500D03*
X60337500Y-53322500D03*
X59937500Y-53322500D03*
X59537500Y-53322500D03*
X59137500Y-53322500D03*
X58737500Y-53322500D03*
X58337500Y-53322500D03*
X57937500Y-53322500D03*
X57537500Y-53322500D03*
X57137500Y-53322500D03*
X56737500Y-53322500D03*
G04 #@! TD*
D10*
G04 #@! TO.C,C10*
X63845000Y-30150000D03*
X64535000Y-30150000D03*
G04 #@! TD*
G04 #@! TO.C,C12*
X60795000Y-23080000D03*
X61485000Y-23080000D03*
G04 #@! TD*
D25*
G04 #@! TO.C,C6*
X62320000Y-32035000D03*
X62320000Y-32725000D03*
G04 #@! TD*
D26*
G04 #@! TO.C,C18*
X64910000Y-22570000D03*
X64910000Y-21610000D03*
G04 #@! TD*
D11*
G04 #@! TO.C,R1*
X45190000Y-20570000D03*
X45190000Y-19550000D03*
G04 #@! TD*
D25*
G04 #@! TO.C,C6*
X42120000Y-32035000D03*
X42120000Y-32725000D03*
G04 #@! TD*
D14*
G04 #@! TO.C,C3*
X35775000Y-51585000D03*
X35085000Y-51585000D03*
G04 #@! TD*
D22*
G04 #@! TO.C,C7*
X37180000Y-23080000D03*
X37180000Y-22390000D03*
G04 #@! TD*
D24*
G04 #@! TO.C,SW1*
X24750000Y-52900000D03*
X24750000Y-56300000D03*
G04 #@! TD*
D29*
G04 #@! TO.C,C19*
X62610000Y-19740000D03*
X63570000Y-19740000D03*
G04 #@! TD*
D11*
G04 #@! TO.C,R4*
X21310000Y-19780000D03*
X21310000Y-18760000D03*
G04 #@! TD*
D25*
G04 #@! TO.C,C6*
X21920000Y-61235000D03*
X21920000Y-61925000D03*
G04 #@! TD*
D26*
G04 #@! TO.C,C4*
X35190000Y-50805000D03*
X35190000Y-49845000D03*
G04 #@! TD*
D14*
G04 #@! TO.C,C2*
X35775000Y-52285000D03*
X35085000Y-52285000D03*
G04 #@! TD*
D26*
G04 #@! TO.C,C17*
X36110000Y-21605000D03*
X36110000Y-20645000D03*
G04 #@! TD*
D10*
G04 #@! TO.C,C12*
X40595000Y-52280000D03*
X41285000Y-52280000D03*
G04 #@! TD*
D26*
G04 #@! TO.C,C4*
X55390000Y-50805000D03*
X55390000Y-49845000D03*
G04 #@! TD*
D10*
G04 #@! TO.C,C12*
X40595000Y-23080000D03*
X41285000Y-23080000D03*
G04 #@! TD*
D11*
G04 #@! TO.C,R4*
X41510000Y-19780000D03*
X41510000Y-18760000D03*
G04 #@! TD*
G04 #@! TO.C,R1*
X24990000Y-20570000D03*
X24990000Y-19550000D03*
G04 #@! TD*
D15*
G04 #@! TO.C,U1*
X58885000Y-49942500D03*
X60085000Y-49942500D03*
X58885000Y-49167500D03*
X60085000Y-49167500D03*
D16*
X58510000Y-50930000D03*
X59160000Y-50930000D03*
X59810000Y-50930000D03*
X60460000Y-50930000D03*
X60460000Y-48180000D03*
X59810000Y-48180000D03*
X59160000Y-48180000D03*
X58510000Y-48180000D03*
G04 #@! TD*
D26*
G04 #@! TO.C,C17*
X15910000Y-21605000D03*
X15910000Y-20645000D03*
G04 #@! TD*
D29*
G04 #@! TO.C,C19*
X62610000Y-48940000D03*
X63570000Y-48940000D03*
G04 #@! TD*
M02*
