G04 #@! TF.GenerationSoftware,KiCad,Pcbnew,9.0.0-9.0.0-2~ubuntu24.04.1*
G04 #@! TF.CreationDate,2025-03-16T16:10:10-04:00*
G04 #@! TF.ProjectId,panel9,70616e65-6c39-42e6-9b69-6361645f7063,rev?*
G04 #@! TF.SameCoordinates,Original*
G04 #@! TF.FileFunction,Legend,Top*
G04 #@! TF.FilePolarity,Positive*
%FSLAX46Y46*%
G04 Gerber Fmt 4.6, Leading zero omitted, Abs format (unit mm)*
G04 Created by KiCad (PCBNEW 9.0.0-9.0.0-2~ubuntu24.04.1) date 2025-03-16 16:10:10*
%MOMM*%
%LPD*%
G01*
G04 APERTURE LIST*
G04 Aperture macros list*
%AMRoundRect*
0 Rectangle with rounded corners*
0 $1 Rounding radius*
0 $2 $3 $4 $5 $6 $7 $8 $9 X,Y pos of 4 corners*
0 Add a 4 corners polygon primitive as box body*
4,1,4,$2,$3,$4,$5,$6,$7,$8,$9,$2,$3,0*
0 Add four circle primitives for the rounded corners*
1,1,$1+$1,$2,$3*
1,1,$1+$1,$4,$5*
1,1,$1+$1,$6,$7*
1,1,$1+$1,$8,$9*
0 Add four rect primitives between the rounded corners*
20,1,$1+$1,$2,$3,$4,$5,0*
20,1,$1+$1,$4,$5,$6,$7,0*
20,1,$1+$1,$6,$7,$8,$9,0*
20,1,$1+$1,$8,$9,$2,$3,0*%
G04 Aperture macros list end*
%ADD10C,0.500000*%
%ADD11C,0.120000*%
%ADD12C,0.100000*%
%ADD13C,0.000000*%
%ADD14RoundRect,0.100000X-0.130000X-0.100000X0.130000X-0.100000X0.130000X0.100000X-0.130000X0.100000X0*%
%ADD15RoundRect,0.135000X0.185000X-0.135000X0.185000X0.135000X-0.185000X0.135000X-0.185000X-0.135000X0*%
%ADD16R,0.200000X0.600000*%
%ADD17R,0.200000X0.200000*%
%ADD18RoundRect,0.100000X0.130000X0.100000X-0.130000X0.100000X-0.130000X-0.100000X0.130000X-0.100000X0*%
%ADD19C,0.600000*%
%ADD20R,0.350000X0.650000*%
%ADD21R,2.350000X1.600000*%
%ADD22R,0.300000X0.500000*%
%ADD23RoundRect,0.050000X-0.387500X-0.050000X0.387500X-0.050000X0.387500X0.050000X-0.387500X0.050000X0*%
%ADD24RoundRect,0.050000X-0.050000X-0.387500X0.050000X-0.387500X0.050000X0.387500X-0.050000X0.387500X0*%
%ADD25R,4.000000X4.000000*%
%ADD26RoundRect,0.140000X-0.170000X0.140000X-0.170000X-0.140000X0.170000X-0.140000X0.170000X0.140000X0*%
%ADD27RoundRect,0.100000X0.100000X-0.130000X0.100000X0.130000X-0.100000X0.130000X-0.100000X-0.130000X0*%
%ADD28C,2.000000*%
%ADD29RoundRect,0.218750X-0.256250X0.218750X-0.256250X-0.218750X0.256250X-0.218750X0.256250X0.218750X0*%
%ADD30R,1.700000X0.900000*%
%ADD31RoundRect,0.100000X-0.100000X0.130000X-0.100000X-0.130000X0.100000X-0.130000X0.100000X0.130000X0*%
%ADD32R,0.600000X0.600000*%
%ADD33O,0.600000X0.600000*%
%ADD34R,1.350000X1.350000*%
%ADD35O,1.350000X1.350000*%
%ADD36RoundRect,0.140000X0.170000X-0.140000X0.170000X0.140000X-0.170000X0.140000X-0.170000X-0.140000X0*%
%ADD37C,3.000000*%
%ADD38R,0.800000X0.900000*%
%ADD39RoundRect,0.135000X-0.185000X0.135000X-0.185000X-0.135000X0.185000X-0.135000X0.185000X0.135000X0*%
%ADD40RoundRect,0.140000X-0.140000X-0.170000X0.140000X-0.170000X0.140000X0.170000X-0.140000X0.170000X0*%
%ADD41C,2.374900*%
%ADD42C,0.990600*%
%ADD43C,0.787400*%
G04 APERTURE END LIST*
D10*
X39393142Y-9614661D02*
X39393142Y-7900375D01*
X39393142Y-8757518D02*
X42393142Y-8757518D01*
X42393142Y-8757518D02*
X41964571Y-8471804D01*
X41964571Y-8471804D02*
X41678857Y-8186089D01*
X41678857Y-8186089D02*
X41536000Y-7900375D01*
X41393142Y-71328947D02*
X39393142Y-71328947D01*
X42536000Y-70614661D02*
X40393142Y-69900375D01*
X40393142Y-69900375D02*
X40393142Y-71757518D01*
X62107428Y-7900375D02*
X62250285Y-8043232D01*
X62250285Y-8043232D02*
X62393142Y-8328947D01*
X62393142Y-8328947D02*
X62393142Y-9043232D01*
X62393142Y-9043232D02*
X62250285Y-9328947D01*
X62250285Y-9328947D02*
X62107428Y-9471804D01*
X62107428Y-9471804D02*
X61821714Y-9614661D01*
X61821714Y-9614661D02*
X61536000Y-9614661D01*
X61536000Y-9614661D02*
X61107428Y-9471804D01*
X61107428Y-9471804D02*
X59393142Y-7757518D01*
X59393142Y-7757518D02*
X59393142Y-9614661D01*
X22713142Y-69757518D02*
X22713142Y-71614661D01*
X22713142Y-71614661D02*
X21570285Y-70614661D01*
X21570285Y-70614661D02*
X21570285Y-71043232D01*
X21570285Y-71043232D02*
X21427428Y-71328947D01*
X21427428Y-71328947D02*
X21284571Y-71471804D01*
X21284571Y-71471804D02*
X20998857Y-71614661D01*
X20998857Y-71614661D02*
X20284571Y-71614661D01*
X20284571Y-71614661D02*
X19998857Y-71471804D01*
X19998857Y-71471804D02*
X19856000Y-71328947D01*
X19856000Y-71328947D02*
X19713142Y-71043232D01*
X19713142Y-71043232D02*
X19713142Y-70186089D01*
X19713142Y-70186089D02*
X19856000Y-69900375D01*
X19856000Y-69900375D02*
X19998857Y-69757518D01*
X62393142Y-71471804D02*
X62393142Y-70043232D01*
X62393142Y-70043232D02*
X60964571Y-69900375D01*
X60964571Y-69900375D02*
X61107428Y-70043232D01*
X61107428Y-70043232D02*
X61250285Y-70328947D01*
X61250285Y-70328947D02*
X61250285Y-71043232D01*
X61250285Y-71043232D02*
X61107428Y-71328947D01*
X61107428Y-71328947D02*
X60964571Y-71471804D01*
X60964571Y-71471804D02*
X60678857Y-71614661D01*
X60678857Y-71614661D02*
X59964571Y-71614661D01*
X59964571Y-71614661D02*
X59678857Y-71471804D01*
X59678857Y-71471804D02*
X59536000Y-71328947D01*
X59536000Y-71328947D02*
X59393142Y-71043232D01*
X59393142Y-71043232D02*
X59393142Y-70328947D01*
X59393142Y-70328947D02*
X59536000Y-70043232D01*
X59536000Y-70043232D02*
X59678857Y-69900375D01*
X22393142Y-8614661D02*
X22393142Y-8900375D01*
X22393142Y-8900375D02*
X22250285Y-9186089D01*
X22250285Y-9186089D02*
X22107428Y-9328947D01*
X22107428Y-9328947D02*
X21821714Y-9471804D01*
X21821714Y-9471804D02*
X21250285Y-9614661D01*
X21250285Y-9614661D02*
X20536000Y-9614661D01*
X20536000Y-9614661D02*
X19964571Y-9471804D01*
X19964571Y-9471804D02*
X19678857Y-9328947D01*
X19678857Y-9328947D02*
X19536000Y-9186089D01*
X19536000Y-9186089D02*
X19393142Y-8900375D01*
X19393142Y-8900375D02*
X19393142Y-8614661D01*
X19393142Y-8614661D02*
X19536000Y-8328947D01*
X19536000Y-8328947D02*
X19678857Y-8186089D01*
X19678857Y-8186089D02*
X19964571Y-8043232D01*
X19964571Y-8043232D02*
X20536000Y-7900375D01*
X20536000Y-7900375D02*
X21250285Y-7900375D01*
X21250285Y-7900375D02*
X21821714Y-8043232D01*
X21821714Y-8043232D02*
X22107428Y-8186089D01*
X22107428Y-8186089D02*
X22250285Y-8328947D01*
X22250285Y-8328947D02*
X22393142Y-8614661D01*
D11*
G04 #@! TO.C,R4*
X20930000Y-48623641D02*
X20930000Y-48316359D01*
X21690000Y-48623641D02*
X21690000Y-48316359D01*
G04 #@! TO.C,U4*
X18670000Y-32156117D02*
X18670000Y-32806117D01*
X21470000Y-32156117D02*
X21470000Y-33056117D01*
D12*
X19370000Y-33581117D02*
G75*
G02*
X19270000Y-33581117I-50000J0D01*
G01*
X19270000Y-33581117D02*
G75*
G02*
X19370000Y-33581117I50000J0D01*
G01*
D11*
G04 #@! TO.C,U1*
X40845000Y-18795000D02*
X40695000Y-18795000D01*
X40845000Y-21915000D02*
X40695000Y-21915000D01*
X40845000Y-21915000D02*
X40845000Y-18795000D01*
D12*
X38360000Y-22405000D02*
G75*
G02*
X38260000Y-22405000I-50000J0D01*
G01*
X38260000Y-22405000D02*
G75*
G02*
X38360000Y-22405000I50000J0D01*
G01*
G04 #@! TO.C,D1*
X56680000Y-48945000D02*
G75*
G02*
X56580000Y-48945000I-50000J0D01*
G01*
X56580000Y-48945000D02*
G75*
G02*
X56680000Y-48945000I50000J0D01*
G01*
X16280000Y-19745000D02*
G75*
G02*
X16180000Y-19745000I-50000J0D01*
G01*
X16180000Y-19745000D02*
G75*
G02*
X16280000Y-19745000I50000J0D01*
G01*
D11*
G04 #@! TO.C,U2*
X35527500Y-31170000D02*
X35527500Y-30520000D01*
X36177500Y-23950000D02*
X35527500Y-23950000D01*
X36177500Y-31170000D02*
X35527500Y-31170000D01*
X42097500Y-23950000D02*
X42747500Y-23950000D01*
X42097500Y-31170000D02*
X42747500Y-31170000D01*
X42747500Y-23950000D02*
X42747500Y-24600000D01*
X42747500Y-31170000D02*
X42747500Y-30520000D01*
D12*
X35137500Y-24960000D02*
G75*
G02*
X35037500Y-24960000I-50000J0D01*
G01*
X35037500Y-24960000D02*
G75*
G02*
X35137500Y-24960000I50000J0D01*
G01*
D11*
G04 #@! TO.C,C16*
X16470000Y-20087164D02*
X16470000Y-20302836D01*
X17190000Y-20087164D02*
X17190000Y-20302836D01*
G04 #@! TO.C,R1*
X44810000Y-49413641D02*
X44810000Y-49106359D01*
X45570000Y-49413641D02*
X45570000Y-49106359D01*
D12*
G04 #@! TO.C,D6*
X64770000Y-28312500D02*
G75*
G02*
X64670000Y-28312500I-50000J0D01*
G01*
X64670000Y-28312500D02*
G75*
G02*
X64770000Y-28312500I50000J0D01*
G01*
D11*
G04 #@! TO.C,U2*
X15327500Y-31170000D02*
X15327500Y-30520000D01*
X15977500Y-23950000D02*
X15327500Y-23950000D01*
X15977500Y-31170000D02*
X15327500Y-31170000D01*
X21897500Y-23950000D02*
X22547500Y-23950000D01*
X21897500Y-31170000D02*
X22547500Y-31170000D01*
X22547500Y-23950000D02*
X22547500Y-24600000D01*
X22547500Y-31170000D02*
X22547500Y-30520000D01*
D12*
X14937500Y-24960000D02*
G75*
G02*
X14837500Y-24960000I-50000J0D01*
G01*
X14837500Y-24960000D02*
G75*
G02*
X14937500Y-24960000I50000J0D01*
G01*
D11*
G04 #@! TO.C,SW1*
X43550000Y-23750000D02*
X43550000Y-27050000D01*
X43550000Y-27050000D02*
X43850000Y-27050000D01*
X43850000Y-23750000D02*
X43550000Y-23750000D01*
G04 #@! TO.C,U1*
X20645000Y-47995000D02*
X20495000Y-47995000D01*
X20645000Y-51115000D02*
X20495000Y-51115000D01*
X20645000Y-51115000D02*
X20645000Y-47995000D01*
D12*
X18160000Y-51605000D02*
G75*
G02*
X18060000Y-51605000I-50000J0D01*
G01*
X18060000Y-51605000D02*
G75*
G02*
X18160000Y-51605000I50000J0D01*
G01*
D11*
G04 #@! TO.C,SW1*
X63750000Y-52950000D02*
X63750000Y-56250000D01*
X63750000Y-56250000D02*
X64050000Y-56250000D01*
X64050000Y-52950000D02*
X63750000Y-52950000D01*
G04 #@! TO.C,U2*
X35527500Y-60370000D02*
X35527500Y-59720000D01*
X36177500Y-53150000D02*
X35527500Y-53150000D01*
X36177500Y-60370000D02*
X35527500Y-60370000D01*
X42097500Y-53150000D02*
X42747500Y-53150000D01*
X42097500Y-60370000D02*
X42747500Y-60370000D01*
X42747500Y-53150000D02*
X42747500Y-53800000D01*
X42747500Y-60370000D02*
X42747500Y-59720000D01*
D12*
X35137500Y-54160000D02*
G75*
G02*
X35037500Y-54160000I-50000J0D01*
G01*
X35037500Y-54160000D02*
G75*
G02*
X35137500Y-54160000I50000J0D01*
G01*
D11*
G04 #@! TO.C,C18*
X24150000Y-22197836D02*
X24150000Y-21982164D01*
X24870000Y-22197836D02*
X24870000Y-21982164D01*
G04 #@! TO.C,R4*
X41130000Y-48623641D02*
X41130000Y-48316359D01*
X41890000Y-48623641D02*
X41890000Y-48316359D01*
D12*
G04 #@! TO.C,D6*
X44570000Y-28312500D02*
G75*
G02*
X44470000Y-28312500I-50000J0D01*
G01*
X44470000Y-28312500D02*
G75*
G02*
X44570000Y-28312500I50000J0D01*
G01*
D11*
G04 #@! TO.C,C4*
X14630000Y-21232836D02*
X14630000Y-21017164D01*
X15350000Y-21232836D02*
X15350000Y-21017164D01*
D12*
G04 #@! TO.C,D6*
X24370000Y-57512500D02*
G75*
G02*
X24270000Y-57512500I-50000J0D01*
G01*
X24270000Y-57512500D02*
G75*
G02*
X24370000Y-57512500I50000J0D01*
G01*
D11*
G04 #@! TO.C,U1*
X40845000Y-47995000D02*
X40695000Y-47995000D01*
X40845000Y-51115000D02*
X40695000Y-51115000D01*
X40845000Y-51115000D02*
X40845000Y-47995000D01*
D12*
X38360000Y-51605000D02*
G75*
G02*
X38260000Y-51605000I-50000J0D01*
G01*
X38260000Y-51605000D02*
G75*
G02*
X38360000Y-51605000I50000J0D01*
G01*
D11*
G04 #@! TO.C,R4*
X61330000Y-48623641D02*
X61330000Y-48316359D01*
X62090000Y-48623641D02*
X62090000Y-48316359D01*
G04 #@! TO.C,Y1*
X41790000Y-49800000D02*
X41790000Y-52150000D01*
X42840000Y-49450000D02*
X42140000Y-49450000D01*
X44015000Y-49450000D02*
X43715000Y-49450000D01*
D12*
X41840000Y-49450000D02*
G75*
G02*
X41740000Y-49450000I-50000J0D01*
G01*
X41740000Y-49450000D02*
G75*
G02*
X41840000Y-49450000I50000J0D01*
G01*
G04 #@! TO.C,D1*
X36480000Y-48945000D02*
G75*
G02*
X36380000Y-48945000I-50000J0D01*
G01*
X36380000Y-48945000D02*
G75*
G02*
X36480000Y-48945000I50000J0D01*
G01*
D11*
G04 #@! TO.C,R11*
X65290000Y-60376359D02*
X65290000Y-60683641D01*
X66050000Y-60376359D02*
X66050000Y-60683641D01*
G04 #@! TO.C,U4*
X59070000Y-32156117D02*
X59070000Y-32806117D01*
X61870000Y-32156117D02*
X61870000Y-33056117D01*
D12*
X59770000Y-33581117D02*
G75*
G02*
X59670000Y-33581117I-50000J0D01*
G01*
X59670000Y-33581117D02*
G75*
G02*
X59770000Y-33581117I50000J0D01*
G01*
D11*
G04 #@! TO.C,R1*
X24610000Y-49413641D02*
X24610000Y-49106359D01*
X25370000Y-49413641D02*
X25370000Y-49106359D01*
G04 #@! TO.C,C4*
X14630000Y-50432836D02*
X14630000Y-50217164D01*
X15350000Y-50432836D02*
X15350000Y-50217164D01*
G04 #@! TO.C,SW1*
X43550000Y-52950000D02*
X43550000Y-56250000D01*
X43550000Y-56250000D02*
X43850000Y-56250000D01*
X43850000Y-52950000D02*
X43550000Y-52950000D01*
G04 #@! TO.C,C4*
X34830000Y-21232836D02*
X34830000Y-21017164D01*
X35550000Y-21232836D02*
X35550000Y-21017164D01*
G04 #@! TO.C,R11*
X24890000Y-60376359D02*
X24890000Y-60683641D01*
X25650000Y-60376359D02*
X25650000Y-60683641D01*
G04 #@! TO.C,SW1*
X63750000Y-23750000D02*
X63750000Y-27050000D01*
X63750000Y-27050000D02*
X64050000Y-27050000D01*
X64050000Y-23750000D02*
X63750000Y-23750000D01*
G04 #@! TO.C,C19*
X42782164Y-48580000D02*
X42997836Y-48580000D01*
X42782164Y-49300000D02*
X42997836Y-49300000D01*
G04 #@! TO.C,C16*
X36670000Y-49287164D02*
X36670000Y-49502836D01*
X37390000Y-49287164D02*
X37390000Y-49502836D01*
G04 #@! TO.C,REF\u002A\u002A*
X4580000Y-20955000D02*
X4580000Y-21590000D01*
X5215000Y-20955000D02*
X4580000Y-20955000D01*
G04 #@! TO.C,C18*
X44350000Y-51397836D02*
X44350000Y-51182164D01*
X45070000Y-51397836D02*
X45070000Y-51182164D01*
G04 #@! TO.C,U1*
X61045000Y-18795000D02*
X60895000Y-18795000D01*
X61045000Y-21915000D02*
X60895000Y-21915000D01*
X61045000Y-21915000D02*
X61045000Y-18795000D01*
D12*
X58560000Y-22405000D02*
G75*
G02*
X58460000Y-22405000I-50000J0D01*
G01*
X58460000Y-22405000D02*
G75*
G02*
X58560000Y-22405000I50000J0D01*
G01*
G04 #@! TO.C,D6*
X24370000Y-28312500D02*
G75*
G02*
X24270000Y-28312500I-50000J0D01*
G01*
X24270000Y-28312500D02*
G75*
G02*
X24370000Y-28312500I50000J0D01*
G01*
D11*
G04 #@! TO.C,C16*
X16470000Y-49287164D02*
X16470000Y-49502836D01*
X17190000Y-49287164D02*
X17190000Y-49502836D01*
G04 #@! TO.C,C17*
X55950000Y-50432836D02*
X55950000Y-50217164D01*
X56670000Y-50432836D02*
X56670000Y-50217164D01*
G04 #@! TO.C,C16*
X56870000Y-20087164D02*
X56870000Y-20302836D01*
X57590000Y-20087164D02*
X57590000Y-20302836D01*
G04 #@! TO.C,Y1*
X41790000Y-20600000D02*
X41790000Y-22950000D01*
X42840000Y-20250000D02*
X42140000Y-20250000D01*
X44015000Y-20250000D02*
X43715000Y-20250000D01*
D12*
X41840000Y-20250000D02*
G75*
G02*
X41740000Y-20250000I-50000J0D01*
G01*
X41740000Y-20250000D02*
G75*
G02*
X41840000Y-20250000I50000J0D01*
G01*
D11*
G04 #@! TO.C,R11*
X45090000Y-60376359D02*
X45090000Y-60683641D01*
X45850000Y-60376359D02*
X45850000Y-60683641D01*
G04 #@! TO.C,C16*
X56870000Y-49287164D02*
X56870000Y-49502836D01*
X57590000Y-49287164D02*
X57590000Y-49502836D01*
G04 #@! TO.C,C18*
X64550000Y-51397836D02*
X64550000Y-51182164D01*
X65270000Y-51397836D02*
X65270000Y-51182164D01*
G04 #@! TO.C,U4*
X38870000Y-32156117D02*
X38870000Y-32806117D01*
X41670000Y-32156117D02*
X41670000Y-33056117D01*
D12*
X39570000Y-33581117D02*
G75*
G02*
X39470000Y-33581117I-50000J0D01*
G01*
X39470000Y-33581117D02*
G75*
G02*
X39570000Y-33581117I50000J0D01*
G01*
D13*
G04 #@! TO.C,G\u002A\u002A\u002A*
G36*
X6139328Y-38761883D02*
G01*
X6976470Y-38761883D01*
X6976470Y-40893895D01*
X6932686Y-40929961D01*
X6887755Y-40964042D01*
X6841676Y-40996138D01*
X6794449Y-41026249D01*
X6746073Y-41054373D01*
X6696547Y-41080512D01*
X6645872Y-41104663D01*
X6594048Y-41126828D01*
X6541073Y-41147005D01*
X6486947Y-41165194D01*
X6431670Y-41181395D01*
X6375241Y-41195607D01*
X6317661Y-41207830D01*
X6258929Y-41218064D01*
X6199043Y-41226308D01*
X6138005Y-41232562D01*
X6056778Y-41088364D01*
X5914168Y-41088364D01*
X5901727Y-41107029D01*
X5889003Y-41125517D01*
X5875989Y-41143825D01*
X5862673Y-41161951D01*
X5849048Y-41179890D01*
X5835103Y-41197640D01*
X5820829Y-41215199D01*
X5806218Y-41232561D01*
X4969076Y-41232561D01*
X4969076Y-40678260D01*
X5302187Y-40678260D01*
X5302187Y-40899451D01*
X5628418Y-40899451D01*
X5630751Y-40895219D01*
X6139328Y-40895219D01*
X6170830Y-40890242D01*
X6202332Y-40884440D01*
X6233834Y-40877811D01*
X6265336Y-40870356D01*
X6296838Y-40862073D01*
X6328340Y-40852961D01*
X6359842Y-40843019D01*
X6391344Y-40832248D01*
X6422846Y-40820645D01*
X6454348Y-40808211D01*
X6485850Y-40794944D01*
X6517352Y-40780844D01*
X6548854Y-40765910D01*
X6580356Y-40750141D01*
X6611858Y-40733537D01*
X6643360Y-40716096D01*
X6643360Y-39094994D01*
X6139328Y-39094994D01*
X6139328Y-40895219D01*
X5630751Y-40895219D01*
X5645859Y-40867807D01*
X5662463Y-40836174D01*
X5678232Y-40804555D01*
X5693166Y-40772947D01*
X5707266Y-40741352D01*
X5720533Y-40709770D01*
X5732967Y-40678200D01*
X5744570Y-40646642D01*
X5755341Y-40615096D01*
X5765283Y-40583563D01*
X5774395Y-40552043D01*
X5782678Y-40520535D01*
X5790134Y-40489039D01*
X5796762Y-40457556D01*
X5802564Y-40426085D01*
X5807541Y-40394626D01*
X5807541Y-39094993D01*
X5302187Y-39094993D01*
X5302187Y-39316185D01*
X4969076Y-39316185D01*
X4969076Y-38761883D01*
X5806218Y-38761883D01*
X5806218Y-38457083D01*
X6139328Y-38457083D01*
X6139328Y-38761883D01*
G37*
G36*
X6139328Y-35696950D02*
G01*
X6976470Y-35696950D01*
X6976470Y-37828698D01*
X6932686Y-37864764D01*
X6887755Y-37898845D01*
X6841676Y-37930941D01*
X6794449Y-37961051D01*
X6746073Y-37989176D01*
X6696547Y-38015314D01*
X6645872Y-38039466D01*
X6594048Y-38061630D01*
X6541073Y-38081807D01*
X6486947Y-38099996D01*
X6431670Y-38116197D01*
X6375241Y-38130410D01*
X6317661Y-38142633D01*
X6258929Y-38152867D01*
X6199043Y-38161111D01*
X6138005Y-38167364D01*
X6056778Y-38023167D01*
X6056778Y-38022902D01*
X5888768Y-38022902D01*
X5807541Y-38167100D01*
X5746689Y-38160893D01*
X5686965Y-38152689D01*
X5628369Y-38142489D01*
X5570900Y-38130294D01*
X5514558Y-38116103D01*
X5459343Y-38099918D01*
X5405255Y-38081738D01*
X5352292Y-38061564D01*
X5300455Y-38039397D01*
X5249743Y-38015236D01*
X5200155Y-37989082D01*
X5151692Y-37960936D01*
X5104353Y-37930797D01*
X5058138Y-37898667D01*
X5013046Y-37864546D01*
X4969076Y-37828433D01*
X4969076Y-37650633D01*
X5302187Y-37650633D01*
X5302187Y-37650898D01*
X5333834Y-37668339D01*
X5365475Y-37684943D01*
X5397109Y-37700712D01*
X5428736Y-37715646D01*
X5460355Y-37729746D01*
X5491966Y-37743013D01*
X5523568Y-37755447D01*
X5555161Y-37767050D01*
X5586745Y-37777821D01*
X5618320Y-37787763D01*
X5649884Y-37796875D01*
X5681438Y-37805158D01*
X5712981Y-37812614D01*
X5744513Y-37819242D01*
X5776033Y-37825044D01*
X5807541Y-37830021D01*
X6139328Y-37830021D01*
X6170830Y-37825044D01*
X6202332Y-37819242D01*
X6233834Y-37812614D01*
X6265336Y-37805158D01*
X6296838Y-37796875D01*
X6328340Y-37787763D01*
X6359842Y-37777821D01*
X6391344Y-37767050D01*
X6422846Y-37755447D01*
X6454348Y-37743013D01*
X6485850Y-37729746D01*
X6517352Y-37715646D01*
X6548854Y-37700712D01*
X6580356Y-37684943D01*
X6611858Y-37668339D01*
X6643360Y-37650898D01*
X6643360Y-36030325D01*
X6139328Y-36030325D01*
X6139328Y-37830021D01*
X5807541Y-37830021D01*
X5807541Y-36030325D01*
X5302187Y-36030325D01*
X5302187Y-37650633D01*
X4969076Y-37650633D01*
X4969076Y-35696950D01*
X5302187Y-35696950D01*
X5806218Y-35696950D01*
X5806218Y-35392150D01*
X6139328Y-35392150D01*
X6139328Y-35696950D01*
G37*
G36*
X7887959Y-40748373D02*
G01*
X7886901Y-40751283D01*
X7882139Y-40760015D01*
X7834327Y-40852327D01*
X7784716Y-40943648D01*
X7733395Y-41034009D01*
X7680456Y-41123441D01*
X7570088Y-41299642D01*
X7454340Y-41472505D01*
X7333942Y-41642279D01*
X7209622Y-41809216D01*
X7082107Y-41973567D01*
X6952128Y-42135583D01*
X6908231Y-42188770D01*
X6862740Y-42242884D01*
X6768640Y-42352244D01*
X6673150Y-42460364D01*
X6579595Y-42563944D01*
X6343322Y-42811330D01*
X6434293Y-42868715D01*
X6525587Y-42926919D01*
X6570866Y-42956491D01*
X6615640Y-42986463D01*
X6659714Y-43016900D01*
X6702891Y-43047867D01*
X6757233Y-43089536D01*
X6811246Y-43132480D01*
X6864825Y-43176534D01*
X6917865Y-43221533D01*
X6970259Y-43267314D01*
X7021904Y-43313711D01*
X7072692Y-43360562D01*
X7122520Y-43407700D01*
X7187223Y-43468413D01*
X7250467Y-43528772D01*
X7312401Y-43589466D01*
X7373179Y-43651183D01*
X7432953Y-43714612D01*
X7491874Y-43780440D01*
X7550094Y-43849357D01*
X7578989Y-43885189D01*
X7607766Y-43922050D01*
X7608718Y-43923309D01*
X7609589Y-43924602D01*
X7610381Y-43925926D01*
X7611094Y-43927280D01*
X7611727Y-43928660D01*
X7612282Y-43930064D01*
X7612758Y-43931488D01*
X7613157Y-43932931D01*
X7613478Y-43934390D01*
X7613721Y-43935861D01*
X7613888Y-43937342D01*
X7613979Y-43938830D01*
X7613994Y-43940324D01*
X7613933Y-43941819D01*
X7613797Y-43943313D01*
X7613587Y-43944804D01*
X7595239Y-43942162D01*
X7577140Y-43939347D01*
X7559339Y-43936284D01*
X7550565Y-43934636D01*
X7541884Y-43932898D01*
X7542623Y-43934807D01*
X7543267Y-43936674D01*
X7544361Y-43940339D01*
X7546415Y-43947781D01*
X7547035Y-43949746D01*
X7547742Y-43951780D01*
X7548560Y-43953899D01*
X7549512Y-43956115D01*
X7550620Y-43958443D01*
X7551908Y-43960896D01*
X7553398Y-43963489D01*
X7555114Y-43966235D01*
X7548234Y-43965707D01*
X7537387Y-43958034D01*
X7535936Y-43958604D01*
X7534461Y-43959127D01*
X7532964Y-43959603D01*
X7531446Y-43960034D01*
X7529907Y-43960422D01*
X7528350Y-43960768D01*
X7526775Y-43961074D01*
X7525183Y-43961341D01*
X7523575Y-43961570D01*
X7521953Y-43961764D01*
X7518671Y-43962051D01*
X7515346Y-43962215D01*
X7511987Y-43962266D01*
X7499923Y-43960787D01*
X7487909Y-43959158D01*
X7463832Y-43955653D01*
X7450938Y-43952651D01*
X7444703Y-43951216D01*
X7438664Y-43949898D01*
X7432860Y-43948754D01*
X7427332Y-43947839D01*
X7424684Y-43947485D01*
X7422121Y-43947210D01*
X7419646Y-43947020D01*
X7417266Y-43946921D01*
X7418243Y-43945976D01*
X7419047Y-43945024D01*
X7419683Y-43944068D01*
X7420157Y-43943106D01*
X7420476Y-43942141D01*
X7420645Y-43941172D01*
X7420669Y-43940199D01*
X7420556Y-43939223D01*
X7420312Y-43938246D01*
X7419941Y-43937266D01*
X7419451Y-43936285D01*
X7418847Y-43935303D01*
X7418135Y-43934321D01*
X7417322Y-43933339D01*
X7415414Y-43931377D01*
X7413171Y-43929421D01*
X7410641Y-43927475D01*
X7407872Y-43925544D01*
X7404913Y-43923630D01*
X7398615Y-43919871D01*
X7392130Y-43916230D01*
X7395570Y-43927342D01*
X7382967Y-43921110D01*
X7370003Y-43915099D01*
X7343236Y-43903662D01*
X7315756Y-43892870D01*
X7288050Y-43882561D01*
X7233905Y-43862751D01*
X7208441Y-43852926D01*
X7184697Y-43842940D01*
X7183891Y-43842584D01*
X7183112Y-43842210D01*
X7182358Y-43841819D01*
X7181629Y-43841411D01*
X7180924Y-43840989D01*
X7180244Y-43840552D01*
X7178955Y-43839637D01*
X7177756Y-43838675D01*
X7176646Y-43837671D01*
X7175621Y-43836632D01*
X7174676Y-43835565D01*
X7173809Y-43834476D01*
X7173015Y-43833373D01*
X7172293Y-43832260D01*
X7171637Y-43831146D01*
X7171045Y-43830036D01*
X7170513Y-43828938D01*
X7170038Y-43827857D01*
X7169616Y-43826801D01*
X7106645Y-43811191D01*
X7107547Y-43809956D01*
X7108090Y-43808686D01*
X7108301Y-43807387D01*
X7108209Y-43806063D01*
X7107842Y-43804720D01*
X7107227Y-43803363D01*
X7106393Y-43801997D01*
X7105367Y-43800628D01*
X7102855Y-43797901D01*
X7099915Y-43795224D01*
X7093647Y-43790190D01*
X7090768Y-43787916D01*
X7088359Y-43785862D01*
X7086644Y-43784068D01*
X7086116Y-43783283D01*
X7085846Y-43782579D01*
X7085862Y-43781961D01*
X7086191Y-43781435D01*
X7086862Y-43781005D01*
X7087903Y-43780679D01*
X7089342Y-43780459D01*
X7091207Y-43780353D01*
X7093525Y-43780364D01*
X7096326Y-43780499D01*
X6953716Y-43751131D01*
X6905331Y-43732385D01*
X6856109Y-43714027D01*
X6755675Y-43678337D01*
X6653455Y-43643789D01*
X6550491Y-43610108D01*
X6512296Y-43586465D01*
X6474782Y-43561906D01*
X6437917Y-43536480D01*
X6401671Y-43510240D01*
X6366010Y-43483235D01*
X6330904Y-43455517D01*
X6296320Y-43427136D01*
X6262227Y-43398144D01*
X6195386Y-43338525D01*
X6130126Y-43277068D01*
X6066193Y-43214178D01*
X6003332Y-43150262D01*
X5913961Y-43239282D01*
X5824143Y-43327831D01*
X5733433Y-43415437D01*
X5687603Y-43458739D01*
X5641383Y-43501629D01*
X5589286Y-43550215D01*
X5536304Y-43597759D01*
X5482471Y-43644280D01*
X5427818Y-43689797D01*
X5316188Y-43777891D01*
X5201678Y-43862189D01*
X5084551Y-43942842D01*
X4965070Y-44019997D01*
X4843500Y-44093803D01*
X4720103Y-44164410D01*
X4636872Y-44210812D01*
X4553027Y-44255885D01*
X4468500Y-44299513D01*
X4383223Y-44341581D01*
X4297127Y-44381975D01*
X4210144Y-44420580D01*
X4122206Y-44457281D01*
X4033245Y-44491964D01*
X3949418Y-44523429D01*
X3864871Y-44553579D01*
X3822258Y-44567998D01*
X3779382Y-44581893D01*
X3736214Y-44595200D01*
X3692727Y-44607851D01*
X3693520Y-44607321D01*
X3725141Y-44567154D01*
X3755994Y-44528475D01*
X3771264Y-44509725D01*
X3786500Y-44491384D01*
X3801754Y-44473464D01*
X3817080Y-44455979D01*
X3813903Y-44455665D01*
X3810885Y-44455237D01*
X3805120Y-44454156D01*
X3799374Y-44452971D01*
X3793235Y-44451912D01*
X3789888Y-44451503D01*
X3786289Y-44451213D01*
X3782385Y-44451070D01*
X3778125Y-44451105D01*
X3773457Y-44451347D01*
X3768329Y-44451823D01*
X3762691Y-44452564D01*
X3756491Y-44453598D01*
X3791680Y-44436136D01*
X3792584Y-44431646D01*
X3793793Y-44427160D01*
X3795292Y-44422678D01*
X3797062Y-44418203D01*
X3799086Y-44413739D01*
X3801346Y-44409286D01*
X3803825Y-44404849D01*
X3806505Y-44400429D01*
X3812399Y-44391650D01*
X3818888Y-44382971D01*
X3825831Y-44374410D01*
X3833088Y-44365987D01*
X3847982Y-44349636D01*
X3862448Y-44334076D01*
X3869170Y-44326642D01*
X3875364Y-44319465D01*
X3880890Y-44312564D01*
X3885608Y-44305960D01*
X3886931Y-44304638D01*
X3887365Y-44306251D01*
X3887923Y-44307673D01*
X3888598Y-44308908D01*
X3889387Y-44309965D01*
X3890284Y-44310849D01*
X3891286Y-44311567D01*
X3892387Y-44312125D01*
X3893582Y-44312530D01*
X3894869Y-44312788D01*
X3896241Y-44312905D01*
X3897694Y-44312889D01*
X3899223Y-44312744D01*
X3900824Y-44312479D01*
X3902493Y-44312099D01*
X3906014Y-44311021D01*
X3909749Y-44309561D01*
X3913660Y-44307772D01*
X3917713Y-44305704D01*
X3921868Y-44303410D01*
X3930343Y-44298347D01*
X3938789Y-44292996D01*
X3923708Y-44290615D01*
X3939563Y-44279918D01*
X3955276Y-44268529D01*
X3970840Y-44256542D01*
X3986248Y-44244052D01*
X4001496Y-44231155D01*
X4016576Y-44217945D01*
X4046210Y-44190966D01*
X4103194Y-44137434D01*
X4130446Y-44112399D01*
X4143741Y-44100647D01*
X4156806Y-44089532D01*
X4158559Y-44088070D01*
X4160343Y-44086757D01*
X4162151Y-44085586D01*
X4163974Y-44084550D01*
X4165807Y-44083643D01*
X4167642Y-44082857D01*
X4169473Y-44082188D01*
X4171292Y-44081627D01*
X4173092Y-44081168D01*
X4174867Y-44080806D01*
X4176609Y-44080532D01*
X4178311Y-44080341D01*
X4179967Y-44080226D01*
X4181570Y-44080181D01*
X4183112Y-44080198D01*
X4184587Y-44080271D01*
X4241737Y-44013860D01*
X4242644Y-44015580D01*
X4243811Y-44016890D01*
X4245215Y-44017821D01*
X4246833Y-44018404D01*
X4248640Y-44018669D01*
X4250615Y-44018646D01*
X4252732Y-44018367D01*
X4254970Y-44017862D01*
X4257304Y-44017162D01*
X4259711Y-44016297D01*
X4264652Y-44014195D01*
X4269603Y-44011802D01*
X4274380Y-44009362D01*
X4278793Y-44007121D01*
X4282657Y-44005323D01*
X4284324Y-44004667D01*
X4285783Y-44004214D01*
X4287011Y-44003994D01*
X4287985Y-44004038D01*
X4288681Y-44004376D01*
X4289076Y-44005039D01*
X4289146Y-44006059D01*
X4288867Y-44007465D01*
X4288218Y-44009287D01*
X4287173Y-44011558D01*
X4285710Y-44014307D01*
X4283806Y-44017564D01*
X4405249Y-43863842D01*
X4433663Y-43836080D01*
X4461957Y-43807788D01*
X4490132Y-43779005D01*
X4518193Y-43749774D01*
X4546142Y-43720132D01*
X4573983Y-43690122D01*
X4629351Y-43629156D01*
X4795642Y-43490329D01*
X4879643Y-43422011D01*
X4964314Y-43354552D01*
X5049729Y-43288048D01*
X5135962Y-43222596D01*
X5223089Y-43158290D01*
X5311183Y-43095228D01*
X5405027Y-43030360D01*
X5498375Y-42964028D01*
X5591128Y-42896356D01*
X5683187Y-42827470D01*
X5670334Y-42814567D01*
X5657555Y-42801640D01*
X5644826Y-42788663D01*
X5632122Y-42775611D01*
X5565473Y-42707612D01*
X5499479Y-42638317D01*
X5434148Y-42567968D01*
X5369490Y-42496807D01*
X5242230Y-42353014D01*
X5117772Y-42208874D01*
X4956252Y-42012027D01*
X4876922Y-41912645D01*
X4798751Y-41812428D01*
X4721894Y-41711232D01*
X4646508Y-41608910D01*
X4572746Y-41505317D01*
X4500764Y-41400307D01*
X4500028Y-41399129D01*
X4499359Y-41397931D01*
X4498755Y-41396714D01*
X4498217Y-41395481D01*
X4497743Y-41394233D01*
X4497334Y-41392973D01*
X4496990Y-41391703D01*
X4496708Y-41390426D01*
X4496490Y-41389143D01*
X4496335Y-41387857D01*
X4496242Y-41386570D01*
X4496211Y-41385284D01*
X4496241Y-41384002D01*
X4496332Y-41382725D01*
X4496484Y-41381457D01*
X4496696Y-41380198D01*
X4496967Y-41378952D01*
X4497298Y-41377721D01*
X4497688Y-41376506D01*
X4498136Y-41375311D01*
X4498642Y-41374137D01*
X4499205Y-41372986D01*
X4499826Y-41371861D01*
X4500503Y-41370764D01*
X4501237Y-41369698D01*
X4502026Y-41368664D01*
X4502870Y-41367664D01*
X4503770Y-41366702D01*
X4504724Y-41365778D01*
X4505732Y-41364896D01*
X4506793Y-41364058D01*
X4507908Y-41363265D01*
X4508205Y-41363076D01*
X4508503Y-41362903D01*
X4508801Y-41362745D01*
X4509098Y-41362599D01*
X4509396Y-41362465D01*
X4509693Y-41362339D01*
X4510289Y-41362107D01*
X4511479Y-41361665D01*
X4512075Y-41361424D01*
X4512372Y-41361291D01*
X4512670Y-41361148D01*
X4516639Y-41364514D01*
X4520607Y-41367829D01*
X4522592Y-41369453D01*
X4524576Y-41371046D01*
X4526560Y-41372601D01*
X4528545Y-41374113D01*
X4552688Y-41387144D01*
X4564859Y-41393535D01*
X4571013Y-41396678D01*
X4577228Y-41399777D01*
X4577715Y-41399982D01*
X4578185Y-41400198D01*
X4578638Y-41400425D01*
X4579076Y-41400662D01*
X4579500Y-41400909D01*
X4579912Y-41401164D01*
X4580311Y-41401426D01*
X4580701Y-41401696D01*
X4581081Y-41401972D01*
X4581453Y-41402253D01*
X4582177Y-41402829D01*
X4582882Y-41403417D01*
X4583578Y-41404011D01*
X4586488Y-41406657D01*
X4587475Y-41407916D01*
X4588354Y-41409211D01*
X4589129Y-41410543D01*
X4589804Y-41411911D01*
X4590383Y-41413315D01*
X4590870Y-41414754D01*
X4591268Y-41416228D01*
X4591582Y-41417736D01*
X4591815Y-41419279D01*
X4591971Y-41420855D01*
X4592055Y-41422465D01*
X4592070Y-41424107D01*
X4592019Y-41425782D01*
X4591907Y-41427489D01*
X4591738Y-41429228D01*
X4591515Y-41430998D01*
X4597433Y-41434473D01*
X4599983Y-41436075D01*
X4602284Y-41437598D01*
X4604354Y-41439051D01*
X4606211Y-41440440D01*
X4607871Y-41441776D01*
X4609354Y-41443066D01*
X4610677Y-41444318D01*
X4611858Y-41445541D01*
X4612914Y-41446743D01*
X4613863Y-41447932D01*
X4615513Y-41450306D01*
X4616949Y-41452727D01*
X4619749Y-41457981D01*
X4621398Y-41460946D01*
X4623402Y-41464224D01*
X4625904Y-41467883D01*
X4627386Y-41469875D01*
X4629046Y-41471987D01*
X4630901Y-41474227D01*
X4632970Y-41476603D01*
X4635269Y-41479124D01*
X4637818Y-41481798D01*
X4637761Y-41483100D01*
X4638027Y-41484425D01*
X4638601Y-41485772D01*
X4639468Y-41487138D01*
X4640612Y-41488522D01*
X4642019Y-41489923D01*
X4645561Y-41492766D01*
X4649973Y-41495655D01*
X4655133Y-41498574D01*
X4660922Y-41501512D01*
X4667220Y-41504453D01*
X4680856Y-41510296D01*
X4695079Y-41515992D01*
X4721426Y-41526513D01*
X4746297Y-41548209D01*
X4750632Y-41553777D01*
X4754646Y-41559453D01*
X4758398Y-41565214D01*
X4761945Y-41571038D01*
X4775236Y-41594511D01*
X4778624Y-41600312D01*
X4782153Y-41606040D01*
X4785881Y-41611674D01*
X4789866Y-41617191D01*
X4794167Y-41622568D01*
X4798839Y-41627784D01*
X4803942Y-41632815D01*
X4806673Y-41635254D01*
X4809532Y-41637638D01*
X4825888Y-41652008D01*
X4842675Y-41666152D01*
X4877324Y-41693800D01*
X4913052Y-41720661D01*
X4949431Y-41746812D01*
X5092901Y-41845866D01*
X5289454Y-42009237D01*
X5487792Y-42170377D01*
X5687916Y-42329333D01*
X5889826Y-42486157D01*
X5946612Y-42529747D01*
X5975067Y-42551418D01*
X6003597Y-42572940D01*
X6048725Y-42535093D01*
X6093555Y-42496972D01*
X6137989Y-42458603D01*
X6181926Y-42420011D01*
X6354776Y-42268412D01*
X6525603Y-42113975D01*
X6694025Y-41956593D01*
X6859656Y-41796157D01*
X7022113Y-41632558D01*
X7181009Y-41465688D01*
X7335962Y-41295439D01*
X7486587Y-41121701D01*
X7513045Y-41090315D01*
X7539503Y-41058730D01*
X7537539Y-41065477D01*
X7535646Y-41071777D01*
X7532260Y-41082741D01*
X7529718Y-41091026D01*
X7528879Y-41093978D01*
X7528391Y-41096036D01*
X7524951Y-41100534D01*
X7524279Y-41101979D01*
X7523651Y-41103384D01*
X7523068Y-41104748D01*
X7522528Y-41106068D01*
X7522030Y-41107343D01*
X7521576Y-41108570D01*
X7521163Y-41109748D01*
X7520792Y-41110874D01*
X7520462Y-41111946D01*
X7520173Y-41112961D01*
X7519924Y-41113919D01*
X7519714Y-41114817D01*
X7519544Y-41115653D01*
X7519412Y-41116424D01*
X7519319Y-41117129D01*
X7519263Y-41117765D01*
X7519244Y-41118331D01*
X7519262Y-41118824D01*
X7519316Y-41119243D01*
X7519406Y-41119585D01*
X7519532Y-41119848D01*
X7519607Y-41119949D01*
X7519692Y-41120030D01*
X7519785Y-41120090D01*
X7519886Y-41120129D01*
X7519996Y-41120146D01*
X7520114Y-41120142D01*
X7520241Y-41120117D01*
X7520376Y-41120069D01*
X7520670Y-41119906D01*
X7520997Y-41119652D01*
X7521356Y-41119305D01*
X7521746Y-41118862D01*
X7522166Y-41118321D01*
X7522618Y-41117680D01*
X7523099Y-41116938D01*
X7513310Y-41135724D01*
X7514103Y-41133343D01*
X7504314Y-41152128D01*
X7504287Y-41152179D01*
X7504258Y-41152231D01*
X7504192Y-41152337D01*
X7504118Y-41152447D01*
X7504037Y-41152558D01*
X7503951Y-41152670D01*
X7503863Y-41152780D01*
X7503773Y-41152886D01*
X7503685Y-41152988D01*
X7503520Y-41153172D01*
X7503384Y-41153319D01*
X7503255Y-41153451D01*
X7503255Y-41154245D01*
X7504843Y-41152922D01*
X7509665Y-41145574D01*
X7514595Y-41138237D01*
X7519619Y-41130951D01*
X7524720Y-41123752D01*
X7529883Y-41116676D01*
X7535092Y-41109762D01*
X7540333Y-41103046D01*
X7545589Y-41096566D01*
X7544533Y-41099223D01*
X7543268Y-41102021D01*
X7541821Y-41104941D01*
X7540218Y-41107964D01*
X7536654Y-41114234D01*
X7532789Y-41120676D01*
X7525013Y-41133438D01*
X7521530Y-41139442D01*
X7519983Y-41142281D01*
X7518601Y-41144985D01*
X7516349Y-41147664D01*
X7513967Y-41150718D01*
X7508865Y-41157809D01*
X7503397Y-41165979D01*
X7497666Y-41174949D01*
X7474151Y-41213247D01*
X7468330Y-41220126D01*
X7459864Y-41234413D01*
X7459864Y-41234678D01*
X7457594Y-41238453D01*
X7455196Y-41242702D01*
X7452743Y-41247230D01*
X7450306Y-41251842D01*
X7445762Y-41260537D01*
X7443799Y-41264228D01*
X7442137Y-41267221D01*
X7440942Y-41270056D01*
X7438879Y-41274373D01*
X7432942Y-41286139D01*
X7425914Y-41299889D01*
X7419382Y-41312994D01*
X7419619Y-41312142D01*
X7419739Y-41311558D01*
X7419749Y-41311226D01*
X7419714Y-41311150D01*
X7419655Y-41311130D01*
X7419572Y-41311165D01*
X7419466Y-41311252D01*
X7419187Y-41311576D01*
X7418826Y-41312085D01*
X7418390Y-41312763D01*
X7417321Y-41314558D01*
X7416034Y-41316827D01*
X7413886Y-41320712D01*
X7413793Y-41320932D01*
X7413614Y-41321329D01*
X7413425Y-41321725D01*
X7413032Y-41322519D01*
X7412152Y-41324017D01*
X7411296Y-41325521D01*
X7409659Y-41328472D01*
X7408121Y-41331226D01*
X7407389Y-41332481D01*
X7406682Y-41333632D01*
X7404717Y-41337413D01*
X7403011Y-41340763D01*
X7401604Y-41343598D01*
X7400531Y-41345835D01*
X7400132Y-41346703D01*
X7399830Y-41347390D01*
X7399631Y-41347886D01*
X7399539Y-41348180D01*
X7399534Y-41348247D01*
X7399543Y-41348261D01*
X7399558Y-41348261D01*
X7399611Y-41348218D01*
X7399694Y-41348119D01*
X7399950Y-41347744D01*
X7400332Y-41347126D01*
X7400301Y-41347290D01*
X7400305Y-41347389D01*
X7400320Y-41347415D01*
X7400342Y-41347426D01*
X7400373Y-41347421D01*
X7400411Y-41347402D01*
X7400509Y-41347321D01*
X7400635Y-41347186D01*
X7400786Y-41346998D01*
X7400961Y-41346761D01*
X7401374Y-41346151D01*
X7401858Y-41345377D01*
X7402398Y-41344459D01*
X7402978Y-41343421D01*
X7397951Y-41353211D01*
X7396301Y-41356609D01*
X7394633Y-41359948D01*
X7391299Y-41366382D01*
X7388059Y-41372382D01*
X7385020Y-41377817D01*
X7382291Y-41382558D01*
X7379980Y-41386474D01*
X7377049Y-41391311D01*
X7376255Y-41392634D01*
X7379430Y-41388665D01*
X7379976Y-41387880D01*
X7380361Y-41387354D01*
X7380819Y-41386747D01*
X7381353Y-41386066D01*
X7381960Y-41385316D01*
X7382643Y-41384505D01*
X7383399Y-41383638D01*
X7385516Y-41380728D01*
X7411709Y-41344744D01*
X7414173Y-41342032D01*
X7418721Y-41336741D01*
X7425253Y-41328969D01*
X7433670Y-41318815D01*
X7435387Y-41316449D01*
X7436787Y-41314484D01*
X7437900Y-41312881D01*
X7438759Y-41311601D01*
X7439393Y-41310605D01*
X7439635Y-41310201D01*
X7439832Y-41309853D01*
X7439989Y-41309556D01*
X7440108Y-41309306D01*
X7440195Y-41309098D01*
X7440251Y-41308926D01*
X7440283Y-41308786D01*
X7440292Y-41308673D01*
X7440284Y-41308582D01*
X7440261Y-41308508D01*
X7440189Y-41308392D01*
X7440107Y-41308286D01*
X7440071Y-41308224D01*
X7440044Y-41308150D01*
X7440030Y-41308058D01*
X7440033Y-41307945D01*
X7440056Y-41307805D01*
X7440103Y-41307633D01*
X7440178Y-41307424D01*
X7440284Y-41307173D01*
X7442585Y-41304131D01*
X7445192Y-41300745D01*
X7447917Y-41297290D01*
X7450570Y-41294044D01*
X7451811Y-41292584D01*
X7452963Y-41291280D01*
X7454003Y-41290166D01*
X7454907Y-41289277D01*
X7455651Y-41288646D01*
X7455956Y-41288439D01*
X7456212Y-41288309D01*
X7456416Y-41288261D01*
X7456565Y-41288300D01*
X7456657Y-41288429D01*
X7456689Y-41288653D01*
X7457845Y-41286506D01*
X7459033Y-41284515D01*
X7460251Y-41282656D01*
X7461501Y-41280905D01*
X7462781Y-41279238D01*
X7464093Y-41277630D01*
X7466809Y-41274497D01*
X7469649Y-41271315D01*
X7472613Y-41267891D01*
X7474142Y-41266028D01*
X7475701Y-41264033D01*
X7477292Y-41261881D01*
X7478914Y-41259548D01*
X7480121Y-41257631D01*
X7480993Y-41256200D01*
X7481574Y-41255192D01*
X7481907Y-41254542D01*
X7482035Y-41254185D01*
X7482036Y-41254096D01*
X7482002Y-41254056D01*
X7481938Y-41254057D01*
X7481851Y-41254090D01*
X7481626Y-41254224D01*
X7481125Y-41254528D01*
X7481022Y-41254565D01*
X7480937Y-41254569D01*
X7480878Y-41254534D01*
X7480848Y-41254451D01*
X7480855Y-41254311D01*
X7480902Y-41254107D01*
X7481142Y-41253475D01*
X7481611Y-41252487D01*
X7482353Y-41251081D01*
X7492378Y-41237707D01*
X7503024Y-41223267D01*
X7513123Y-41209372D01*
X7521512Y-41197636D01*
X7540826Y-41183083D01*
X7540591Y-41184075D01*
X7540366Y-41185204D01*
X7540132Y-41186655D01*
X7539935Y-41188354D01*
X7539865Y-41189274D01*
X7539822Y-41190227D01*
X7539811Y-41191205D01*
X7539839Y-41192199D01*
X7539911Y-41193199D01*
X7540032Y-41194196D01*
X7543655Y-41188876D01*
X7547536Y-41183335D01*
X7551608Y-41177727D01*
X7555808Y-41172202D01*
X7557935Y-41169519D01*
X7560070Y-41166913D01*
X7562204Y-41164404D01*
X7564329Y-41162012D01*
X7566436Y-41159754D01*
X7568519Y-41157650D01*
X7570568Y-41155718D01*
X7572576Y-41153979D01*
X7572546Y-41154398D01*
X7572553Y-41154766D01*
X7572592Y-41155087D01*
X7572661Y-41155365D01*
X7572756Y-41155605D01*
X7572873Y-41155810D01*
X7573009Y-41155986D01*
X7573159Y-41156137D01*
X7573490Y-41156380D01*
X7573837Y-41156574D01*
X7574170Y-41156754D01*
X7574461Y-41156956D01*
X7574582Y-41157075D01*
X7574681Y-41157213D01*
X7574755Y-41157373D01*
X7574801Y-41157560D01*
X7574814Y-41157779D01*
X7574791Y-41158033D01*
X7574728Y-41158328D01*
X7574623Y-41158667D01*
X7574470Y-41159055D01*
X7574267Y-41159496D01*
X7574009Y-41159995D01*
X7573694Y-41160555D01*
X7572876Y-41161880D01*
X7571782Y-41163504D01*
X7585541Y-41146835D01*
X7585916Y-41145857D01*
X7586077Y-41145394D01*
X7586210Y-41144962D01*
X7586310Y-41144573D01*
X7586369Y-41144235D01*
X7586380Y-41144090D01*
X7586379Y-41143961D01*
X7586364Y-41143850D01*
X7586335Y-41143759D01*
X7586289Y-41143689D01*
X7586228Y-41143642D01*
X7586149Y-41143618D01*
X7586052Y-41143618D01*
X7585937Y-41143645D01*
X7585801Y-41143699D01*
X7585644Y-41143783D01*
X7585466Y-41143896D01*
X7585266Y-41144040D01*
X7585042Y-41144218D01*
X7584794Y-41144429D01*
X7584521Y-41144676D01*
X7583896Y-41145280D01*
X7583160Y-41146041D01*
X7584030Y-41144327D01*
X7584952Y-41142656D01*
X7585922Y-41141029D01*
X7586934Y-41139447D01*
X7587985Y-41137910D01*
X7589071Y-41136419D01*
X7590187Y-41134973D01*
X7591329Y-41133573D01*
X7592492Y-41132220D01*
X7593673Y-41130913D01*
X7594867Y-41129654D01*
X7596070Y-41128442D01*
X7597278Y-41127279D01*
X7598486Y-41126164D01*
X7599690Y-41125098D01*
X7600887Y-41124081D01*
X7601069Y-41123979D01*
X7601317Y-41123775D01*
X7601626Y-41123470D01*
X7601995Y-41123068D01*
X7602896Y-41121983D01*
X7603995Y-41120542D01*
X7605269Y-41118766D01*
X7606691Y-41116677D01*
X7608237Y-41114296D01*
X7609882Y-41111645D01*
X7610676Y-41111381D01*
X7610679Y-41111401D01*
X7610688Y-41111413D01*
X7610702Y-41111416D01*
X7610722Y-41111412D01*
X7610746Y-41111400D01*
X7610774Y-41111382D01*
X7610842Y-41111327D01*
X7610922Y-41111253D01*
X7611011Y-41111163D01*
X7611107Y-41111061D01*
X7611205Y-41110951D01*
X7611400Y-41110727D01*
X7611569Y-41110525D01*
X7611735Y-41110323D01*
X7613011Y-41109140D01*
X7614640Y-41107214D01*
X7618858Y-41101323D01*
X7624185Y-41093045D01*
X7630421Y-41082773D01*
X7637363Y-41070902D01*
X7644812Y-41057824D01*
X7660418Y-41029625D01*
X7675702Y-41001426D01*
X7682830Y-40988404D01*
X7689423Y-40976675D01*
X7692472Y-40971430D01*
X7695333Y-40966670D01*
X7697987Y-40962448D01*
X7700415Y-40958820D01*
X7702601Y-40955837D01*
X7704524Y-40953555D01*
X7705382Y-40952694D01*
X7706168Y-40952028D01*
X7706879Y-40951563D01*
X7707514Y-40951308D01*
X7709807Y-40947640D01*
X7710933Y-40945767D01*
X7712020Y-40943896D01*
X7713048Y-40942047D01*
X7713997Y-40940244D01*
X7714849Y-40938506D01*
X7715583Y-40936855D01*
X7716182Y-40935313D01*
X7716424Y-40934589D01*
X7716624Y-40933901D01*
X7716781Y-40933250D01*
X7716892Y-40932640D01*
X7716953Y-40932072D01*
X7716964Y-40931551D01*
X7716922Y-40931078D01*
X7716823Y-40930656D01*
X7716666Y-40930288D01*
X7716449Y-40929976D01*
X7716168Y-40929724D01*
X7715821Y-40929533D01*
X7715407Y-40929407D01*
X7714922Y-40929347D01*
X7716029Y-40928048D01*
X7717025Y-40926970D01*
X7717915Y-40926098D01*
X7718708Y-40925420D01*
X7719410Y-40924922D01*
X7720030Y-40924590D01*
X7720574Y-40924410D01*
X7721049Y-40924370D01*
X7721463Y-40924456D01*
X7721823Y-40924653D01*
X7722136Y-40924949D01*
X7722410Y-40925329D01*
X7722868Y-40926291D01*
X7723256Y-40927430D01*
X7723632Y-40928636D01*
X7724053Y-40929803D01*
X7724299Y-40930337D01*
X7724578Y-40930820D01*
X7724898Y-40931239D01*
X7725266Y-40931580D01*
X7725688Y-40931830D01*
X7726173Y-40931975D01*
X7726727Y-40932001D01*
X7727358Y-40931894D01*
X7728074Y-40931643D01*
X7728880Y-40931231D01*
X7729786Y-40930647D01*
X7730797Y-40929877D01*
X7730767Y-40929806D01*
X7730727Y-40929742D01*
X7730679Y-40929684D01*
X7730623Y-40929630D01*
X7730495Y-40929533D01*
X7730351Y-40929443D01*
X7730200Y-40929351D01*
X7730053Y-40929249D01*
X7729918Y-40929130D01*
X7729858Y-40929061D01*
X7729805Y-40928984D01*
X7729759Y-40928899D01*
X7729723Y-40928804D01*
X7729696Y-40928699D01*
X7729681Y-40928583D01*
X7729678Y-40928453D01*
X7729689Y-40928310D01*
X7729714Y-40928153D01*
X7729755Y-40927979D01*
X7729814Y-40927790D01*
X7729890Y-40927582D01*
X7729986Y-40927356D01*
X7730102Y-40927110D01*
X7730241Y-40926843D01*
X7730402Y-40926554D01*
X7730587Y-40926243D01*
X7730797Y-40925908D01*
X7743232Y-40917971D01*
X7745282Y-40912390D01*
X7747811Y-40906762D01*
X7750748Y-40901087D01*
X7754018Y-40895369D01*
X7757551Y-40889610D01*
X7761273Y-40883810D01*
X7768996Y-40872098D01*
X7776608Y-40860251D01*
X7780190Y-40854280D01*
X7783528Y-40848282D01*
X7786547Y-40842257D01*
X7789176Y-40836208D01*
X7791343Y-40830136D01*
X7792230Y-40827092D01*
X7792974Y-40824044D01*
X7793196Y-40828277D01*
X7793557Y-40832858D01*
X7793900Y-40837810D01*
X7794065Y-40843160D01*
X7794033Y-40845991D01*
X7793897Y-40848931D01*
X7793637Y-40851982D01*
X7793235Y-40855149D01*
X7792669Y-40858433D01*
X7791921Y-40861838D01*
X7790971Y-40865367D01*
X7789799Y-40869023D01*
X7785566Y-40870610D01*
X7785434Y-40871383D01*
X7785158Y-40872387D01*
X7784288Y-40874951D01*
X7783189Y-40878024D01*
X7782626Y-40879664D01*
X7782093Y-40881326D01*
X7781619Y-40882976D01*
X7781233Y-40884578D01*
X7780964Y-40886099D01*
X7780882Y-40886817D01*
X7780840Y-40887502D01*
X7780843Y-40888149D01*
X7780893Y-40888753D01*
X7780993Y-40889311D01*
X7781149Y-40889818D01*
X7781363Y-40890269D01*
X7781639Y-40890661D01*
X7781980Y-40890989D01*
X7782391Y-40891247D01*
X7784912Y-40888567D01*
X7787320Y-40885879D01*
X7789619Y-40883174D01*
X7791812Y-40880445D01*
X7793905Y-40877683D01*
X7795902Y-40874881D01*
X7797806Y-40872030D01*
X7799622Y-40869122D01*
X7801354Y-40866148D01*
X7803007Y-40863102D01*
X7804585Y-40859974D01*
X7806092Y-40856757D01*
X7807532Y-40853441D01*
X7808910Y-40850021D01*
X7810229Y-40846486D01*
X7811495Y-40842829D01*
X7816522Y-40839389D01*
X7857268Y-40762924D01*
X7892193Y-40725883D01*
X7907274Y-40709743D01*
X7887959Y-40748373D01*
G37*
D11*
G04 #@! TO.C,REF\u002A\u002A*
X4580000Y-50155000D02*
X4580000Y-50790000D01*
X5215000Y-50155000D02*
X4580000Y-50155000D01*
G04 #@! TO.C,U2*
X55727500Y-31170000D02*
X55727500Y-30520000D01*
X56377500Y-23950000D02*
X55727500Y-23950000D01*
X56377500Y-31170000D02*
X55727500Y-31170000D01*
X62297500Y-23950000D02*
X62947500Y-23950000D01*
X62297500Y-31170000D02*
X62947500Y-31170000D01*
X62947500Y-23950000D02*
X62947500Y-24600000D01*
X62947500Y-31170000D02*
X62947500Y-30520000D01*
D12*
X55337500Y-24960000D02*
G75*
G02*
X55237500Y-24960000I-50000J0D01*
G01*
X55237500Y-24960000D02*
G75*
G02*
X55337500Y-24960000I50000J0D01*
G01*
D11*
G04 #@! TO.C,C18*
X24150000Y-51397836D02*
X24150000Y-51182164D01*
X24870000Y-51397836D02*
X24870000Y-51182164D01*
D12*
G04 #@! TO.C,D6*
X64770000Y-57512500D02*
G75*
G02*
X64670000Y-57512500I-50000J0D01*
G01*
X64670000Y-57512500D02*
G75*
G02*
X64770000Y-57512500I50000J0D01*
G01*
D11*
G04 #@! TO.C,C19*
X22582164Y-19380000D02*
X22797836Y-19380000D01*
X22582164Y-20100000D02*
X22797836Y-20100000D01*
D12*
G04 #@! TO.C,D1*
X16280000Y-48945000D02*
G75*
G02*
X16180000Y-48945000I-50000J0D01*
G01*
X16180000Y-48945000D02*
G75*
G02*
X16280000Y-48945000I50000J0D01*
G01*
X56680000Y-19745000D02*
G75*
G02*
X56580000Y-19745000I-50000J0D01*
G01*
X56580000Y-19745000D02*
G75*
G02*
X56680000Y-19745000I50000J0D01*
G01*
D11*
G04 #@! TO.C,R11*
X24890000Y-31176359D02*
X24890000Y-31483641D01*
X25650000Y-31176359D02*
X25650000Y-31483641D01*
G04 #@! TO.C,U4*
X18670000Y-61356117D02*
X18670000Y-62006117D01*
X21470000Y-61356117D02*
X21470000Y-62256117D01*
D12*
X19370000Y-62781117D02*
G75*
G02*
X19270000Y-62781117I-50000J0D01*
G01*
X19270000Y-62781117D02*
G75*
G02*
X19370000Y-62781117I50000J0D01*
G01*
D11*
G04 #@! TO.C,R1*
X65010000Y-20213641D02*
X65010000Y-19906359D01*
X65770000Y-20213641D02*
X65770000Y-19906359D01*
G04 #@! TO.C,C4*
X55030000Y-21232836D02*
X55030000Y-21017164D01*
X55750000Y-21232836D02*
X55750000Y-21017164D01*
G04 #@! TO.C,R4*
X61330000Y-19423641D02*
X61330000Y-19116359D01*
X62090000Y-19423641D02*
X62090000Y-19116359D01*
G04 #@! TO.C,R1*
X65010000Y-49413641D02*
X65010000Y-49106359D01*
X65770000Y-49413641D02*
X65770000Y-49106359D01*
G04 #@! TO.C,C18*
X44350000Y-22197836D02*
X44350000Y-21982164D01*
X45070000Y-22197836D02*
X45070000Y-21982164D01*
G04 #@! TO.C,C17*
X35750000Y-50432836D02*
X35750000Y-50217164D01*
X36470000Y-50432836D02*
X36470000Y-50217164D01*
D12*
G04 #@! TO.C,D6*
X44570000Y-57512500D02*
G75*
G02*
X44470000Y-57512500I-50000J0D01*
G01*
X44470000Y-57512500D02*
G75*
G02*
X44570000Y-57512500I50000J0D01*
G01*
D11*
G04 #@! TO.C,U2*
X15327500Y-60370000D02*
X15327500Y-59720000D01*
X15977500Y-53150000D02*
X15327500Y-53150000D01*
X15977500Y-60370000D02*
X15327500Y-60370000D01*
X21897500Y-53150000D02*
X22547500Y-53150000D01*
X21897500Y-60370000D02*
X22547500Y-60370000D01*
X22547500Y-53150000D02*
X22547500Y-53800000D01*
X22547500Y-60370000D02*
X22547500Y-59720000D01*
D12*
X14937500Y-54160000D02*
G75*
G02*
X14837500Y-54160000I-50000J0D01*
G01*
X14837500Y-54160000D02*
G75*
G02*
X14937500Y-54160000I50000J0D01*
G01*
D11*
G04 #@! TO.C,Y1*
X61990000Y-20600000D02*
X61990000Y-22950000D01*
X63040000Y-20250000D02*
X62340000Y-20250000D01*
X64215000Y-20250000D02*
X63915000Y-20250000D01*
D12*
X62040000Y-20250000D02*
G75*
G02*
X61940000Y-20250000I-50000J0D01*
G01*
X61940000Y-20250000D02*
G75*
G02*
X62040000Y-20250000I50000J0D01*
G01*
D11*
G04 #@! TO.C,SW1*
X23350000Y-23750000D02*
X23350000Y-27050000D01*
X23350000Y-27050000D02*
X23650000Y-27050000D01*
X23650000Y-23750000D02*
X23350000Y-23750000D01*
G04 #@! TO.C,R11*
X45090000Y-31176359D02*
X45090000Y-31483641D01*
X45850000Y-31176359D02*
X45850000Y-31483641D01*
G04 #@! TO.C,Y1*
X21590000Y-49800000D02*
X21590000Y-52150000D01*
X22640000Y-49450000D02*
X21940000Y-49450000D01*
X23815000Y-49450000D02*
X23515000Y-49450000D01*
D12*
X21640000Y-49450000D02*
G75*
G02*
X21540000Y-49450000I-50000J0D01*
G01*
X21540000Y-49450000D02*
G75*
G02*
X21640000Y-49450000I50000J0D01*
G01*
D11*
G04 #@! TO.C,U1*
X20645000Y-18795000D02*
X20495000Y-18795000D01*
X20645000Y-21915000D02*
X20495000Y-21915000D01*
X20645000Y-21915000D02*
X20645000Y-18795000D01*
D12*
X18160000Y-22405000D02*
G75*
G02*
X18060000Y-22405000I-50000J0D01*
G01*
X18060000Y-22405000D02*
G75*
G02*
X18160000Y-22405000I50000J0D01*
G01*
D11*
G04 #@! TO.C,C17*
X15550000Y-50432836D02*
X15550000Y-50217164D01*
X16270000Y-50432836D02*
X16270000Y-50217164D01*
G04 #@! TO.C,U4*
X38870000Y-61356117D02*
X38870000Y-62006117D01*
X41670000Y-61356117D02*
X41670000Y-62256117D01*
D12*
X39570000Y-62781117D02*
G75*
G02*
X39470000Y-62781117I-50000J0D01*
G01*
X39470000Y-62781117D02*
G75*
G02*
X39570000Y-62781117I50000J0D01*
G01*
D11*
G04 #@! TO.C,Y1*
X21590000Y-20600000D02*
X21590000Y-22950000D01*
X22640000Y-20250000D02*
X21940000Y-20250000D01*
X23815000Y-20250000D02*
X23515000Y-20250000D01*
D12*
X21640000Y-20250000D02*
G75*
G02*
X21540000Y-20250000I-50000J0D01*
G01*
X21540000Y-20250000D02*
G75*
G02*
X21640000Y-20250000I50000J0D01*
G01*
D11*
G04 #@! TO.C,C19*
X42782164Y-19380000D02*
X42997836Y-19380000D01*
X42782164Y-20100000D02*
X42997836Y-20100000D01*
G04 #@! TO.C,U4*
X59070000Y-61356117D02*
X59070000Y-62006117D01*
X61870000Y-61356117D02*
X61870000Y-62256117D01*
D12*
X59770000Y-62781117D02*
G75*
G02*
X59670000Y-62781117I-50000J0D01*
G01*
X59670000Y-62781117D02*
G75*
G02*
X59770000Y-62781117I50000J0D01*
G01*
D11*
G04 #@! TO.C,Y1*
X61990000Y-49800000D02*
X61990000Y-52150000D01*
X63040000Y-49450000D02*
X62340000Y-49450000D01*
X64215000Y-49450000D02*
X63915000Y-49450000D01*
D12*
X62040000Y-49450000D02*
G75*
G02*
X61940000Y-49450000I-50000J0D01*
G01*
X61940000Y-49450000D02*
G75*
G02*
X62040000Y-49450000I50000J0D01*
G01*
D11*
G04 #@! TO.C,R11*
X65290000Y-31176359D02*
X65290000Y-31483641D01*
X66050000Y-31176359D02*
X66050000Y-31483641D01*
G04 #@! TO.C,C17*
X55950000Y-21232836D02*
X55950000Y-21017164D01*
X56670000Y-21232836D02*
X56670000Y-21017164D01*
G04 #@! TO.C,C19*
X22582164Y-48580000D02*
X22797836Y-48580000D01*
X22582164Y-49300000D02*
X22797836Y-49300000D01*
D12*
G04 #@! TO.C,D1*
X36480000Y-19745000D02*
G75*
G02*
X36380000Y-19745000I-50000J0D01*
G01*
X36380000Y-19745000D02*
G75*
G02*
X36480000Y-19745000I50000J0D01*
G01*
D11*
G04 #@! TO.C,C16*
X36670000Y-20087164D02*
X36670000Y-20302836D01*
X37390000Y-20087164D02*
X37390000Y-20302836D01*
G04 #@! TO.C,U2*
X55727500Y-60370000D02*
X55727500Y-59720000D01*
X56377500Y-53150000D02*
X55727500Y-53150000D01*
X56377500Y-60370000D02*
X55727500Y-60370000D01*
X62297500Y-53150000D02*
X62947500Y-53150000D01*
X62297500Y-60370000D02*
X62947500Y-60370000D01*
X62947500Y-53150000D02*
X62947500Y-53800000D01*
X62947500Y-60370000D02*
X62947500Y-59720000D01*
D12*
X55337500Y-54160000D02*
G75*
G02*
X55237500Y-54160000I-50000J0D01*
G01*
X55237500Y-54160000D02*
G75*
G02*
X55337500Y-54160000I50000J0D01*
G01*
D11*
G04 #@! TO.C,C18*
X64550000Y-22197836D02*
X64550000Y-21982164D01*
X65270000Y-22197836D02*
X65270000Y-21982164D01*
G04 #@! TO.C,R1*
X44810000Y-20213641D02*
X44810000Y-19906359D01*
X45570000Y-20213641D02*
X45570000Y-19906359D01*
G04 #@! TO.C,SW1*
X23350000Y-52950000D02*
X23350000Y-56250000D01*
X23350000Y-56250000D02*
X23650000Y-56250000D01*
X23650000Y-52950000D02*
X23350000Y-52950000D01*
G04 #@! TO.C,C19*
X62982164Y-19380000D02*
X63197836Y-19380000D01*
X62982164Y-20100000D02*
X63197836Y-20100000D01*
G04 #@! TO.C,R4*
X20930000Y-19423641D02*
X20930000Y-19116359D01*
X21690000Y-19423641D02*
X21690000Y-19116359D01*
G04 #@! TO.C,C4*
X34830000Y-50432836D02*
X34830000Y-50217164D01*
X35550000Y-50432836D02*
X35550000Y-50217164D01*
G04 #@! TO.C,C17*
X35750000Y-21232836D02*
X35750000Y-21017164D01*
X36470000Y-21232836D02*
X36470000Y-21017164D01*
G04 #@! TO.C,C4*
X55030000Y-50432836D02*
X55030000Y-50217164D01*
X55750000Y-50432836D02*
X55750000Y-50217164D01*
G04 #@! TO.C,R4*
X41130000Y-19423641D02*
X41130000Y-19116359D01*
X41890000Y-19423641D02*
X41890000Y-19116359D01*
G04 #@! TO.C,R1*
X24610000Y-20213641D02*
X24610000Y-19906359D01*
X25370000Y-20213641D02*
X25370000Y-19906359D01*
G04 #@! TO.C,U1*
X61045000Y-47995000D02*
X60895000Y-47995000D01*
X61045000Y-51115000D02*
X60895000Y-51115000D01*
X61045000Y-51115000D02*
X61045000Y-47995000D01*
D12*
X58560000Y-51605000D02*
G75*
G02*
X58460000Y-51605000I-50000J0D01*
G01*
X58460000Y-51605000D02*
G75*
G02*
X58560000Y-51605000I50000J0D01*
G01*
D11*
G04 #@! TO.C,C17*
X15550000Y-21232836D02*
X15550000Y-21017164D01*
X16270000Y-21232836D02*
X16270000Y-21017164D01*
G04 #@! TO.C,C19*
X62982164Y-48580000D02*
X63197836Y-48580000D01*
X62982164Y-49300000D02*
X63197836Y-49300000D01*
G04 #@! TD*
%LPC*%
D14*
G04 #@! TO.C,C11*
X43685000Y-58440000D03*
X44325000Y-58440000D03*
G04 #@! TD*
D15*
G04 #@! TO.C,R4*
X21310000Y-48980000D03*
X21310000Y-47960000D03*
G04 #@! TD*
D16*
G04 #@! TO.C,U4*
X19320000Y-33106117D03*
D17*
X19120000Y-32906117D03*
D16*
X19820000Y-33106117D03*
X20320000Y-33106117D03*
X20820000Y-33106117D03*
D17*
X21020000Y-32906117D03*
X21020000Y-32306117D03*
D16*
X20820000Y-32106117D03*
X20320000Y-32106117D03*
X19820000Y-32106117D03*
D17*
X19120000Y-32306117D03*
D16*
X19320000Y-32106117D03*
G04 #@! TD*
D18*
G04 #@! TO.C,C9*
X19660000Y-23080000D03*
X19020000Y-23080000D03*
G04 #@! TD*
D14*
G04 #@! TO.C,C11*
X63885000Y-29240000D03*
X64525000Y-29240000D03*
G04 #@! TD*
D19*
G04 #@! TO.C,*
X76600000Y-15000000D03*
G04 #@! TD*
D20*
G04 #@! TO.C,U1*
X38310000Y-21730000D03*
X38960000Y-21730000D03*
X39610000Y-21730000D03*
X40260000Y-21730000D03*
X40260000Y-18980000D03*
X39610000Y-18980000D03*
X38960000Y-18980000D03*
X38310000Y-18980000D03*
D21*
X39285000Y-20355000D03*
G04 #@! TD*
D18*
G04 #@! TO.C,C2*
X55950000Y-52285000D03*
X55310000Y-52285000D03*
G04 #@! TD*
D22*
G04 #@! TO.C,D1*
X56180000Y-48945000D03*
X55480000Y-48945000D03*
G04 #@! TD*
G04 #@! TO.C,D1*
X15780000Y-19745000D03*
X15080000Y-19745000D03*
G04 #@! TD*
D23*
G04 #@! TO.C,U2*
X35700000Y-24960000D03*
X35700000Y-25360000D03*
X35700000Y-25760000D03*
X35700000Y-26160000D03*
X35700000Y-26560000D03*
X35700000Y-26960000D03*
X35700000Y-27360000D03*
X35700000Y-27760000D03*
X35700000Y-28160000D03*
X35700000Y-28560000D03*
X35700000Y-28960000D03*
X35700000Y-29360000D03*
X35700000Y-29760000D03*
X35700000Y-30160000D03*
D24*
X36537500Y-30997500D03*
X36937500Y-30997500D03*
X37337500Y-30997500D03*
X37737500Y-30997500D03*
X38137500Y-30997500D03*
X38537500Y-30997500D03*
X38937500Y-30997500D03*
X39337500Y-30997500D03*
X39737500Y-30997500D03*
X40137500Y-30997500D03*
X40537500Y-30997500D03*
X40937500Y-30997500D03*
X41337500Y-30997500D03*
X41737500Y-30997500D03*
D23*
X42575000Y-30160000D03*
X42575000Y-29760000D03*
X42575000Y-29360000D03*
X42575000Y-28960000D03*
X42575000Y-28560000D03*
X42575000Y-28160000D03*
X42575000Y-27760000D03*
X42575000Y-27360000D03*
X42575000Y-26960000D03*
X42575000Y-26560000D03*
X42575000Y-26160000D03*
X42575000Y-25760000D03*
X42575000Y-25360000D03*
X42575000Y-24960000D03*
D24*
X41737500Y-24122500D03*
X41337500Y-24122500D03*
X40937500Y-24122500D03*
X40537500Y-24122500D03*
X40137500Y-24122500D03*
X39737500Y-24122500D03*
X39337500Y-24122500D03*
X38937500Y-24122500D03*
X38537500Y-24122500D03*
X38137500Y-24122500D03*
X37737500Y-24122500D03*
X37337500Y-24122500D03*
X36937500Y-24122500D03*
X36537500Y-24122500D03*
D25*
X39137500Y-27560000D03*
G04 #@! TD*
D14*
G04 #@! TO.C,C11*
X23485000Y-58440000D03*
X24125000Y-58440000D03*
G04 #@! TD*
D26*
G04 #@! TO.C,C16*
X16830000Y-19715000D03*
X16830000Y-20675000D03*
G04 #@! TD*
D14*
G04 #@! TO.C,C10*
X63870000Y-59350000D03*
X64510000Y-59350000D03*
G04 #@! TD*
D27*
G04 #@! TO.C,C8*
X36480000Y-52260000D03*
X36480000Y-51620000D03*
G04 #@! TD*
D14*
G04 #@! TO.C,C15*
X62560000Y-18930000D03*
X63200000Y-18930000D03*
G04 #@! TD*
D27*
G04 #@! TO.C,C7*
X57380000Y-52255000D03*
X57380000Y-51615000D03*
G04 #@! TD*
D28*
G04 #@! TO.C,KiKit_TO_1*
X2500000Y-2500000D03*
G04 #@! TD*
D18*
G04 #@! TO.C,C9*
X60060000Y-52280000D03*
X59420000Y-52280000D03*
G04 #@! TD*
D15*
G04 #@! TO.C,R1*
X45190000Y-49770000D03*
X45190000Y-48750000D03*
G04 #@! TD*
D29*
G04 #@! TO.C,D6*
X65520000Y-28312500D03*
X65520000Y-29887500D03*
G04 #@! TD*
D23*
G04 #@! TO.C,U2*
X15500000Y-24960000D03*
X15500000Y-25360000D03*
X15500000Y-25760000D03*
X15500000Y-26160000D03*
X15500000Y-26560000D03*
X15500000Y-26960000D03*
X15500000Y-27360000D03*
X15500000Y-27760000D03*
X15500000Y-28160000D03*
X15500000Y-28560000D03*
X15500000Y-28960000D03*
X15500000Y-29360000D03*
X15500000Y-29760000D03*
X15500000Y-30160000D03*
D24*
X16337500Y-30997500D03*
X16737500Y-30997500D03*
X17137500Y-30997500D03*
X17537500Y-30997500D03*
X17937500Y-30997500D03*
X18337500Y-30997500D03*
X18737500Y-30997500D03*
X19137500Y-30997500D03*
X19537500Y-30997500D03*
X19937500Y-30997500D03*
X20337500Y-30997500D03*
X20737500Y-30997500D03*
X21137500Y-30997500D03*
X21537500Y-30997500D03*
D23*
X22375000Y-30160000D03*
X22375000Y-29760000D03*
X22375000Y-29360000D03*
X22375000Y-28960000D03*
X22375000Y-28560000D03*
X22375000Y-28160000D03*
X22375000Y-27760000D03*
X22375000Y-27360000D03*
X22375000Y-26960000D03*
X22375000Y-26560000D03*
X22375000Y-26160000D03*
X22375000Y-25760000D03*
X22375000Y-25360000D03*
X22375000Y-24960000D03*
D24*
X21537500Y-24122500D03*
X21137500Y-24122500D03*
X20737500Y-24122500D03*
X20337500Y-24122500D03*
X19937500Y-24122500D03*
X19537500Y-24122500D03*
X19137500Y-24122500D03*
X18737500Y-24122500D03*
X18337500Y-24122500D03*
X17937500Y-24122500D03*
X17537500Y-24122500D03*
X17137500Y-24122500D03*
X16737500Y-24122500D03*
X16337500Y-24122500D03*
D25*
X18937500Y-27560000D03*
G04 #@! TD*
D19*
G04 #@! TO.C,REF\u002A\u002A*
X79600000Y-15000000D03*
G04 #@! TD*
D30*
G04 #@! TO.C,SW1*
X44950000Y-23700000D03*
X44950000Y-27100000D03*
G04 #@! TD*
D19*
G04 #@! TO.C,*
X75600000Y-15000000D03*
G04 #@! TD*
D18*
G04 #@! TO.C,C9*
X60060000Y-23080000D03*
X59420000Y-23080000D03*
G04 #@! TD*
D19*
G04 #@! TO.C,*
X72600000Y-15000000D03*
G04 #@! TD*
D18*
G04 #@! TO.C,C2*
X15550000Y-23085000D03*
X14910000Y-23085000D03*
G04 #@! TD*
D20*
G04 #@! TO.C,U1*
X18110000Y-50930000D03*
X18760000Y-50930000D03*
X19410000Y-50930000D03*
X20060000Y-50930000D03*
X20060000Y-48180000D03*
X19410000Y-48180000D03*
X18760000Y-48180000D03*
X18110000Y-48180000D03*
D21*
X19085000Y-49555000D03*
G04 #@! TD*
D30*
G04 #@! TO.C,SW1*
X65150000Y-52900000D03*
X65150000Y-56300000D03*
G04 #@! TD*
D31*
G04 #@! TO.C,C1*
X18220000Y-32070000D03*
X18220000Y-32710000D03*
G04 #@! TD*
D14*
G04 #@! TO.C,C10*
X43670000Y-30150000D03*
X44310000Y-30150000D03*
G04 #@! TD*
D18*
G04 #@! TO.C,C9*
X39860000Y-23080000D03*
X39220000Y-23080000D03*
G04 #@! TD*
G04 #@! TO.C,C2*
X35750000Y-23085000D03*
X35110000Y-23085000D03*
G04 #@! TD*
D28*
G04 #@! TO.C,KiKit_TO_3*
X2500000Y-77500000D03*
G04 #@! TD*
D32*
G04 #@! TO.C,J3*
X18790000Y-33900000D03*
D33*
X19790000Y-33900000D03*
X20790000Y-33900000D03*
X21790000Y-33900000D03*
G04 #@! TD*
D34*
G04 #@! TO.C,J1*
X54100000Y-29900000D03*
D35*
X54100000Y-27400000D03*
X54100000Y-25400000D03*
X54100000Y-23400000D03*
X54100000Y-20900000D03*
G04 #@! TD*
D23*
G04 #@! TO.C,U2*
X35700000Y-54160000D03*
X35700000Y-54560000D03*
X35700000Y-54960000D03*
X35700000Y-55360000D03*
X35700000Y-55760000D03*
X35700000Y-56160000D03*
X35700000Y-56560000D03*
X35700000Y-56960000D03*
X35700000Y-57360000D03*
X35700000Y-57760000D03*
X35700000Y-58160000D03*
X35700000Y-58560000D03*
X35700000Y-58960000D03*
X35700000Y-59360000D03*
D24*
X36537500Y-60197500D03*
X36937500Y-60197500D03*
X37337500Y-60197500D03*
X37737500Y-60197500D03*
X38137500Y-60197500D03*
X38537500Y-60197500D03*
X38937500Y-60197500D03*
X39337500Y-60197500D03*
X39737500Y-60197500D03*
X40137500Y-60197500D03*
X40537500Y-60197500D03*
X40937500Y-60197500D03*
X41337500Y-60197500D03*
X41737500Y-60197500D03*
D23*
X42575000Y-59360000D03*
X42575000Y-58960000D03*
X42575000Y-58560000D03*
X42575000Y-58160000D03*
X42575000Y-57760000D03*
X42575000Y-57360000D03*
X42575000Y-56960000D03*
X42575000Y-56560000D03*
X42575000Y-56160000D03*
X42575000Y-55760000D03*
X42575000Y-55360000D03*
X42575000Y-54960000D03*
X42575000Y-54560000D03*
X42575000Y-54160000D03*
D24*
X41737500Y-53322500D03*
X41337500Y-53322500D03*
X40937500Y-53322500D03*
X40537500Y-53322500D03*
X40137500Y-53322500D03*
X39737500Y-53322500D03*
X39337500Y-53322500D03*
X38937500Y-53322500D03*
X38537500Y-53322500D03*
X38137500Y-53322500D03*
X37737500Y-53322500D03*
X37337500Y-53322500D03*
X36937500Y-53322500D03*
X36537500Y-53322500D03*
D25*
X39137500Y-56760000D03*
G04 #@! TD*
D32*
G04 #@! TO.C,J3*
X38990000Y-33900000D03*
D33*
X39990000Y-33900000D03*
X40990000Y-33900000D03*
X41990000Y-33900000D03*
G04 #@! TD*
D19*
G04 #@! TO.C,J4*
X24070000Y-33900000D03*
G04 #@! TD*
G04 #@! TO.C,*
X70600000Y-65000000D03*
G04 #@! TD*
D27*
G04 #@! TO.C,C8*
X56680000Y-52260000D03*
X56680000Y-51620000D03*
G04 #@! TD*
D19*
G04 #@! TO.C,*
X8400000Y-15000000D03*
G04 #@! TD*
D14*
G04 #@! TO.C,C10*
X43670000Y-59350000D03*
X44310000Y-59350000D03*
G04 #@! TD*
D36*
G04 #@! TO.C,C18*
X24510000Y-22570000D03*
X24510000Y-21610000D03*
G04 #@! TD*
D14*
G04 #@! TO.C,C12*
X20420000Y-23080000D03*
X21060000Y-23080000D03*
G04 #@! TD*
G04 #@! TO.C,C12*
X20420000Y-52280000D03*
X21060000Y-52280000D03*
G04 #@! TD*
D19*
G04 #@! TO.C,*
X74600000Y-15000000D03*
G04 #@! TD*
D15*
G04 #@! TO.C,R4*
X41510000Y-48980000D03*
X41510000Y-47960000D03*
G04 #@! TD*
D18*
G04 #@! TO.C,C2*
X55950000Y-23085000D03*
X55310000Y-23085000D03*
G04 #@! TD*
D31*
G04 #@! TO.C,C1*
X38420000Y-61270000D03*
X38420000Y-61910000D03*
G04 #@! TD*
D37*
G04 #@! TO.C,KiKit_FID_T_2*
X68000000Y-3850000D03*
G04 #@! TD*
D34*
G04 #@! TO.C,J1*
X54100000Y-59100000D03*
D35*
X54100000Y-56600000D03*
X54100000Y-54600000D03*
X54100000Y-52600000D03*
X54100000Y-50100000D03*
G04 #@! TD*
D29*
G04 #@! TO.C,D6*
X45320000Y-28312500D03*
X45320000Y-29887500D03*
G04 #@! TD*
D19*
G04 #@! TO.C,*
X3400000Y-65000000D03*
G04 #@! TD*
D36*
G04 #@! TO.C,C4*
X14990000Y-21605000D03*
X14990000Y-20645000D03*
G04 #@! TD*
D29*
G04 #@! TO.C,D6*
X25120000Y-57512500D03*
X25120000Y-59087500D03*
G04 #@! TD*
D20*
G04 #@! TO.C,U1*
X38310000Y-50930000D03*
X38960000Y-50930000D03*
X39610000Y-50930000D03*
X40260000Y-50930000D03*
X40260000Y-48180000D03*
X39610000Y-48180000D03*
X38960000Y-48180000D03*
X38310000Y-48180000D03*
D21*
X39285000Y-49555000D03*
G04 #@! TD*
D31*
G04 #@! TO.C,C6*
X62320000Y-61260000D03*
X62320000Y-61900000D03*
G04 #@! TD*
D19*
G04 #@! TO.C,*
X3400000Y-15000000D03*
G04 #@! TD*
D34*
G04 #@! TO.C,J1*
X33900000Y-59100000D03*
D35*
X33900000Y-56600000D03*
X33900000Y-54600000D03*
X33900000Y-52600000D03*
X33900000Y-50100000D03*
G04 #@! TD*
D14*
G04 #@! TO.C,C15*
X42360000Y-48130000D03*
X43000000Y-48130000D03*
G04 #@! TD*
D31*
G04 #@! TO.C,C6*
X42120000Y-61260000D03*
X42120000Y-61900000D03*
G04 #@! TD*
D34*
G04 #@! TO.C,J1*
X13700000Y-29900000D03*
D35*
X13700000Y-27400000D03*
X13700000Y-25400000D03*
X13700000Y-23400000D03*
X13700000Y-20900000D03*
G04 #@! TD*
D15*
G04 #@! TO.C,R4*
X61710000Y-48980000D03*
X61710000Y-47960000D03*
G04 #@! TD*
D38*
G04 #@! TO.C,Y1*
X42390000Y-50100000D03*
X42390000Y-51500000D03*
X43490000Y-51500000D03*
X43490000Y-50100000D03*
G04 #@! TD*
D34*
G04 #@! TO.C,J1*
X33900000Y-29900000D03*
D35*
X33900000Y-27400000D03*
X33900000Y-25400000D03*
X33900000Y-23400000D03*
X33900000Y-20900000D03*
G04 #@! TD*
D22*
G04 #@! TO.C,D1*
X35980000Y-48945000D03*
X35280000Y-48945000D03*
G04 #@! TD*
D39*
G04 #@! TO.C,R11*
X65670000Y-60020000D03*
X65670000Y-61040000D03*
G04 #@! TD*
D14*
G04 #@! TO.C,C15*
X22160000Y-48130000D03*
X22800000Y-48130000D03*
G04 #@! TD*
D32*
G04 #@! TO.C,J3*
X38990000Y-63100000D03*
D33*
X39990000Y-63100000D03*
X40990000Y-63100000D03*
X41990000Y-63100000D03*
G04 #@! TD*
D16*
G04 #@! TO.C,U4*
X59720000Y-33106117D03*
D17*
X59520000Y-32906117D03*
D16*
X60220000Y-33106117D03*
X60720000Y-33106117D03*
X61220000Y-33106117D03*
D17*
X61420000Y-32906117D03*
X61420000Y-32306117D03*
D16*
X61220000Y-32106117D03*
X60720000Y-32106117D03*
X60220000Y-32106117D03*
D17*
X59520000Y-32306117D03*
D16*
X59720000Y-32106117D03*
G04 #@! TD*
D15*
G04 #@! TO.C,R1*
X24990000Y-49770000D03*
X24990000Y-48750000D03*
G04 #@! TD*
D19*
G04 #@! TO.C,J4*
X44270000Y-33900000D03*
G04 #@! TD*
D31*
G04 #@! TO.C,C6*
X21920000Y-32060000D03*
X21920000Y-32700000D03*
G04 #@! TD*
D36*
G04 #@! TO.C,C4*
X14990000Y-50805000D03*
X14990000Y-49845000D03*
G04 #@! TD*
D19*
G04 #@! TO.C,J4*
X44270000Y-63100000D03*
G04 #@! TD*
D30*
G04 #@! TO.C,SW1*
X44950000Y-52900000D03*
X44950000Y-56300000D03*
G04 #@! TD*
D27*
G04 #@! TO.C,C7*
X16980000Y-23055000D03*
X16980000Y-22415000D03*
G04 #@! TD*
D19*
G04 #@! TO.C,*
X78600000Y-15000000D03*
G04 #@! TD*
G04 #@! TO.C,*
X69600000Y-65000000D03*
G04 #@! TD*
D36*
G04 #@! TO.C,C4*
X35190000Y-21605000D03*
X35190000Y-20645000D03*
G04 #@! TD*
D39*
G04 #@! TO.C,R11*
X25270000Y-60020000D03*
X25270000Y-61040000D03*
G04 #@! TD*
D30*
G04 #@! TO.C,SW1*
X65150000Y-23700000D03*
X65150000Y-27100000D03*
G04 #@! TD*
D40*
G04 #@! TO.C,C19*
X42410000Y-48940000D03*
X43370000Y-48940000D03*
G04 #@! TD*
D27*
G04 #@! TO.C,C8*
X16280000Y-52260000D03*
X16280000Y-51620000D03*
G04 #@! TD*
D18*
G04 #@! TO.C,C3*
X15550000Y-22385000D03*
X14910000Y-22385000D03*
G04 #@! TD*
D19*
G04 #@! TO.C,*
X7400000Y-65000000D03*
G04 #@! TD*
D26*
G04 #@! TO.C,C16*
X37030000Y-48915000D03*
X37030000Y-49875000D03*
G04 #@! TD*
D14*
G04 #@! TO.C,C12*
X60820000Y-52280000D03*
X61460000Y-52280000D03*
G04 #@! TD*
D41*
G04 #@! TO.C,REF\u002A\u002A*
X8390000Y-20320000D03*
D42*
X5850000Y-20320000D03*
D41*
X3310000Y-20320000D03*
X8390000Y-28575000D03*
X3310000Y-28575000D03*
D42*
X6866000Y-30480000D03*
X4834000Y-30480000D03*
D43*
X5215000Y-21590000D03*
X5215000Y-22860000D03*
X5215000Y-24130000D03*
X5215000Y-25400000D03*
X5215000Y-26670000D03*
X5215000Y-27940000D03*
X5215000Y-29210000D03*
X6485000Y-29210000D03*
X6485000Y-27940000D03*
X6485000Y-26670000D03*
X6485000Y-25400000D03*
X6485000Y-24130000D03*
X6485000Y-22860000D03*
X6485000Y-21590000D03*
G04 #@! TD*
D18*
G04 #@! TO.C,C9*
X19660000Y-52280000D03*
X19020000Y-52280000D03*
G04 #@! TD*
D36*
G04 #@! TO.C,C18*
X44710000Y-51770000D03*
X44710000Y-50810000D03*
G04 #@! TD*
D14*
G04 #@! TO.C,C10*
X23470000Y-30150000D03*
X24110000Y-30150000D03*
G04 #@! TD*
D19*
G04 #@! TO.C,*
X4400000Y-65000000D03*
G04 #@! TD*
D37*
G04 #@! TO.C,KiKit_FID_T_3*
X12000000Y-76150000D03*
G04 #@! TD*
D14*
G04 #@! TO.C,C10*
X23470000Y-59350000D03*
X24110000Y-59350000D03*
G04 #@! TD*
D27*
G04 #@! TO.C,C8*
X16280000Y-23060000D03*
X16280000Y-22420000D03*
G04 #@! TD*
D18*
G04 #@! TO.C,C3*
X55950000Y-22385000D03*
X55310000Y-22385000D03*
G04 #@! TD*
D20*
G04 #@! TO.C,U1*
X58510000Y-21730000D03*
X59160000Y-21730000D03*
X59810000Y-21730000D03*
X60460000Y-21730000D03*
X60460000Y-18980000D03*
X59810000Y-18980000D03*
X59160000Y-18980000D03*
X58510000Y-18980000D03*
D21*
X59485000Y-20355000D03*
G04 #@! TD*
D29*
G04 #@! TO.C,D6*
X25120000Y-28312500D03*
X25120000Y-29887500D03*
G04 #@! TD*
D18*
G04 #@! TO.C,C9*
X39860000Y-52280000D03*
X39220000Y-52280000D03*
G04 #@! TD*
D27*
G04 #@! TO.C,C8*
X56680000Y-23060000D03*
X56680000Y-22420000D03*
G04 #@! TD*
G04 #@! TO.C,C7*
X57380000Y-23055000D03*
X57380000Y-22415000D03*
G04 #@! TD*
D19*
G04 #@! TO.C,*
X77600000Y-65000000D03*
G04 #@! TD*
D27*
G04 #@! TO.C,C8*
X36480000Y-23060000D03*
X36480000Y-22420000D03*
G04 #@! TD*
D14*
G04 #@! TO.C,C11*
X23485000Y-29240000D03*
X24125000Y-29240000D03*
G04 #@! TD*
G04 #@! TO.C,C15*
X42360000Y-18930000D03*
X43000000Y-18930000D03*
G04 #@! TD*
D31*
G04 #@! TO.C,C1*
X58620000Y-32070000D03*
X58620000Y-32710000D03*
G04 #@! TD*
D26*
G04 #@! TO.C,C16*
X16830000Y-48915000D03*
X16830000Y-49875000D03*
G04 #@! TD*
D36*
G04 #@! TO.C,C17*
X56310000Y-50805000D03*
X56310000Y-49845000D03*
G04 #@! TD*
D27*
G04 #@! TO.C,C7*
X16980000Y-52255000D03*
X16980000Y-51615000D03*
G04 #@! TD*
D31*
G04 #@! TO.C,C1*
X38420000Y-32070000D03*
X38420000Y-32710000D03*
G04 #@! TD*
D19*
G04 #@! TO.C,*
X7400000Y-15000000D03*
G04 #@! TD*
D18*
G04 #@! TO.C,C2*
X15550000Y-52285000D03*
X14910000Y-52285000D03*
G04 #@! TD*
D32*
G04 #@! TO.C,J3*
X59190000Y-63100000D03*
D33*
X60190000Y-63100000D03*
X61190000Y-63100000D03*
X62190000Y-63100000D03*
G04 #@! TD*
D26*
G04 #@! TO.C,C16*
X57230000Y-19715000D03*
X57230000Y-20675000D03*
G04 #@! TD*
D19*
G04 #@! TO.C,*
X400000Y-15000000D03*
G04 #@! TD*
D38*
G04 #@! TO.C,Y1*
X42390000Y-20900000D03*
X42390000Y-22300000D03*
X43490000Y-22300000D03*
X43490000Y-20900000D03*
G04 #@! TD*
D39*
G04 #@! TO.C,R11*
X45470000Y-60020000D03*
X45470000Y-61040000D03*
G04 #@! TD*
D26*
G04 #@! TO.C,C16*
X57230000Y-48915000D03*
X57230000Y-49875000D03*
G04 #@! TD*
D36*
G04 #@! TO.C,C18*
X64910000Y-51770000D03*
X64910000Y-50810000D03*
G04 #@! TD*
D19*
G04 #@! TO.C,*
X2400000Y-65000000D03*
G04 #@! TD*
G04 #@! TO.C,*
X2400000Y-15000000D03*
G04 #@! TD*
D16*
G04 #@! TO.C,U4*
X39520000Y-33106117D03*
D17*
X39320000Y-32906117D03*
D16*
X40020000Y-33106117D03*
X40520000Y-33106117D03*
X41020000Y-33106117D03*
D17*
X41220000Y-32906117D03*
X41220000Y-32306117D03*
D16*
X41020000Y-32106117D03*
X40520000Y-32106117D03*
X40020000Y-32106117D03*
D17*
X39320000Y-32306117D03*
D16*
X39520000Y-32106117D03*
G04 #@! TD*
D27*
G04 #@! TO.C,C7*
X37180000Y-52255000D03*
X37180000Y-51615000D03*
G04 #@! TD*
D18*
G04 #@! TO.C,C3*
X35750000Y-22385000D03*
X35110000Y-22385000D03*
G04 #@! TD*
D19*
G04 #@! TO.C,*
X5400000Y-15000000D03*
G04 #@! TD*
G04 #@! TO.C,*
X5400000Y-65000000D03*
G04 #@! TD*
D41*
G04 #@! TO.C,REF\u002A\u002A*
X8390000Y-49520000D03*
D42*
X5850000Y-49520000D03*
D41*
X3310000Y-49520000D03*
X8390000Y-57775000D03*
X3310000Y-57775000D03*
D42*
X6866000Y-59680000D03*
X4834000Y-59680000D03*
D43*
X5215000Y-50790000D03*
X5215000Y-52060000D03*
X5215000Y-53330000D03*
X5215000Y-54600000D03*
X5215000Y-55870000D03*
X5215000Y-57140000D03*
X5215000Y-58410000D03*
X6485000Y-58410000D03*
X6485000Y-57140000D03*
X6485000Y-55870000D03*
X6485000Y-54600000D03*
X6485000Y-53330000D03*
X6485000Y-52060000D03*
X6485000Y-50790000D03*
G04 #@! TD*
D23*
G04 #@! TO.C,U2*
X55900000Y-24960000D03*
X55900000Y-25360000D03*
X55900000Y-25760000D03*
X55900000Y-26160000D03*
X55900000Y-26560000D03*
X55900000Y-26960000D03*
X55900000Y-27360000D03*
X55900000Y-27760000D03*
X55900000Y-28160000D03*
X55900000Y-28560000D03*
X55900000Y-28960000D03*
X55900000Y-29360000D03*
X55900000Y-29760000D03*
X55900000Y-30160000D03*
D24*
X56737500Y-30997500D03*
X57137500Y-30997500D03*
X57537500Y-30997500D03*
X57937500Y-30997500D03*
X58337500Y-30997500D03*
X58737500Y-30997500D03*
X59137500Y-30997500D03*
X59537500Y-30997500D03*
X59937500Y-30997500D03*
X60337500Y-30997500D03*
X60737500Y-30997500D03*
X61137500Y-30997500D03*
X61537500Y-30997500D03*
X61937500Y-30997500D03*
D23*
X62775000Y-30160000D03*
X62775000Y-29760000D03*
X62775000Y-29360000D03*
X62775000Y-28960000D03*
X62775000Y-28560000D03*
X62775000Y-28160000D03*
X62775000Y-27760000D03*
X62775000Y-27360000D03*
X62775000Y-26960000D03*
X62775000Y-26560000D03*
X62775000Y-26160000D03*
X62775000Y-25760000D03*
X62775000Y-25360000D03*
X62775000Y-24960000D03*
D24*
X61937500Y-24122500D03*
X61537500Y-24122500D03*
X61137500Y-24122500D03*
X60737500Y-24122500D03*
X60337500Y-24122500D03*
X59937500Y-24122500D03*
X59537500Y-24122500D03*
X59137500Y-24122500D03*
X58737500Y-24122500D03*
X58337500Y-24122500D03*
X57937500Y-24122500D03*
X57537500Y-24122500D03*
X57137500Y-24122500D03*
X56737500Y-24122500D03*
D25*
X59337500Y-27560000D03*
G04 #@! TD*
D19*
G04 #@! TO.C,*
X6400000Y-65000000D03*
G04 #@! TD*
D36*
G04 #@! TO.C,C18*
X24510000Y-51770000D03*
X24510000Y-50810000D03*
G04 #@! TD*
D19*
G04 #@! TO.C,*
X68600000Y-65000000D03*
G04 #@! TD*
D29*
G04 #@! TO.C,D6*
X65520000Y-57512500D03*
X65520000Y-59087500D03*
G04 #@! TD*
D31*
G04 #@! TO.C,C1*
X18220000Y-61270000D03*
X18220000Y-61910000D03*
G04 #@! TD*
D19*
G04 #@! TO.C,*
X68600000Y-15000000D03*
G04 #@! TD*
D40*
G04 #@! TO.C,C19*
X22210000Y-19740000D03*
X23170000Y-19740000D03*
G04 #@! TD*
D19*
G04 #@! TO.C,J4*
X24070000Y-63100000D03*
G04 #@! TD*
D22*
G04 #@! TO.C,D1*
X15780000Y-48945000D03*
X15080000Y-48945000D03*
G04 #@! TD*
D18*
G04 #@! TO.C,C3*
X55950000Y-51585000D03*
X55310000Y-51585000D03*
G04 #@! TD*
D22*
G04 #@! TO.C,D1*
X56180000Y-19745000D03*
X55480000Y-19745000D03*
G04 #@! TD*
D39*
G04 #@! TO.C,R11*
X25270000Y-30820000D03*
X25270000Y-31840000D03*
G04 #@! TD*
D16*
G04 #@! TO.C,U4*
X19320000Y-62306117D03*
D17*
X19120000Y-62106117D03*
D16*
X19820000Y-62306117D03*
X20320000Y-62306117D03*
X20820000Y-62306117D03*
D17*
X21020000Y-62106117D03*
X21020000Y-61506117D03*
D16*
X20820000Y-61306117D03*
X20320000Y-61306117D03*
X19820000Y-61306117D03*
D17*
X19120000Y-61506117D03*
D16*
X19320000Y-61306117D03*
G04 #@! TD*
D19*
G04 #@! TO.C,J4*
X64470000Y-63100000D03*
G04 #@! TD*
G04 #@! TO.C,*
X6400000Y-15000000D03*
G04 #@! TD*
D15*
G04 #@! TO.C,R1*
X65390000Y-20570000D03*
X65390000Y-19550000D03*
G04 #@! TD*
D31*
G04 #@! TO.C,C1*
X58620000Y-61270000D03*
X58620000Y-61910000D03*
G04 #@! TD*
D36*
G04 #@! TO.C,C4*
X55390000Y-21605000D03*
X55390000Y-20645000D03*
G04 #@! TD*
D15*
G04 #@! TO.C,R4*
X61710000Y-19780000D03*
X61710000Y-18760000D03*
G04 #@! TD*
D32*
G04 #@! TO.C,J3*
X18790000Y-63100000D03*
D33*
X19790000Y-63100000D03*
X20790000Y-63100000D03*
X21790000Y-63100000D03*
G04 #@! TD*
D15*
G04 #@! TO.C,R1*
X65390000Y-49770000D03*
X65390000Y-48750000D03*
G04 #@! TD*
D36*
G04 #@! TO.C,C18*
X44710000Y-22570000D03*
X44710000Y-21610000D03*
G04 #@! TD*
G04 #@! TO.C,C17*
X36110000Y-50805000D03*
X36110000Y-49845000D03*
G04 #@! TD*
D29*
G04 #@! TO.C,D6*
X45320000Y-57512500D03*
X45320000Y-59087500D03*
G04 #@! TD*
D23*
G04 #@! TO.C,U2*
X15500000Y-54160000D03*
X15500000Y-54560000D03*
X15500000Y-54960000D03*
X15500000Y-55360000D03*
X15500000Y-55760000D03*
X15500000Y-56160000D03*
X15500000Y-56560000D03*
X15500000Y-56960000D03*
X15500000Y-57360000D03*
X15500000Y-57760000D03*
X15500000Y-58160000D03*
X15500000Y-58560000D03*
X15500000Y-58960000D03*
X15500000Y-59360000D03*
D24*
X16337500Y-60197500D03*
X16737500Y-60197500D03*
X17137500Y-60197500D03*
X17537500Y-60197500D03*
X17937500Y-60197500D03*
X18337500Y-60197500D03*
X18737500Y-60197500D03*
X19137500Y-60197500D03*
X19537500Y-60197500D03*
X19937500Y-60197500D03*
X20337500Y-60197500D03*
X20737500Y-60197500D03*
X21137500Y-60197500D03*
X21537500Y-60197500D03*
D23*
X22375000Y-59360000D03*
X22375000Y-58960000D03*
X22375000Y-58560000D03*
X22375000Y-58160000D03*
X22375000Y-57760000D03*
X22375000Y-57360000D03*
X22375000Y-56960000D03*
X22375000Y-56560000D03*
X22375000Y-56160000D03*
X22375000Y-55760000D03*
X22375000Y-55360000D03*
X22375000Y-54960000D03*
X22375000Y-54560000D03*
X22375000Y-54160000D03*
D24*
X21537500Y-53322500D03*
X21137500Y-53322500D03*
X20737500Y-53322500D03*
X20337500Y-53322500D03*
X19937500Y-53322500D03*
X19537500Y-53322500D03*
X19137500Y-53322500D03*
X18737500Y-53322500D03*
X18337500Y-53322500D03*
X17937500Y-53322500D03*
X17537500Y-53322500D03*
X17137500Y-53322500D03*
X16737500Y-53322500D03*
X16337500Y-53322500D03*
D25*
X18937500Y-56760000D03*
G04 #@! TD*
D38*
G04 #@! TO.C,Y1*
X62590000Y-20900000D03*
X62590000Y-22300000D03*
X63690000Y-22300000D03*
X63690000Y-20900000D03*
G04 #@! TD*
D30*
G04 #@! TO.C,SW1*
X24750000Y-23700000D03*
X24750000Y-27100000D03*
G04 #@! TD*
D37*
G04 #@! TO.C,KiKit_FID_T_4*
X68000000Y-76150000D03*
G04 #@! TD*
D39*
G04 #@! TO.C,R11*
X45470000Y-30820000D03*
X45470000Y-31840000D03*
G04 #@! TD*
D19*
G04 #@! TO.C,*
X8400000Y-65000000D03*
G04 #@! TD*
D38*
G04 #@! TO.C,Y1*
X22190000Y-50100000D03*
X22190000Y-51500000D03*
X23290000Y-51500000D03*
X23290000Y-50100000D03*
G04 #@! TD*
D20*
G04 #@! TO.C,U1*
X18110000Y-21730000D03*
X18760000Y-21730000D03*
X19410000Y-21730000D03*
X20060000Y-21730000D03*
X20060000Y-18980000D03*
X19410000Y-18980000D03*
X18760000Y-18980000D03*
X18110000Y-18980000D03*
D21*
X19085000Y-20355000D03*
G04 #@! TD*
D36*
G04 #@! TO.C,C17*
X15910000Y-50805000D03*
X15910000Y-49845000D03*
G04 #@! TD*
D19*
G04 #@! TO.C,*
X69600000Y-15000000D03*
G04 #@! TD*
D16*
G04 #@! TO.C,U4*
X39520000Y-62306117D03*
D17*
X39320000Y-62106117D03*
D16*
X40020000Y-62306117D03*
X40520000Y-62306117D03*
X41020000Y-62306117D03*
D17*
X41220000Y-62106117D03*
X41220000Y-61506117D03*
D16*
X41020000Y-61306117D03*
X40520000Y-61306117D03*
X40020000Y-61306117D03*
D17*
X39320000Y-61506117D03*
D16*
X39520000Y-61306117D03*
G04 #@! TD*
D38*
G04 #@! TO.C,Y1*
X22190000Y-20900000D03*
X22190000Y-22300000D03*
X23290000Y-22300000D03*
X23290000Y-20900000D03*
G04 #@! TD*
D40*
G04 #@! TO.C,C19*
X42410000Y-19740000D03*
X43370000Y-19740000D03*
G04 #@! TD*
D19*
G04 #@! TO.C,*
X76600000Y-65000000D03*
G04 #@! TD*
G04 #@! TO.C,*
X9400000Y-15000000D03*
G04 #@! TD*
D16*
G04 #@! TO.C,U4*
X59720000Y-62306117D03*
D17*
X59520000Y-62106117D03*
D16*
X60220000Y-62306117D03*
X60720000Y-62306117D03*
X61220000Y-62306117D03*
D17*
X61420000Y-62106117D03*
X61420000Y-61506117D03*
D16*
X61220000Y-61306117D03*
X60720000Y-61306117D03*
X60220000Y-61306117D03*
D17*
X59520000Y-61506117D03*
D16*
X59720000Y-61306117D03*
G04 #@! TD*
D38*
G04 #@! TO.C,Y1*
X62590000Y-50100000D03*
X62590000Y-51500000D03*
X63690000Y-51500000D03*
X63690000Y-50100000D03*
G04 #@! TD*
D19*
G04 #@! TO.C,*
X1400000Y-65000000D03*
G04 #@! TD*
D18*
G04 #@! TO.C,C3*
X15550000Y-51585000D03*
X14910000Y-51585000D03*
G04 #@! TD*
D19*
G04 #@! TO.C,*
X78600000Y-65000000D03*
G04 #@! TD*
D39*
G04 #@! TO.C,R11*
X65670000Y-30820000D03*
X65670000Y-31840000D03*
G04 #@! TD*
D14*
G04 #@! TO.C,C11*
X63885000Y-58440000D03*
X64525000Y-58440000D03*
G04 #@! TD*
D36*
G04 #@! TO.C,C17*
X56310000Y-21605000D03*
X56310000Y-20645000D03*
G04 #@! TD*
D40*
G04 #@! TO.C,C19*
X22210000Y-48940000D03*
X23170000Y-48940000D03*
G04 #@! TD*
D19*
G04 #@! TO.C,*
X73600000Y-15000000D03*
G04 #@! TD*
D14*
G04 #@! TO.C,C11*
X43685000Y-29240000D03*
X44325000Y-29240000D03*
G04 #@! TD*
D22*
G04 #@! TO.C,D1*
X35980000Y-19745000D03*
X35280000Y-19745000D03*
G04 #@! TD*
D19*
G04 #@! TO.C,*
X400000Y-65000000D03*
G04 #@! TD*
D14*
G04 #@! TO.C,C15*
X62560000Y-48130000D03*
X63200000Y-48130000D03*
G04 #@! TD*
G04 #@! TO.C,C15*
X22160000Y-18930000D03*
X22800000Y-18930000D03*
G04 #@! TD*
D26*
G04 #@! TO.C,C16*
X37030000Y-19715000D03*
X37030000Y-20675000D03*
G04 #@! TD*
D23*
G04 #@! TO.C,U2*
X55900000Y-54160000D03*
X55900000Y-54560000D03*
X55900000Y-54960000D03*
X55900000Y-55360000D03*
X55900000Y-55760000D03*
X55900000Y-56160000D03*
X55900000Y-56560000D03*
X55900000Y-56960000D03*
X55900000Y-57360000D03*
X55900000Y-57760000D03*
X55900000Y-58160000D03*
X55900000Y-58560000D03*
X55900000Y-58960000D03*
X55900000Y-59360000D03*
D24*
X56737500Y-60197500D03*
X57137500Y-60197500D03*
X57537500Y-60197500D03*
X57937500Y-60197500D03*
X58337500Y-60197500D03*
X58737500Y-60197500D03*
X59137500Y-60197500D03*
X59537500Y-60197500D03*
X59937500Y-60197500D03*
X60337500Y-60197500D03*
X60737500Y-60197500D03*
X61137500Y-60197500D03*
X61537500Y-60197500D03*
X61937500Y-60197500D03*
D23*
X62775000Y-59360000D03*
X62775000Y-58960000D03*
X62775000Y-58560000D03*
X62775000Y-58160000D03*
X62775000Y-57760000D03*
X62775000Y-57360000D03*
X62775000Y-56960000D03*
X62775000Y-56560000D03*
X62775000Y-56160000D03*
X62775000Y-55760000D03*
X62775000Y-55360000D03*
X62775000Y-54960000D03*
X62775000Y-54560000D03*
X62775000Y-54160000D03*
D24*
X61937500Y-53322500D03*
X61537500Y-53322500D03*
X61137500Y-53322500D03*
X60737500Y-53322500D03*
X60337500Y-53322500D03*
X59937500Y-53322500D03*
X59537500Y-53322500D03*
X59137500Y-53322500D03*
X58737500Y-53322500D03*
X58337500Y-53322500D03*
X57937500Y-53322500D03*
X57537500Y-53322500D03*
X57137500Y-53322500D03*
X56737500Y-53322500D03*
D25*
X59337500Y-56760000D03*
G04 #@! TD*
D14*
G04 #@! TO.C,C10*
X63870000Y-30150000D03*
X64510000Y-30150000D03*
G04 #@! TD*
G04 #@! TO.C,C12*
X60820000Y-23080000D03*
X61460000Y-23080000D03*
G04 #@! TD*
D19*
G04 #@! TO.C,*
X71600000Y-15000000D03*
G04 #@! TD*
G04 #@! TO.C,*
X70600000Y-15000000D03*
G04 #@! TD*
G04 #@! TO.C,J4*
X64470000Y-33900000D03*
G04 #@! TD*
D31*
G04 #@! TO.C,C6*
X62320000Y-32060000D03*
X62320000Y-32700000D03*
G04 #@! TD*
D28*
G04 #@! TO.C,KiKit_TO_4*
X77500000Y-77500000D03*
G04 #@! TD*
D36*
G04 #@! TO.C,C18*
X64910000Y-22570000D03*
X64910000Y-21610000D03*
G04 #@! TD*
D15*
G04 #@! TO.C,R1*
X45190000Y-20570000D03*
X45190000Y-19550000D03*
G04 #@! TD*
D37*
G04 #@! TO.C,KiKit_FID_T_1*
X12000000Y-3850000D03*
G04 #@! TD*
D31*
G04 #@! TO.C,C6*
X42120000Y-32060000D03*
X42120000Y-32700000D03*
G04 #@! TD*
D18*
G04 #@! TO.C,C3*
X35750000Y-51585000D03*
X35110000Y-51585000D03*
G04 #@! TD*
D27*
G04 #@! TO.C,C7*
X37180000Y-23055000D03*
X37180000Y-22415000D03*
G04 #@! TD*
D32*
G04 #@! TO.C,J3*
X59190000Y-33900000D03*
D33*
X60190000Y-33900000D03*
X61190000Y-33900000D03*
X62190000Y-33900000D03*
G04 #@! TD*
D30*
G04 #@! TO.C,SW1*
X24750000Y-52900000D03*
X24750000Y-56300000D03*
G04 #@! TD*
D19*
G04 #@! TO.C,*
X4400000Y-15000000D03*
G04 #@! TD*
G04 #@! TO.C,*
X74600000Y-65000000D03*
G04 #@! TD*
D40*
G04 #@! TO.C,C19*
X62610000Y-19740000D03*
X63570000Y-19740000D03*
G04 #@! TD*
D19*
G04 #@! TO.C,*
X9400000Y-65000000D03*
G04 #@! TD*
D15*
G04 #@! TO.C,R4*
X21310000Y-19780000D03*
X21310000Y-18760000D03*
G04 #@! TD*
D31*
G04 #@! TO.C,C6*
X21920000Y-61260000D03*
X21920000Y-61900000D03*
G04 #@! TD*
D28*
G04 #@! TO.C,KiKit_TO_2*
X77500000Y-2500000D03*
G04 #@! TD*
D36*
G04 #@! TO.C,C4*
X35190000Y-50805000D03*
X35190000Y-49845000D03*
G04 #@! TD*
D19*
G04 #@! TO.C,*
X1400000Y-15000000D03*
G04 #@! TD*
D18*
G04 #@! TO.C,C2*
X35750000Y-52285000D03*
X35110000Y-52285000D03*
G04 #@! TD*
D34*
G04 #@! TO.C,J1*
X13700000Y-59100000D03*
D35*
X13700000Y-56600000D03*
X13700000Y-54600000D03*
X13700000Y-52600000D03*
X13700000Y-50100000D03*
G04 #@! TD*
D36*
G04 #@! TO.C,C17*
X36110000Y-21605000D03*
X36110000Y-20645000D03*
G04 #@! TD*
D19*
G04 #@! TO.C,*
X77600000Y-15000000D03*
G04 #@! TD*
D14*
G04 #@! TO.C,C12*
X40620000Y-52280000D03*
X41260000Y-52280000D03*
G04 #@! TD*
D19*
G04 #@! TO.C,*
X75600000Y-65000000D03*
G04 #@! TD*
D36*
G04 #@! TO.C,C4*
X55390000Y-50805000D03*
X55390000Y-49845000D03*
G04 #@! TD*
D14*
G04 #@! TO.C,C12*
X40620000Y-23080000D03*
X41260000Y-23080000D03*
G04 #@! TD*
D15*
G04 #@! TO.C,R4*
X41510000Y-19780000D03*
X41510000Y-18760000D03*
G04 #@! TD*
D19*
G04 #@! TO.C,*
X71600000Y-65000000D03*
G04 #@! TD*
G04 #@! TO.C,*
X73600000Y-65000000D03*
G04 #@! TD*
D15*
G04 #@! TO.C,R1*
X24990000Y-20570000D03*
X24990000Y-19550000D03*
G04 #@! TD*
D20*
G04 #@! TO.C,U1*
X58510000Y-50930000D03*
X59160000Y-50930000D03*
X59810000Y-50930000D03*
X60460000Y-50930000D03*
X60460000Y-48180000D03*
X59810000Y-48180000D03*
X59160000Y-48180000D03*
X58510000Y-48180000D03*
D21*
X59485000Y-49555000D03*
G04 #@! TD*
D36*
G04 #@! TO.C,C17*
X15910000Y-21605000D03*
X15910000Y-20645000D03*
G04 #@! TD*
D40*
G04 #@! TO.C,C19*
X62610000Y-48940000D03*
X63570000Y-48940000D03*
G04 #@! TD*
D19*
G04 #@! TO.C,REF\u002A\u002A*
X79600000Y-65000000D03*
G04 #@! TD*
G04 #@! TO.C,*
X72600000Y-65000000D03*
G04 #@! TD*
D32*
G04 #@! TO.C,J2*
X18770000Y-17130000D03*
D33*
X18770000Y-18130000D03*
X19770000Y-17130000D03*
X19770000Y-18130000D03*
X20770000Y-17130000D03*
X21770000Y-17130000D03*
X22770000Y-17130000D03*
X22770000Y-18130000D03*
X23770000Y-17130000D03*
X23770000Y-18130000D03*
G04 #@! TD*
D32*
G04 #@! TO.C,J2*
X38970000Y-17130000D03*
D33*
X38970000Y-18130000D03*
X39970000Y-17130000D03*
X39970000Y-18130000D03*
X40970000Y-17130000D03*
X41970000Y-17130000D03*
X42970000Y-17130000D03*
X42970000Y-18130000D03*
X43970000Y-17130000D03*
X43970000Y-18130000D03*
G04 #@! TD*
D32*
G04 #@! TO.C,J2*
X38970000Y-46330000D03*
D33*
X38970000Y-47330000D03*
X39970000Y-46330000D03*
X39970000Y-47330000D03*
X40970000Y-46330000D03*
X41970000Y-46330000D03*
X42970000Y-46330000D03*
X42970000Y-47330000D03*
X43970000Y-46330000D03*
X43970000Y-47330000D03*
G04 #@! TD*
D32*
G04 #@! TO.C,J2*
X18770000Y-46330000D03*
D33*
X18770000Y-47330000D03*
X19770000Y-46330000D03*
X19770000Y-47330000D03*
X20770000Y-46330000D03*
X21770000Y-46330000D03*
X22770000Y-46330000D03*
X22770000Y-47330000D03*
X23770000Y-46330000D03*
X23770000Y-47330000D03*
G04 #@! TD*
D32*
G04 #@! TO.C,J2*
X59170000Y-17130000D03*
D33*
X59170000Y-18130000D03*
X60170000Y-17130000D03*
X60170000Y-18130000D03*
X61170000Y-17130000D03*
X62170000Y-17130000D03*
X63170000Y-17130000D03*
X63170000Y-18130000D03*
X64170000Y-17130000D03*
X64170000Y-18130000D03*
G04 #@! TD*
D32*
G04 #@! TO.C,J2*
X59170000Y-46330000D03*
D33*
X59170000Y-47330000D03*
X60170000Y-46330000D03*
X60170000Y-47330000D03*
X61170000Y-46330000D03*
X62170000Y-46330000D03*
X63170000Y-46330000D03*
X63170000Y-47330000D03*
X64170000Y-46330000D03*
X64170000Y-47330000D03*
G04 #@! TD*
%LPD*%
M02*
