G04 #@! TF.GenerationSoftware,KiCad,Pcbnew,9.0.0-9.0.0-2~ubuntu24.04.1*
G04 #@! TF.CreationDate,2025-03-16T16:10:10-04:00*
G04 #@! TF.ProjectId,panel9,70616e65-6c39-42e6-9b69-6361645f7063,rev?*
G04 #@! TF.SameCoordinates,Original*
G04 #@! TF.FileFunction,Legend,Bot*
G04 #@! TF.FilePolarity,Positive*
%FSLAX46Y46*%
G04 Gerber Fmt 4.6, Leading zero omitted, Abs format (unit mm)*
G04 Created by KiCad (PCBNEW 9.0.0-9.0.0-2~ubuntu24.04.1) date 2025-03-16 16:10:10*
%MOMM*%
%LPD*%
G01*
G04 APERTURE LIST*
G04 Aperture macros list*
%AMRoundRect*
0 Rectangle with rounded corners*
0 $1 Rounding radius*
0 $2 $3 $4 $5 $6 $7 $8 $9 X,Y pos of 4 corners*
0 Add a 4 corners polygon primitive as box body*
4,1,4,$2,$3,$4,$5,$6,$7,$8,$9,$2,$3,0*
0 Add four circle primitives for the rounded corners*
1,1,$1+$1,$2,$3*
1,1,$1+$1,$4,$5*
1,1,$1+$1,$6,$7*
1,1,$1+$1,$8,$9*
0 Add four rect primitives between the rounded corners*
20,1,$1+$1,$2,$3,$4,$5,0*
20,1,$1+$1,$4,$5,$6,$7,0*
20,1,$1+$1,$6,$7,$8,$9,0*
20,1,$1+$1,$8,$9,$2,$3,0*%
%AMFreePoly0*
4,1,6,0.725000,-0.725000,-0.125000,-0.725000,-0.725000,-0.125000,-0.725000,0.725000,0.725000,0.725000,0.725000,-0.725000,0.725000,-0.725000,$1*%
G04 Aperture macros list end*
%ADD10C,0.150000*%
%ADD11C,0.100000*%
%ADD12C,0.120000*%
%ADD13C,0.600000*%
%ADD14C,2.000000*%
%ADD15R,0.600000X0.600000*%
%ADD16O,0.600000X0.600000*%
%ADD17R,1.350000X1.350000*%
%ADD18O,1.350000X1.350000*%
%ADD19C,2.374900*%
%ADD20C,0.990600*%
%ADD21RoundRect,0.100000X-0.130000X-0.100000X0.130000X-0.100000X0.130000X0.100000X-0.130000X0.100000X0*%
%ADD22R,0.400000X0.800000*%
%ADD23R,0.800000X0.400000*%
%ADD24R,1.450000X1.450000*%
%ADD25FreePoly0,90.000000*%
%ADD26R,0.700000X0.700000*%
%ADD27RoundRect,0.135000X-0.185000X0.135000X-0.185000X-0.135000X0.185000X-0.135000X0.185000X0.135000X0*%
%ADD28RoundRect,0.135000X-0.135000X-0.185000X0.135000X-0.185000X0.135000X0.185000X-0.135000X0.185000X0*%
%ADD29C,1.000000*%
%ADD30RoundRect,0.140000X-0.170000X0.140000X-0.170000X-0.140000X0.170000X-0.140000X0.170000X0.140000X0*%
%ADD31RoundRect,0.140000X-0.140000X-0.170000X0.140000X-0.170000X0.140000X0.170000X-0.140000X0.170000X0*%
G04 APERTURE END LIST*
D10*
X23969104Y-21114284D02*
X23969104Y-21542856D01*
X24254819Y-21028570D02*
X23254819Y-21328570D01*
X23254819Y-21328570D02*
X24254819Y-21628570D01*
X23588152Y-21928570D02*
X24254819Y-21928570D01*
X23683390Y-21928570D02*
X23635771Y-21971427D01*
X23635771Y-21971427D02*
X23588152Y-22057142D01*
X23588152Y-22057142D02*
X23588152Y-22185713D01*
X23588152Y-22185713D02*
X23635771Y-22271427D01*
X23635771Y-22271427D02*
X23731009Y-22314285D01*
X23731009Y-22314285D02*
X24254819Y-22314285D01*
X23588152Y-22614285D02*
X23588152Y-22957142D01*
X23254819Y-22742856D02*
X24111961Y-22742856D01*
X24111961Y-22742856D02*
X24207200Y-22785713D01*
X24207200Y-22785713D02*
X24254819Y-22871428D01*
X24254819Y-22871428D02*
X24254819Y-22957142D01*
X24207200Y-23599999D02*
X24254819Y-23514285D01*
X24254819Y-23514285D02*
X24254819Y-23342857D01*
X24254819Y-23342857D02*
X24207200Y-23257142D01*
X24207200Y-23257142D02*
X24111961Y-23214285D01*
X24111961Y-23214285D02*
X23731009Y-23214285D01*
X23731009Y-23214285D02*
X23635771Y-23257142D01*
X23635771Y-23257142D02*
X23588152Y-23342857D01*
X23588152Y-23342857D02*
X23588152Y-23514285D01*
X23588152Y-23514285D02*
X23635771Y-23599999D01*
X23635771Y-23599999D02*
X23731009Y-23642857D01*
X23731009Y-23642857D02*
X23826247Y-23642857D01*
X23826247Y-23642857D02*
X23921485Y-23214285D01*
X23588152Y-24028571D02*
X24254819Y-24028571D01*
X23683390Y-24028571D02*
X23635771Y-24071428D01*
X23635771Y-24071428D02*
X23588152Y-24157143D01*
X23588152Y-24157143D02*
X23588152Y-24285714D01*
X23588152Y-24285714D02*
X23635771Y-24371428D01*
X23635771Y-24371428D02*
X23731009Y-24414286D01*
X23731009Y-24414286D02*
X24254819Y-24414286D01*
X23588152Y-24842857D02*
X24254819Y-24842857D01*
X23683390Y-24842857D02*
X23635771Y-24885714D01*
X23635771Y-24885714D02*
X23588152Y-24971429D01*
X23588152Y-24971429D02*
X23588152Y-25100000D01*
X23588152Y-25100000D02*
X23635771Y-25185714D01*
X23635771Y-25185714D02*
X23731009Y-25228572D01*
X23731009Y-25228572D02*
X24254819Y-25228572D01*
X24254819Y-26042858D02*
X23731009Y-26042858D01*
X23731009Y-26042858D02*
X23635771Y-26000000D01*
X23635771Y-26000000D02*
X23588152Y-25914286D01*
X23588152Y-25914286D02*
X23588152Y-25742858D01*
X23588152Y-25742858D02*
X23635771Y-25657143D01*
X24207200Y-26042858D02*
X24254819Y-25957143D01*
X24254819Y-25957143D02*
X24254819Y-25742858D01*
X24254819Y-25742858D02*
X24207200Y-25657143D01*
X24207200Y-25657143D02*
X24111961Y-25614286D01*
X24111961Y-25614286D02*
X24016723Y-25614286D01*
X24016723Y-25614286D02*
X23921485Y-25657143D01*
X23921485Y-25657143D02*
X23873866Y-25742858D01*
X23873866Y-25742858D02*
X23873866Y-25957143D01*
X23873866Y-25957143D02*
X23826247Y-26042858D01*
X23969104Y-27114286D02*
X23969104Y-27542858D01*
X24254819Y-27028572D02*
X23254819Y-27328572D01*
X23254819Y-27328572D02*
X24254819Y-27628572D01*
X24254819Y-27928572D02*
X23588152Y-27928572D01*
X23778628Y-27928572D02*
X23683390Y-27971429D01*
X23683390Y-27971429D02*
X23635771Y-28014287D01*
X23635771Y-28014287D02*
X23588152Y-28100001D01*
X23588152Y-28100001D02*
X23588152Y-28185715D01*
X24207200Y-28828572D02*
X24254819Y-28742858D01*
X24254819Y-28742858D02*
X24254819Y-28571430D01*
X24254819Y-28571430D02*
X24207200Y-28485715D01*
X24207200Y-28485715D02*
X24111961Y-28442858D01*
X24111961Y-28442858D02*
X23731009Y-28442858D01*
X23731009Y-28442858D02*
X23635771Y-28485715D01*
X23635771Y-28485715D02*
X23588152Y-28571430D01*
X23588152Y-28571430D02*
X23588152Y-28742858D01*
X23588152Y-28742858D02*
X23635771Y-28828572D01*
X23635771Y-28828572D02*
X23731009Y-28871430D01*
X23731009Y-28871430D02*
X23826247Y-28871430D01*
X23826247Y-28871430D02*
X23921485Y-28442858D01*
X24254819Y-29642859D02*
X23731009Y-29642859D01*
X23731009Y-29642859D02*
X23635771Y-29600001D01*
X23635771Y-29600001D02*
X23588152Y-29514287D01*
X23588152Y-29514287D02*
X23588152Y-29342859D01*
X23588152Y-29342859D02*
X23635771Y-29257144D01*
X24207200Y-29642859D02*
X24254819Y-29557144D01*
X24254819Y-29557144D02*
X24254819Y-29342859D01*
X24254819Y-29342859D02*
X24207200Y-29257144D01*
X24207200Y-29257144D02*
X24111961Y-29214287D01*
X24111961Y-29214287D02*
X24016723Y-29214287D01*
X24016723Y-29214287D02*
X23921485Y-29257144D01*
X23921485Y-29257144D02*
X23873866Y-29342859D01*
X23873866Y-29342859D02*
X23873866Y-29557144D01*
X23873866Y-29557144D02*
X23826247Y-29642859D01*
X64369104Y-21114284D02*
X64369104Y-21542856D01*
X64654819Y-21028570D02*
X63654819Y-21328570D01*
X63654819Y-21328570D02*
X64654819Y-21628570D01*
X63988152Y-21928570D02*
X64654819Y-21928570D01*
X64083390Y-21928570D02*
X64035771Y-21971427D01*
X64035771Y-21971427D02*
X63988152Y-22057142D01*
X63988152Y-22057142D02*
X63988152Y-22185713D01*
X63988152Y-22185713D02*
X64035771Y-22271427D01*
X64035771Y-22271427D02*
X64131009Y-22314285D01*
X64131009Y-22314285D02*
X64654819Y-22314285D01*
X63988152Y-22614285D02*
X63988152Y-22957142D01*
X63654819Y-22742856D02*
X64511961Y-22742856D01*
X64511961Y-22742856D02*
X64607200Y-22785713D01*
X64607200Y-22785713D02*
X64654819Y-22871428D01*
X64654819Y-22871428D02*
X64654819Y-22957142D01*
X64607200Y-23599999D02*
X64654819Y-23514285D01*
X64654819Y-23514285D02*
X64654819Y-23342857D01*
X64654819Y-23342857D02*
X64607200Y-23257142D01*
X64607200Y-23257142D02*
X64511961Y-23214285D01*
X64511961Y-23214285D02*
X64131009Y-23214285D01*
X64131009Y-23214285D02*
X64035771Y-23257142D01*
X64035771Y-23257142D02*
X63988152Y-23342857D01*
X63988152Y-23342857D02*
X63988152Y-23514285D01*
X63988152Y-23514285D02*
X64035771Y-23599999D01*
X64035771Y-23599999D02*
X64131009Y-23642857D01*
X64131009Y-23642857D02*
X64226247Y-23642857D01*
X64226247Y-23642857D02*
X64321485Y-23214285D01*
X63988152Y-24028571D02*
X64654819Y-24028571D01*
X64083390Y-24028571D02*
X64035771Y-24071428D01*
X64035771Y-24071428D02*
X63988152Y-24157143D01*
X63988152Y-24157143D02*
X63988152Y-24285714D01*
X63988152Y-24285714D02*
X64035771Y-24371428D01*
X64035771Y-24371428D02*
X64131009Y-24414286D01*
X64131009Y-24414286D02*
X64654819Y-24414286D01*
X63988152Y-24842857D02*
X64654819Y-24842857D01*
X64083390Y-24842857D02*
X64035771Y-24885714D01*
X64035771Y-24885714D02*
X63988152Y-24971429D01*
X63988152Y-24971429D02*
X63988152Y-25100000D01*
X63988152Y-25100000D02*
X64035771Y-25185714D01*
X64035771Y-25185714D02*
X64131009Y-25228572D01*
X64131009Y-25228572D02*
X64654819Y-25228572D01*
X64654819Y-26042858D02*
X64131009Y-26042858D01*
X64131009Y-26042858D02*
X64035771Y-26000000D01*
X64035771Y-26000000D02*
X63988152Y-25914286D01*
X63988152Y-25914286D02*
X63988152Y-25742858D01*
X63988152Y-25742858D02*
X64035771Y-25657143D01*
X64607200Y-26042858D02*
X64654819Y-25957143D01*
X64654819Y-25957143D02*
X64654819Y-25742858D01*
X64654819Y-25742858D02*
X64607200Y-25657143D01*
X64607200Y-25657143D02*
X64511961Y-25614286D01*
X64511961Y-25614286D02*
X64416723Y-25614286D01*
X64416723Y-25614286D02*
X64321485Y-25657143D01*
X64321485Y-25657143D02*
X64273866Y-25742858D01*
X64273866Y-25742858D02*
X64273866Y-25957143D01*
X64273866Y-25957143D02*
X64226247Y-26042858D01*
X64369104Y-27114286D02*
X64369104Y-27542858D01*
X64654819Y-27028572D02*
X63654819Y-27328572D01*
X63654819Y-27328572D02*
X64654819Y-27628572D01*
X64654819Y-27928572D02*
X63988152Y-27928572D01*
X64178628Y-27928572D02*
X64083390Y-27971429D01*
X64083390Y-27971429D02*
X64035771Y-28014287D01*
X64035771Y-28014287D02*
X63988152Y-28100001D01*
X63988152Y-28100001D02*
X63988152Y-28185715D01*
X64607200Y-28828572D02*
X64654819Y-28742858D01*
X64654819Y-28742858D02*
X64654819Y-28571430D01*
X64654819Y-28571430D02*
X64607200Y-28485715D01*
X64607200Y-28485715D02*
X64511961Y-28442858D01*
X64511961Y-28442858D02*
X64131009Y-28442858D01*
X64131009Y-28442858D02*
X64035771Y-28485715D01*
X64035771Y-28485715D02*
X63988152Y-28571430D01*
X63988152Y-28571430D02*
X63988152Y-28742858D01*
X63988152Y-28742858D02*
X64035771Y-28828572D01*
X64035771Y-28828572D02*
X64131009Y-28871430D01*
X64131009Y-28871430D02*
X64226247Y-28871430D01*
X64226247Y-28871430D02*
X64321485Y-28442858D01*
X64654819Y-29642859D02*
X64131009Y-29642859D01*
X64131009Y-29642859D02*
X64035771Y-29600001D01*
X64035771Y-29600001D02*
X63988152Y-29514287D01*
X63988152Y-29514287D02*
X63988152Y-29342859D01*
X63988152Y-29342859D02*
X64035771Y-29257144D01*
X64607200Y-29642859D02*
X64654819Y-29557144D01*
X64654819Y-29557144D02*
X64654819Y-29342859D01*
X64654819Y-29342859D02*
X64607200Y-29257144D01*
X64607200Y-29257144D02*
X64511961Y-29214287D01*
X64511961Y-29214287D02*
X64416723Y-29214287D01*
X64416723Y-29214287D02*
X64321485Y-29257144D01*
X64321485Y-29257144D02*
X64273866Y-29342859D01*
X64273866Y-29342859D02*
X64273866Y-29557144D01*
X64273866Y-29557144D02*
X64226247Y-29642859D01*
X44169104Y-50314284D02*
X44169104Y-50742856D01*
X44454819Y-50228570D02*
X43454819Y-50528570D01*
X43454819Y-50528570D02*
X44454819Y-50828570D01*
X43788152Y-51128570D02*
X44454819Y-51128570D01*
X43883390Y-51128570D02*
X43835771Y-51171427D01*
X43835771Y-51171427D02*
X43788152Y-51257142D01*
X43788152Y-51257142D02*
X43788152Y-51385713D01*
X43788152Y-51385713D02*
X43835771Y-51471427D01*
X43835771Y-51471427D02*
X43931009Y-51514285D01*
X43931009Y-51514285D02*
X44454819Y-51514285D01*
X43788152Y-51814285D02*
X43788152Y-52157142D01*
X43454819Y-51942856D02*
X44311961Y-51942856D01*
X44311961Y-51942856D02*
X44407200Y-51985713D01*
X44407200Y-51985713D02*
X44454819Y-52071428D01*
X44454819Y-52071428D02*
X44454819Y-52157142D01*
X44407200Y-52799999D02*
X44454819Y-52714285D01*
X44454819Y-52714285D02*
X44454819Y-52542857D01*
X44454819Y-52542857D02*
X44407200Y-52457142D01*
X44407200Y-52457142D02*
X44311961Y-52414285D01*
X44311961Y-52414285D02*
X43931009Y-52414285D01*
X43931009Y-52414285D02*
X43835771Y-52457142D01*
X43835771Y-52457142D02*
X43788152Y-52542857D01*
X43788152Y-52542857D02*
X43788152Y-52714285D01*
X43788152Y-52714285D02*
X43835771Y-52799999D01*
X43835771Y-52799999D02*
X43931009Y-52842857D01*
X43931009Y-52842857D02*
X44026247Y-52842857D01*
X44026247Y-52842857D02*
X44121485Y-52414285D01*
X43788152Y-53228571D02*
X44454819Y-53228571D01*
X43883390Y-53228571D02*
X43835771Y-53271428D01*
X43835771Y-53271428D02*
X43788152Y-53357143D01*
X43788152Y-53357143D02*
X43788152Y-53485714D01*
X43788152Y-53485714D02*
X43835771Y-53571428D01*
X43835771Y-53571428D02*
X43931009Y-53614286D01*
X43931009Y-53614286D02*
X44454819Y-53614286D01*
X43788152Y-54042857D02*
X44454819Y-54042857D01*
X43883390Y-54042857D02*
X43835771Y-54085714D01*
X43835771Y-54085714D02*
X43788152Y-54171429D01*
X43788152Y-54171429D02*
X43788152Y-54300000D01*
X43788152Y-54300000D02*
X43835771Y-54385714D01*
X43835771Y-54385714D02*
X43931009Y-54428572D01*
X43931009Y-54428572D02*
X44454819Y-54428572D01*
X44454819Y-55242858D02*
X43931009Y-55242858D01*
X43931009Y-55242858D02*
X43835771Y-55200000D01*
X43835771Y-55200000D02*
X43788152Y-55114286D01*
X43788152Y-55114286D02*
X43788152Y-54942858D01*
X43788152Y-54942858D02*
X43835771Y-54857143D01*
X44407200Y-55242858D02*
X44454819Y-55157143D01*
X44454819Y-55157143D02*
X44454819Y-54942858D01*
X44454819Y-54942858D02*
X44407200Y-54857143D01*
X44407200Y-54857143D02*
X44311961Y-54814286D01*
X44311961Y-54814286D02*
X44216723Y-54814286D01*
X44216723Y-54814286D02*
X44121485Y-54857143D01*
X44121485Y-54857143D02*
X44073866Y-54942858D01*
X44073866Y-54942858D02*
X44073866Y-55157143D01*
X44073866Y-55157143D02*
X44026247Y-55242858D01*
X44169104Y-56314286D02*
X44169104Y-56742858D01*
X44454819Y-56228572D02*
X43454819Y-56528572D01*
X43454819Y-56528572D02*
X44454819Y-56828572D01*
X44454819Y-57128572D02*
X43788152Y-57128572D01*
X43978628Y-57128572D02*
X43883390Y-57171429D01*
X43883390Y-57171429D02*
X43835771Y-57214287D01*
X43835771Y-57214287D02*
X43788152Y-57300001D01*
X43788152Y-57300001D02*
X43788152Y-57385715D01*
X44407200Y-58028572D02*
X44454819Y-57942858D01*
X44454819Y-57942858D02*
X44454819Y-57771430D01*
X44454819Y-57771430D02*
X44407200Y-57685715D01*
X44407200Y-57685715D02*
X44311961Y-57642858D01*
X44311961Y-57642858D02*
X43931009Y-57642858D01*
X43931009Y-57642858D02*
X43835771Y-57685715D01*
X43835771Y-57685715D02*
X43788152Y-57771430D01*
X43788152Y-57771430D02*
X43788152Y-57942858D01*
X43788152Y-57942858D02*
X43835771Y-58028572D01*
X43835771Y-58028572D02*
X43931009Y-58071430D01*
X43931009Y-58071430D02*
X44026247Y-58071430D01*
X44026247Y-58071430D02*
X44121485Y-57642858D01*
X44454819Y-58842859D02*
X43931009Y-58842859D01*
X43931009Y-58842859D02*
X43835771Y-58800001D01*
X43835771Y-58800001D02*
X43788152Y-58714287D01*
X43788152Y-58714287D02*
X43788152Y-58542859D01*
X43788152Y-58542859D02*
X43835771Y-58457144D01*
X44407200Y-58842859D02*
X44454819Y-58757144D01*
X44454819Y-58757144D02*
X44454819Y-58542859D01*
X44454819Y-58542859D02*
X44407200Y-58457144D01*
X44407200Y-58457144D02*
X44311961Y-58414287D01*
X44311961Y-58414287D02*
X44216723Y-58414287D01*
X44216723Y-58414287D02*
X44121485Y-58457144D01*
X44121485Y-58457144D02*
X44073866Y-58542859D01*
X44073866Y-58542859D02*
X44073866Y-58757144D01*
X44073866Y-58757144D02*
X44026247Y-58842859D01*
X64369104Y-50314284D02*
X64369104Y-50742856D01*
X64654819Y-50228570D02*
X63654819Y-50528570D01*
X63654819Y-50528570D02*
X64654819Y-50828570D01*
X63988152Y-51128570D02*
X64654819Y-51128570D01*
X64083390Y-51128570D02*
X64035771Y-51171427D01*
X64035771Y-51171427D02*
X63988152Y-51257142D01*
X63988152Y-51257142D02*
X63988152Y-51385713D01*
X63988152Y-51385713D02*
X64035771Y-51471427D01*
X64035771Y-51471427D02*
X64131009Y-51514285D01*
X64131009Y-51514285D02*
X64654819Y-51514285D01*
X63988152Y-51814285D02*
X63988152Y-52157142D01*
X63654819Y-51942856D02*
X64511961Y-51942856D01*
X64511961Y-51942856D02*
X64607200Y-51985713D01*
X64607200Y-51985713D02*
X64654819Y-52071428D01*
X64654819Y-52071428D02*
X64654819Y-52157142D01*
X64607200Y-52799999D02*
X64654819Y-52714285D01*
X64654819Y-52714285D02*
X64654819Y-52542857D01*
X64654819Y-52542857D02*
X64607200Y-52457142D01*
X64607200Y-52457142D02*
X64511961Y-52414285D01*
X64511961Y-52414285D02*
X64131009Y-52414285D01*
X64131009Y-52414285D02*
X64035771Y-52457142D01*
X64035771Y-52457142D02*
X63988152Y-52542857D01*
X63988152Y-52542857D02*
X63988152Y-52714285D01*
X63988152Y-52714285D02*
X64035771Y-52799999D01*
X64035771Y-52799999D02*
X64131009Y-52842857D01*
X64131009Y-52842857D02*
X64226247Y-52842857D01*
X64226247Y-52842857D02*
X64321485Y-52414285D01*
X63988152Y-53228571D02*
X64654819Y-53228571D01*
X64083390Y-53228571D02*
X64035771Y-53271428D01*
X64035771Y-53271428D02*
X63988152Y-53357143D01*
X63988152Y-53357143D02*
X63988152Y-53485714D01*
X63988152Y-53485714D02*
X64035771Y-53571428D01*
X64035771Y-53571428D02*
X64131009Y-53614286D01*
X64131009Y-53614286D02*
X64654819Y-53614286D01*
X63988152Y-54042857D02*
X64654819Y-54042857D01*
X64083390Y-54042857D02*
X64035771Y-54085714D01*
X64035771Y-54085714D02*
X63988152Y-54171429D01*
X63988152Y-54171429D02*
X63988152Y-54300000D01*
X63988152Y-54300000D02*
X64035771Y-54385714D01*
X64035771Y-54385714D02*
X64131009Y-54428572D01*
X64131009Y-54428572D02*
X64654819Y-54428572D01*
X64654819Y-55242858D02*
X64131009Y-55242858D01*
X64131009Y-55242858D02*
X64035771Y-55200000D01*
X64035771Y-55200000D02*
X63988152Y-55114286D01*
X63988152Y-55114286D02*
X63988152Y-54942858D01*
X63988152Y-54942858D02*
X64035771Y-54857143D01*
X64607200Y-55242858D02*
X64654819Y-55157143D01*
X64654819Y-55157143D02*
X64654819Y-54942858D01*
X64654819Y-54942858D02*
X64607200Y-54857143D01*
X64607200Y-54857143D02*
X64511961Y-54814286D01*
X64511961Y-54814286D02*
X64416723Y-54814286D01*
X64416723Y-54814286D02*
X64321485Y-54857143D01*
X64321485Y-54857143D02*
X64273866Y-54942858D01*
X64273866Y-54942858D02*
X64273866Y-55157143D01*
X64273866Y-55157143D02*
X64226247Y-55242858D01*
X64369104Y-56314286D02*
X64369104Y-56742858D01*
X64654819Y-56228572D02*
X63654819Y-56528572D01*
X63654819Y-56528572D02*
X64654819Y-56828572D01*
X64654819Y-57128572D02*
X63988152Y-57128572D01*
X64178628Y-57128572D02*
X64083390Y-57171429D01*
X64083390Y-57171429D02*
X64035771Y-57214287D01*
X64035771Y-57214287D02*
X63988152Y-57300001D01*
X63988152Y-57300001D02*
X63988152Y-57385715D01*
X64607200Y-58028572D02*
X64654819Y-57942858D01*
X64654819Y-57942858D02*
X64654819Y-57771430D01*
X64654819Y-57771430D02*
X64607200Y-57685715D01*
X64607200Y-57685715D02*
X64511961Y-57642858D01*
X64511961Y-57642858D02*
X64131009Y-57642858D01*
X64131009Y-57642858D02*
X64035771Y-57685715D01*
X64035771Y-57685715D02*
X63988152Y-57771430D01*
X63988152Y-57771430D02*
X63988152Y-57942858D01*
X63988152Y-57942858D02*
X64035771Y-58028572D01*
X64035771Y-58028572D02*
X64131009Y-58071430D01*
X64131009Y-58071430D02*
X64226247Y-58071430D01*
X64226247Y-58071430D02*
X64321485Y-57642858D01*
X64654819Y-58842859D02*
X64131009Y-58842859D01*
X64131009Y-58842859D02*
X64035771Y-58800001D01*
X64035771Y-58800001D02*
X63988152Y-58714287D01*
X63988152Y-58714287D02*
X63988152Y-58542859D01*
X63988152Y-58542859D02*
X64035771Y-58457144D01*
X64607200Y-58842859D02*
X64654819Y-58757144D01*
X64654819Y-58757144D02*
X64654819Y-58542859D01*
X64654819Y-58542859D02*
X64607200Y-58457144D01*
X64607200Y-58457144D02*
X64511961Y-58414287D01*
X64511961Y-58414287D02*
X64416723Y-58414287D01*
X64416723Y-58414287D02*
X64321485Y-58457144D01*
X64321485Y-58457144D02*
X64273866Y-58542859D01*
X64273866Y-58542859D02*
X64273866Y-58757144D01*
X64273866Y-58757144D02*
X64226247Y-58842859D01*
X23969104Y-50314284D02*
X23969104Y-50742856D01*
X24254819Y-50228570D02*
X23254819Y-50528570D01*
X23254819Y-50528570D02*
X24254819Y-50828570D01*
X23588152Y-51128570D02*
X24254819Y-51128570D01*
X23683390Y-51128570D02*
X23635771Y-51171427D01*
X23635771Y-51171427D02*
X23588152Y-51257142D01*
X23588152Y-51257142D02*
X23588152Y-51385713D01*
X23588152Y-51385713D02*
X23635771Y-51471427D01*
X23635771Y-51471427D02*
X23731009Y-51514285D01*
X23731009Y-51514285D02*
X24254819Y-51514285D01*
X23588152Y-51814285D02*
X23588152Y-52157142D01*
X23254819Y-51942856D02*
X24111961Y-51942856D01*
X24111961Y-51942856D02*
X24207200Y-51985713D01*
X24207200Y-51985713D02*
X24254819Y-52071428D01*
X24254819Y-52071428D02*
X24254819Y-52157142D01*
X24207200Y-52799999D02*
X24254819Y-52714285D01*
X24254819Y-52714285D02*
X24254819Y-52542857D01*
X24254819Y-52542857D02*
X24207200Y-52457142D01*
X24207200Y-52457142D02*
X24111961Y-52414285D01*
X24111961Y-52414285D02*
X23731009Y-52414285D01*
X23731009Y-52414285D02*
X23635771Y-52457142D01*
X23635771Y-52457142D02*
X23588152Y-52542857D01*
X23588152Y-52542857D02*
X23588152Y-52714285D01*
X23588152Y-52714285D02*
X23635771Y-52799999D01*
X23635771Y-52799999D02*
X23731009Y-52842857D01*
X23731009Y-52842857D02*
X23826247Y-52842857D01*
X23826247Y-52842857D02*
X23921485Y-52414285D01*
X23588152Y-53228571D02*
X24254819Y-53228571D01*
X23683390Y-53228571D02*
X23635771Y-53271428D01*
X23635771Y-53271428D02*
X23588152Y-53357143D01*
X23588152Y-53357143D02*
X23588152Y-53485714D01*
X23588152Y-53485714D02*
X23635771Y-53571428D01*
X23635771Y-53571428D02*
X23731009Y-53614286D01*
X23731009Y-53614286D02*
X24254819Y-53614286D01*
X23588152Y-54042857D02*
X24254819Y-54042857D01*
X23683390Y-54042857D02*
X23635771Y-54085714D01*
X23635771Y-54085714D02*
X23588152Y-54171429D01*
X23588152Y-54171429D02*
X23588152Y-54300000D01*
X23588152Y-54300000D02*
X23635771Y-54385714D01*
X23635771Y-54385714D02*
X23731009Y-54428572D01*
X23731009Y-54428572D02*
X24254819Y-54428572D01*
X24254819Y-55242858D02*
X23731009Y-55242858D01*
X23731009Y-55242858D02*
X23635771Y-55200000D01*
X23635771Y-55200000D02*
X23588152Y-55114286D01*
X23588152Y-55114286D02*
X23588152Y-54942858D01*
X23588152Y-54942858D02*
X23635771Y-54857143D01*
X24207200Y-55242858D02*
X24254819Y-55157143D01*
X24254819Y-55157143D02*
X24254819Y-54942858D01*
X24254819Y-54942858D02*
X24207200Y-54857143D01*
X24207200Y-54857143D02*
X24111961Y-54814286D01*
X24111961Y-54814286D02*
X24016723Y-54814286D01*
X24016723Y-54814286D02*
X23921485Y-54857143D01*
X23921485Y-54857143D02*
X23873866Y-54942858D01*
X23873866Y-54942858D02*
X23873866Y-55157143D01*
X23873866Y-55157143D02*
X23826247Y-55242858D01*
X23969104Y-56314286D02*
X23969104Y-56742858D01*
X24254819Y-56228572D02*
X23254819Y-56528572D01*
X23254819Y-56528572D02*
X24254819Y-56828572D01*
X24254819Y-57128572D02*
X23588152Y-57128572D01*
X23778628Y-57128572D02*
X23683390Y-57171429D01*
X23683390Y-57171429D02*
X23635771Y-57214287D01*
X23635771Y-57214287D02*
X23588152Y-57300001D01*
X23588152Y-57300001D02*
X23588152Y-57385715D01*
X24207200Y-58028572D02*
X24254819Y-57942858D01*
X24254819Y-57942858D02*
X24254819Y-57771430D01*
X24254819Y-57771430D02*
X24207200Y-57685715D01*
X24207200Y-57685715D02*
X24111961Y-57642858D01*
X24111961Y-57642858D02*
X23731009Y-57642858D01*
X23731009Y-57642858D02*
X23635771Y-57685715D01*
X23635771Y-57685715D02*
X23588152Y-57771430D01*
X23588152Y-57771430D02*
X23588152Y-57942858D01*
X23588152Y-57942858D02*
X23635771Y-58028572D01*
X23635771Y-58028572D02*
X23731009Y-58071430D01*
X23731009Y-58071430D02*
X23826247Y-58071430D01*
X23826247Y-58071430D02*
X23921485Y-57642858D01*
X24254819Y-58842859D02*
X23731009Y-58842859D01*
X23731009Y-58842859D02*
X23635771Y-58800001D01*
X23635771Y-58800001D02*
X23588152Y-58714287D01*
X23588152Y-58714287D02*
X23588152Y-58542859D01*
X23588152Y-58542859D02*
X23635771Y-58457144D01*
X24207200Y-58842859D02*
X24254819Y-58757144D01*
X24254819Y-58757144D02*
X24254819Y-58542859D01*
X24254819Y-58542859D02*
X24207200Y-58457144D01*
X24207200Y-58457144D02*
X24111961Y-58414287D01*
X24111961Y-58414287D02*
X24016723Y-58414287D01*
X24016723Y-58414287D02*
X23921485Y-58457144D01*
X23921485Y-58457144D02*
X23873866Y-58542859D01*
X23873866Y-58542859D02*
X23873866Y-58757144D01*
X23873866Y-58757144D02*
X23826247Y-58842859D01*
X44169104Y-21114284D02*
X44169104Y-21542856D01*
X44454819Y-21028570D02*
X43454819Y-21328570D01*
X43454819Y-21328570D02*
X44454819Y-21628570D01*
X43788152Y-21928570D02*
X44454819Y-21928570D01*
X43883390Y-21928570D02*
X43835771Y-21971427D01*
X43835771Y-21971427D02*
X43788152Y-22057142D01*
X43788152Y-22057142D02*
X43788152Y-22185713D01*
X43788152Y-22185713D02*
X43835771Y-22271427D01*
X43835771Y-22271427D02*
X43931009Y-22314285D01*
X43931009Y-22314285D02*
X44454819Y-22314285D01*
X43788152Y-22614285D02*
X43788152Y-22957142D01*
X43454819Y-22742856D02*
X44311961Y-22742856D01*
X44311961Y-22742856D02*
X44407200Y-22785713D01*
X44407200Y-22785713D02*
X44454819Y-22871428D01*
X44454819Y-22871428D02*
X44454819Y-22957142D01*
X44407200Y-23599999D02*
X44454819Y-23514285D01*
X44454819Y-23514285D02*
X44454819Y-23342857D01*
X44454819Y-23342857D02*
X44407200Y-23257142D01*
X44407200Y-23257142D02*
X44311961Y-23214285D01*
X44311961Y-23214285D02*
X43931009Y-23214285D01*
X43931009Y-23214285D02*
X43835771Y-23257142D01*
X43835771Y-23257142D02*
X43788152Y-23342857D01*
X43788152Y-23342857D02*
X43788152Y-23514285D01*
X43788152Y-23514285D02*
X43835771Y-23599999D01*
X43835771Y-23599999D02*
X43931009Y-23642857D01*
X43931009Y-23642857D02*
X44026247Y-23642857D01*
X44026247Y-23642857D02*
X44121485Y-23214285D01*
X43788152Y-24028571D02*
X44454819Y-24028571D01*
X43883390Y-24028571D02*
X43835771Y-24071428D01*
X43835771Y-24071428D02*
X43788152Y-24157143D01*
X43788152Y-24157143D02*
X43788152Y-24285714D01*
X43788152Y-24285714D02*
X43835771Y-24371428D01*
X43835771Y-24371428D02*
X43931009Y-24414286D01*
X43931009Y-24414286D02*
X44454819Y-24414286D01*
X43788152Y-24842857D02*
X44454819Y-24842857D01*
X43883390Y-24842857D02*
X43835771Y-24885714D01*
X43835771Y-24885714D02*
X43788152Y-24971429D01*
X43788152Y-24971429D02*
X43788152Y-25100000D01*
X43788152Y-25100000D02*
X43835771Y-25185714D01*
X43835771Y-25185714D02*
X43931009Y-25228572D01*
X43931009Y-25228572D02*
X44454819Y-25228572D01*
X44454819Y-26042858D02*
X43931009Y-26042858D01*
X43931009Y-26042858D02*
X43835771Y-26000000D01*
X43835771Y-26000000D02*
X43788152Y-25914286D01*
X43788152Y-25914286D02*
X43788152Y-25742858D01*
X43788152Y-25742858D02*
X43835771Y-25657143D01*
X44407200Y-26042858D02*
X44454819Y-25957143D01*
X44454819Y-25957143D02*
X44454819Y-25742858D01*
X44454819Y-25742858D02*
X44407200Y-25657143D01*
X44407200Y-25657143D02*
X44311961Y-25614286D01*
X44311961Y-25614286D02*
X44216723Y-25614286D01*
X44216723Y-25614286D02*
X44121485Y-25657143D01*
X44121485Y-25657143D02*
X44073866Y-25742858D01*
X44073866Y-25742858D02*
X44073866Y-25957143D01*
X44073866Y-25957143D02*
X44026247Y-26042858D01*
X44169104Y-27114286D02*
X44169104Y-27542858D01*
X44454819Y-27028572D02*
X43454819Y-27328572D01*
X43454819Y-27328572D02*
X44454819Y-27628572D01*
X44454819Y-27928572D02*
X43788152Y-27928572D01*
X43978628Y-27928572D02*
X43883390Y-27971429D01*
X43883390Y-27971429D02*
X43835771Y-28014287D01*
X43835771Y-28014287D02*
X43788152Y-28100001D01*
X43788152Y-28100001D02*
X43788152Y-28185715D01*
X44407200Y-28828572D02*
X44454819Y-28742858D01*
X44454819Y-28742858D02*
X44454819Y-28571430D01*
X44454819Y-28571430D02*
X44407200Y-28485715D01*
X44407200Y-28485715D02*
X44311961Y-28442858D01*
X44311961Y-28442858D02*
X43931009Y-28442858D01*
X43931009Y-28442858D02*
X43835771Y-28485715D01*
X43835771Y-28485715D02*
X43788152Y-28571430D01*
X43788152Y-28571430D02*
X43788152Y-28742858D01*
X43788152Y-28742858D02*
X43835771Y-28828572D01*
X43835771Y-28828572D02*
X43931009Y-28871430D01*
X43931009Y-28871430D02*
X44026247Y-28871430D01*
X44026247Y-28871430D02*
X44121485Y-28442858D01*
X44454819Y-29642859D02*
X43931009Y-29642859D01*
X43931009Y-29642859D02*
X43835771Y-29600001D01*
X43835771Y-29600001D02*
X43788152Y-29514287D01*
X43788152Y-29514287D02*
X43788152Y-29342859D01*
X43788152Y-29342859D02*
X43835771Y-29257144D01*
X44407200Y-29642859D02*
X44454819Y-29557144D01*
X44454819Y-29557144D02*
X44454819Y-29342859D01*
X44454819Y-29342859D02*
X44407200Y-29257144D01*
X44407200Y-29257144D02*
X44311961Y-29214287D01*
X44311961Y-29214287D02*
X44216723Y-29214287D01*
X44216723Y-29214287D02*
X44121485Y-29257144D01*
X44121485Y-29257144D02*
X44073866Y-29342859D01*
X44073866Y-29342859D02*
X44073866Y-29557144D01*
X44073866Y-29557144D02*
X44026247Y-29642859D01*
D11*
G04 #@! TO.C,U3*
X23375000Y-20575000D02*
X24325000Y-20575000D01*
X24325000Y-20575000D02*
X24175000Y-20400000D01*
X24325000Y-20575000D02*
X24175000Y-20775000D01*
X24350000Y-32200000D02*
G75*
G02*
X24250000Y-32200000I-50000J0D01*
G01*
X24250000Y-32200000D02*
G75*
G02*
X24350000Y-32200000I50000J0D01*
G01*
X63775000Y-20575000D02*
X64725000Y-20575000D01*
X64725000Y-20575000D02*
X64575000Y-20400000D01*
X64725000Y-20575000D02*
X64575000Y-20775000D01*
X64750000Y-32200000D02*
G75*
G02*
X64650000Y-32200000I-50000J0D01*
G01*
X64650000Y-32200000D02*
G75*
G02*
X64750000Y-32200000I50000J0D01*
G01*
D12*
G04 #@! TO.C,R6*
X37750000Y-62176359D02*
X37750000Y-62483641D01*
X38510000Y-62176359D02*
X38510000Y-62483641D01*
G04 #@! TO.C,R10*
X61396359Y-32290000D02*
X61703641Y-32290000D01*
X61396359Y-33050000D02*
X61703641Y-33050000D01*
X20996359Y-61490000D02*
X21303641Y-61490000D01*
X20996359Y-62250000D02*
X21303641Y-62250000D01*
G04 #@! TO.C,R6*
X17550000Y-32976359D02*
X17550000Y-33283641D01*
X18310000Y-32976359D02*
X18310000Y-33283641D01*
X17550000Y-62176359D02*
X17550000Y-62483641D01*
X18310000Y-62176359D02*
X18310000Y-62483641D01*
G04 #@! TO.C,C14*
X22180000Y-33002164D02*
X22180000Y-33217836D01*
X22900000Y-33002164D02*
X22900000Y-33217836D01*
D11*
G04 #@! TO.C,U3*
X43575000Y-49775000D02*
X44525000Y-49775000D01*
X44525000Y-49775000D02*
X44375000Y-49600000D01*
X44525000Y-49775000D02*
X44375000Y-49975000D01*
X44550000Y-61400000D02*
G75*
G02*
X44450000Y-61400000I-50000J0D01*
G01*
X44450000Y-61400000D02*
G75*
G02*
X44550000Y-61400000I50000J0D01*
G01*
X63775000Y-49775000D02*
X64725000Y-49775000D01*
X64725000Y-49775000D02*
X64575000Y-49600000D01*
X64725000Y-49775000D02*
X64575000Y-49975000D01*
X64750000Y-61400000D02*
G75*
G02*
X64650000Y-61400000I-50000J0D01*
G01*
X64650000Y-61400000D02*
G75*
G02*
X64750000Y-61400000I50000J0D01*
G01*
D12*
G04 #@! TO.C,R6*
X37750000Y-32976359D02*
X37750000Y-33283641D01*
X38510000Y-32976359D02*
X38510000Y-33283641D01*
G04 #@! TO.C,C14*
X22180000Y-62202164D02*
X22180000Y-62417836D01*
X22900000Y-62202164D02*
X22900000Y-62417836D01*
G04 #@! TO.C,R6*
X57950000Y-32976359D02*
X57950000Y-33283641D01*
X58710000Y-32976359D02*
X58710000Y-33283641D01*
G04 #@! TO.C,C5*
X39402164Y-32320000D02*
X39617836Y-32320000D01*
X39402164Y-33040000D02*
X39617836Y-33040000D01*
G04 #@! TO.C,R10*
X41196359Y-61490000D02*
X41503641Y-61490000D01*
X41196359Y-62250000D02*
X41503641Y-62250000D01*
G04 #@! TO.C,C14*
X42380000Y-62202164D02*
X42380000Y-62417836D01*
X43100000Y-62202164D02*
X43100000Y-62417836D01*
G04 #@! TO.C,R10*
X41196359Y-32290000D02*
X41503641Y-32290000D01*
X41196359Y-33050000D02*
X41503641Y-33050000D01*
G04 #@! TO.C,R6*
X57950000Y-62176359D02*
X57950000Y-62483641D01*
X58710000Y-62176359D02*
X58710000Y-62483641D01*
G04 #@! TO.C,C14*
X62580000Y-62202164D02*
X62580000Y-62417836D01*
X63300000Y-62202164D02*
X63300000Y-62417836D01*
D11*
G04 #@! TO.C,U3*
X23375000Y-49775000D02*
X24325000Y-49775000D01*
X24325000Y-49775000D02*
X24175000Y-49600000D01*
X24325000Y-49775000D02*
X24175000Y-49975000D01*
X24350000Y-61400000D02*
G75*
G02*
X24250000Y-61400000I-50000J0D01*
G01*
X24250000Y-61400000D02*
G75*
G02*
X24350000Y-61400000I50000J0D01*
G01*
D12*
G04 #@! TO.C,R10*
X61396359Y-61490000D02*
X61703641Y-61490000D01*
X61396359Y-62250000D02*
X61703641Y-62250000D01*
G04 #@! TO.C,C14*
X42380000Y-33002164D02*
X42380000Y-33217836D01*
X43100000Y-33002164D02*
X43100000Y-33217836D01*
G04 #@! TO.C,C5*
X39402164Y-61520000D02*
X39617836Y-61520000D01*
X39402164Y-62240000D02*
X39617836Y-62240000D01*
X59602164Y-61520000D02*
X59817836Y-61520000D01*
X59602164Y-62240000D02*
X59817836Y-62240000D01*
G04 #@! TO.C,C14*
X62580000Y-33002164D02*
X62580000Y-33217836D01*
X63300000Y-33002164D02*
X63300000Y-33217836D01*
D11*
G04 #@! TO.C,U3*
X43575000Y-20575000D02*
X44525000Y-20575000D01*
X44525000Y-20575000D02*
X44375000Y-20400000D01*
X44525000Y-20575000D02*
X44375000Y-20775000D01*
X44550000Y-32200000D02*
G75*
G02*
X44450000Y-32200000I-50000J0D01*
G01*
X44450000Y-32200000D02*
G75*
G02*
X44550000Y-32200000I50000J0D01*
G01*
D12*
G04 #@! TO.C,C5*
X19202164Y-32320000D02*
X19417836Y-32320000D01*
X19202164Y-33040000D02*
X19417836Y-33040000D01*
X59602164Y-32320000D02*
X59817836Y-32320000D01*
X59602164Y-33040000D02*
X59817836Y-33040000D01*
X19202164Y-61520000D02*
X19417836Y-61520000D01*
X19202164Y-62240000D02*
X19417836Y-62240000D01*
G04 #@! TO.C,R10*
X20996359Y-32290000D02*
X21303641Y-32290000D01*
X20996359Y-33050000D02*
X21303641Y-33050000D01*
G04 #@! TD*
%LPC*%
D13*
G04 #@! TO.C,*
X76600000Y-15000000D03*
G04 #@! TD*
D14*
G04 #@! TO.C,KiKit_TO_1*
X2500000Y-2500000D03*
G04 #@! TD*
D13*
G04 #@! TO.C,REF\u002A\u002A*
X79600000Y-15000000D03*
G04 #@! TD*
G04 #@! TO.C,*
X75600000Y-15000000D03*
G04 #@! TD*
G04 #@! TO.C,*
X72600000Y-15000000D03*
G04 #@! TD*
D14*
G04 #@! TO.C,KiKit_TO_3*
X2500000Y-77500000D03*
G04 #@! TD*
D15*
G04 #@! TO.C,J3*
X18790000Y-33900000D03*
D16*
X19790000Y-33900000D03*
X20790000Y-33900000D03*
X21790000Y-33900000D03*
G04 #@! TD*
D17*
G04 #@! TO.C,J1*
X54100000Y-29900000D03*
D18*
X54100000Y-27400000D03*
X54100000Y-25400000D03*
X54100000Y-23400000D03*
X54100000Y-20900000D03*
G04 #@! TD*
D15*
G04 #@! TO.C,J3*
X38990000Y-33900000D03*
D16*
X39990000Y-33900000D03*
X40990000Y-33900000D03*
X41990000Y-33900000D03*
G04 #@! TD*
D13*
G04 #@! TO.C,J4*
X24070000Y-33900000D03*
G04 #@! TD*
G04 #@! TO.C,*
X70600000Y-65000000D03*
G04 #@! TD*
G04 #@! TO.C,*
X8400000Y-15000000D03*
G04 #@! TD*
G04 #@! TO.C,*
X74600000Y-15000000D03*
G04 #@! TD*
D17*
G04 #@! TO.C,J1*
X54100000Y-59100000D03*
D18*
X54100000Y-56600000D03*
X54100000Y-54600000D03*
X54100000Y-52600000D03*
X54100000Y-50100000D03*
G04 #@! TD*
D13*
G04 #@! TO.C,*
X3400000Y-65000000D03*
G04 #@! TD*
G04 #@! TO.C,*
X3400000Y-15000000D03*
G04 #@! TD*
D17*
G04 #@! TO.C,J1*
X33900000Y-59100000D03*
D18*
X33900000Y-56600000D03*
X33900000Y-54600000D03*
X33900000Y-52600000D03*
X33900000Y-50100000D03*
G04 #@! TD*
D17*
G04 #@! TO.C,J1*
X13700000Y-29900000D03*
D18*
X13700000Y-27400000D03*
X13700000Y-25400000D03*
X13700000Y-23400000D03*
X13700000Y-20900000D03*
G04 #@! TD*
D17*
G04 #@! TO.C,J1*
X33900000Y-29900000D03*
D18*
X33900000Y-27400000D03*
X33900000Y-25400000D03*
X33900000Y-23400000D03*
X33900000Y-20900000D03*
G04 #@! TD*
D15*
G04 #@! TO.C,J3*
X38990000Y-63100000D03*
D16*
X39990000Y-63100000D03*
X40990000Y-63100000D03*
X41990000Y-63100000D03*
G04 #@! TD*
D13*
G04 #@! TO.C,J4*
X44270000Y-33900000D03*
G04 #@! TD*
G04 #@! TO.C,J4*
X44270000Y-63100000D03*
G04 #@! TD*
G04 #@! TO.C,*
X78600000Y-15000000D03*
G04 #@! TD*
G04 #@! TO.C,*
X69600000Y-65000000D03*
G04 #@! TD*
G04 #@! TO.C,*
X7400000Y-65000000D03*
G04 #@! TD*
D19*
G04 #@! TO.C,REF\u002A\u002A*
X8390000Y-20320000D03*
D20*
X5850000Y-20320000D03*
D19*
X3310000Y-20320000D03*
X8390000Y-28575000D03*
X3310000Y-28575000D03*
D20*
X6866000Y-30480000D03*
X4834000Y-30480000D03*
G04 #@! TD*
D13*
G04 #@! TO.C,*
X4400000Y-65000000D03*
G04 #@! TD*
G04 #@! TO.C,*
X77600000Y-65000000D03*
G04 #@! TD*
G04 #@! TO.C,*
X7400000Y-15000000D03*
G04 #@! TD*
D15*
G04 #@! TO.C,J3*
X59190000Y-63100000D03*
D16*
X60190000Y-63100000D03*
X61190000Y-63100000D03*
X62190000Y-63100000D03*
G04 #@! TD*
D13*
G04 #@! TO.C,*
X400000Y-15000000D03*
G04 #@! TD*
G04 #@! TO.C,*
X2400000Y-65000000D03*
G04 #@! TD*
G04 #@! TO.C,*
X2400000Y-15000000D03*
G04 #@! TD*
G04 #@! TO.C,*
X5400000Y-15000000D03*
G04 #@! TD*
G04 #@! TO.C,*
X5400000Y-65000000D03*
G04 #@! TD*
D19*
G04 #@! TO.C,REF\u002A\u002A*
X8390000Y-49520000D03*
D20*
X5850000Y-49520000D03*
D19*
X3310000Y-49520000D03*
X8390000Y-57775000D03*
X3310000Y-57775000D03*
D20*
X6866000Y-59680000D03*
X4834000Y-59680000D03*
G04 #@! TD*
D13*
G04 #@! TO.C,*
X6400000Y-65000000D03*
G04 #@! TD*
G04 #@! TO.C,*
X68600000Y-65000000D03*
G04 #@! TD*
G04 #@! TO.C,*
X68600000Y-15000000D03*
G04 #@! TD*
G04 #@! TO.C,J4*
X24070000Y-63100000D03*
G04 #@! TD*
G04 #@! TO.C,J4*
X64470000Y-63100000D03*
G04 #@! TD*
G04 #@! TO.C,*
X6400000Y-15000000D03*
G04 #@! TD*
D15*
G04 #@! TO.C,J3*
X18790000Y-63100000D03*
D16*
X19790000Y-63100000D03*
X20790000Y-63100000D03*
X21790000Y-63100000D03*
G04 #@! TD*
D13*
G04 #@! TO.C,*
X8400000Y-65000000D03*
G04 #@! TD*
G04 #@! TO.C,*
X69600000Y-15000000D03*
G04 #@! TD*
G04 #@! TO.C,*
X76600000Y-65000000D03*
G04 #@! TD*
G04 #@! TO.C,*
X9400000Y-15000000D03*
G04 #@! TD*
G04 #@! TO.C,*
X1400000Y-65000000D03*
G04 #@! TD*
G04 #@! TO.C,*
X78600000Y-65000000D03*
G04 #@! TD*
G04 #@! TO.C,*
X73600000Y-15000000D03*
G04 #@! TD*
G04 #@! TO.C,*
X400000Y-65000000D03*
G04 #@! TD*
G04 #@! TO.C,*
X71600000Y-15000000D03*
G04 #@! TD*
G04 #@! TO.C,*
X70600000Y-15000000D03*
G04 #@! TD*
G04 #@! TO.C,J4*
X64470000Y-33900000D03*
G04 #@! TD*
D14*
G04 #@! TO.C,KiKit_TO_4*
X77500000Y-77500000D03*
G04 #@! TD*
D15*
G04 #@! TO.C,J3*
X59190000Y-33900000D03*
D16*
X60190000Y-33900000D03*
X61190000Y-33900000D03*
X62190000Y-33900000D03*
G04 #@! TD*
D13*
G04 #@! TO.C,*
X4400000Y-15000000D03*
G04 #@! TD*
G04 #@! TO.C,*
X74600000Y-65000000D03*
G04 #@! TD*
G04 #@! TO.C,*
X9400000Y-65000000D03*
G04 #@! TD*
D14*
G04 #@! TO.C,KiKit_TO_2*
X77500000Y-2500000D03*
G04 #@! TD*
D13*
G04 #@! TO.C,*
X1400000Y-15000000D03*
G04 #@! TD*
D17*
G04 #@! TO.C,J1*
X13700000Y-59100000D03*
D18*
X13700000Y-56600000D03*
X13700000Y-54600000D03*
X13700000Y-52600000D03*
X13700000Y-50100000D03*
G04 #@! TD*
D13*
G04 #@! TO.C,*
X77600000Y-15000000D03*
G04 #@! TD*
G04 #@! TO.C,*
X75600000Y-65000000D03*
G04 #@! TD*
G04 #@! TO.C,*
X71600000Y-65000000D03*
G04 #@! TD*
G04 #@! TO.C,*
X73600000Y-65000000D03*
G04 #@! TD*
G04 #@! TO.C,REF\u002A\u002A*
X79600000Y-65000000D03*
G04 #@! TD*
G04 #@! TO.C,*
X72600000Y-65000000D03*
G04 #@! TD*
D21*
G04 #@! TO.C,C13*
X43580000Y-32550000D03*
X44220000Y-32550000D03*
G04 #@! TD*
D22*
G04 #@! TO.C,U3*
X24300000Y-31300000D03*
X23500000Y-31300000D03*
X22700000Y-31300000D03*
X21900000Y-31300000D03*
X21100000Y-31300000D03*
X20300000Y-31300000D03*
X19500000Y-31300000D03*
X18700000Y-31300000D03*
X17900000Y-31300000D03*
X17100000Y-31300000D03*
X16300000Y-31300000D03*
D23*
X15400000Y-30200000D03*
X15400000Y-29400000D03*
X15400000Y-28600000D03*
X15400000Y-27800000D03*
X15400000Y-27000000D03*
X15400000Y-26200000D03*
X15400000Y-25400000D03*
X15400000Y-24600000D03*
X15400000Y-23800000D03*
X15400000Y-23000000D03*
X15400000Y-22200000D03*
X15400000Y-21400000D03*
X15400000Y-20600000D03*
D22*
X16300000Y-19500000D03*
X17100000Y-19500000D03*
X17900000Y-19500000D03*
X18700000Y-19500000D03*
X19500000Y-19500000D03*
X20300000Y-19500000D03*
X21100000Y-19500000D03*
X21900000Y-19500000D03*
X22700000Y-19500000D03*
X23500000Y-19500000D03*
X24300000Y-19500000D03*
D23*
X25200000Y-20600000D03*
X25200000Y-21400000D03*
X25200000Y-22200000D03*
X25200000Y-23000000D03*
X25200000Y-23800000D03*
X25200000Y-24600000D03*
X25200000Y-25400000D03*
X25200000Y-26200000D03*
X25200000Y-27000000D03*
X25200000Y-27800000D03*
X25200000Y-28600000D03*
X25200000Y-29400000D03*
X25200000Y-30200000D03*
D24*
X18325000Y-27375000D03*
X20300000Y-27375000D03*
D25*
X22275000Y-27375000D03*
D24*
X18325000Y-25400000D03*
X20300000Y-25400000D03*
X22275000Y-25400000D03*
X18325000Y-23425000D03*
X20300000Y-23425000D03*
X22275000Y-23425000D03*
D26*
X25250000Y-19450000D03*
X15350000Y-19450000D03*
X15350000Y-31350000D03*
X25250000Y-31350000D03*
G04 #@! TD*
D22*
G04 #@! TO.C,U3*
X64700000Y-31300000D03*
X63900000Y-31300000D03*
X63100000Y-31300000D03*
X62300000Y-31300000D03*
X61500000Y-31300000D03*
X60700000Y-31300000D03*
X59900000Y-31300000D03*
X59100000Y-31300000D03*
X58300000Y-31300000D03*
X57500000Y-31300000D03*
X56700000Y-31300000D03*
D23*
X55800000Y-30200000D03*
X55800000Y-29400000D03*
X55800000Y-28600000D03*
X55800000Y-27800000D03*
X55800000Y-27000000D03*
X55800000Y-26200000D03*
X55800000Y-25400000D03*
X55800000Y-24600000D03*
X55800000Y-23800000D03*
X55800000Y-23000000D03*
X55800000Y-22200000D03*
X55800000Y-21400000D03*
X55800000Y-20600000D03*
D22*
X56700000Y-19500000D03*
X57500000Y-19500000D03*
X58300000Y-19500000D03*
X59100000Y-19500000D03*
X59900000Y-19500000D03*
X60700000Y-19500000D03*
X61500000Y-19500000D03*
X62300000Y-19500000D03*
X63100000Y-19500000D03*
X63900000Y-19500000D03*
X64700000Y-19500000D03*
D23*
X65600000Y-20600000D03*
X65600000Y-21400000D03*
X65600000Y-22200000D03*
X65600000Y-23000000D03*
X65600000Y-23800000D03*
X65600000Y-24600000D03*
X65600000Y-25400000D03*
X65600000Y-26200000D03*
X65600000Y-27000000D03*
X65600000Y-27800000D03*
X65600000Y-28600000D03*
X65600000Y-29400000D03*
X65600000Y-30200000D03*
D24*
X58725000Y-27375000D03*
X60700000Y-27375000D03*
D25*
X62675000Y-27375000D03*
D24*
X58725000Y-25400000D03*
X60700000Y-25400000D03*
X62675000Y-25400000D03*
X58725000Y-23425000D03*
X60700000Y-23425000D03*
X62675000Y-23425000D03*
D26*
X65650000Y-19450000D03*
X55750000Y-19450000D03*
X55750000Y-31350000D03*
X65650000Y-31350000D03*
G04 #@! TD*
D21*
G04 #@! TO.C,C13*
X23380000Y-32550000D03*
X24020000Y-32550000D03*
G04 #@! TD*
D27*
G04 #@! TO.C,R6*
X38130000Y-61820000D03*
X38130000Y-62840000D03*
G04 #@! TD*
D28*
G04 #@! TO.C,R10*
X61040000Y-32670000D03*
X62060000Y-32670000D03*
G04 #@! TD*
G04 #@! TO.C,R10*
X20640000Y-61870000D03*
X21660000Y-61870000D03*
G04 #@! TD*
D27*
G04 #@! TO.C,R6*
X17930000Y-32620000D03*
X17930000Y-33640000D03*
G04 #@! TD*
D29*
G04 #@! TO.C,KiKit_FID_B_4*
X68000000Y-76150000D03*
G04 #@! TD*
D27*
G04 #@! TO.C,R6*
X17930000Y-61820000D03*
X17930000Y-62840000D03*
G04 #@! TD*
D29*
G04 #@! TO.C,KiKit_FID_B_3*
X12000000Y-76150000D03*
G04 #@! TD*
D30*
G04 #@! TO.C,C14*
X22540000Y-32630000D03*
X22540000Y-33590000D03*
G04 #@! TD*
D15*
G04 #@! TO.C,J2*
X18770000Y-17130000D03*
D16*
X18770000Y-18130000D03*
X19770000Y-17130000D03*
X19770000Y-18130000D03*
X20770000Y-17130000D03*
X20770000Y-18130000D03*
X21770000Y-17130000D03*
X21770000Y-18130000D03*
X22770000Y-17130000D03*
X22770000Y-18130000D03*
X23770000Y-17130000D03*
X23770000Y-18130000D03*
G04 #@! TD*
D22*
G04 #@! TO.C,U3*
X44500000Y-60500000D03*
X43700000Y-60500000D03*
X42900000Y-60500000D03*
X42100000Y-60500000D03*
X41300000Y-60500000D03*
X40500000Y-60500000D03*
X39700000Y-60500000D03*
X38900000Y-60500000D03*
X38100000Y-60500000D03*
X37300000Y-60500000D03*
X36500000Y-60500000D03*
D23*
X35600000Y-59400000D03*
X35600000Y-58600000D03*
X35600000Y-57800000D03*
X35600000Y-57000000D03*
X35600000Y-56200000D03*
X35600000Y-55400000D03*
X35600000Y-54600000D03*
X35600000Y-53800000D03*
X35600000Y-53000000D03*
X35600000Y-52200000D03*
X35600000Y-51400000D03*
X35600000Y-50600000D03*
X35600000Y-49800000D03*
D22*
X36500000Y-48700000D03*
X37300000Y-48700000D03*
X38100000Y-48700000D03*
X38900000Y-48700000D03*
X39700000Y-48700000D03*
X40500000Y-48700000D03*
X41300000Y-48700000D03*
X42100000Y-48700000D03*
X42900000Y-48700000D03*
X43700000Y-48700000D03*
X44500000Y-48700000D03*
D23*
X45400000Y-49800000D03*
X45400000Y-50600000D03*
X45400000Y-51400000D03*
X45400000Y-52200000D03*
X45400000Y-53000000D03*
X45400000Y-53800000D03*
X45400000Y-54600000D03*
X45400000Y-55400000D03*
X45400000Y-56200000D03*
X45400000Y-57000000D03*
X45400000Y-57800000D03*
X45400000Y-58600000D03*
X45400000Y-59400000D03*
D24*
X38525000Y-56575000D03*
X40500000Y-56575000D03*
D25*
X42475000Y-56575000D03*
D24*
X38525000Y-54600000D03*
X40500000Y-54600000D03*
X42475000Y-54600000D03*
X38525000Y-52625000D03*
X40500000Y-52625000D03*
X42475000Y-52625000D03*
D26*
X45450000Y-48650000D03*
X35550000Y-48650000D03*
X35550000Y-60550000D03*
X45450000Y-60550000D03*
G04 #@! TD*
D21*
G04 #@! TO.C,C13*
X63780000Y-61750000D03*
X64420000Y-61750000D03*
G04 #@! TD*
D22*
G04 #@! TO.C,U3*
X64700000Y-60500000D03*
X63900000Y-60500000D03*
X63100000Y-60500000D03*
X62300000Y-60500000D03*
X61500000Y-60500000D03*
X60700000Y-60500000D03*
X59900000Y-60500000D03*
X59100000Y-60500000D03*
X58300000Y-60500000D03*
X57500000Y-60500000D03*
X56700000Y-60500000D03*
D23*
X55800000Y-59400000D03*
X55800000Y-58600000D03*
X55800000Y-57800000D03*
X55800000Y-57000000D03*
X55800000Y-56200000D03*
X55800000Y-55400000D03*
X55800000Y-54600000D03*
X55800000Y-53800000D03*
X55800000Y-53000000D03*
X55800000Y-52200000D03*
X55800000Y-51400000D03*
X55800000Y-50600000D03*
X55800000Y-49800000D03*
D22*
X56700000Y-48700000D03*
X57500000Y-48700000D03*
X58300000Y-48700000D03*
X59100000Y-48700000D03*
X59900000Y-48700000D03*
X60700000Y-48700000D03*
X61500000Y-48700000D03*
X62300000Y-48700000D03*
X63100000Y-48700000D03*
X63900000Y-48700000D03*
X64700000Y-48700000D03*
D23*
X65600000Y-49800000D03*
X65600000Y-50600000D03*
X65600000Y-51400000D03*
X65600000Y-52200000D03*
X65600000Y-53000000D03*
X65600000Y-53800000D03*
X65600000Y-54600000D03*
X65600000Y-55400000D03*
X65600000Y-56200000D03*
X65600000Y-57000000D03*
X65600000Y-57800000D03*
X65600000Y-58600000D03*
X65600000Y-59400000D03*
D24*
X58725000Y-56575000D03*
X60700000Y-56575000D03*
D25*
X62675000Y-56575000D03*
D24*
X58725000Y-54600000D03*
X60700000Y-54600000D03*
X62675000Y-54600000D03*
X58725000Y-52625000D03*
X60700000Y-52625000D03*
X62675000Y-52625000D03*
D26*
X65650000Y-48650000D03*
X55750000Y-48650000D03*
X55750000Y-60550000D03*
X65650000Y-60550000D03*
G04 #@! TD*
D27*
G04 #@! TO.C,R6*
X38130000Y-32620000D03*
X38130000Y-33640000D03*
G04 #@! TD*
D30*
G04 #@! TO.C,C14*
X22540000Y-61830000D03*
X22540000Y-62790000D03*
G04 #@! TD*
D27*
G04 #@! TO.C,R6*
X58330000Y-32620000D03*
X58330000Y-33640000D03*
G04 #@! TD*
D15*
G04 #@! TO.C,J2*
X38970000Y-17130000D03*
D16*
X38970000Y-18130000D03*
X39970000Y-17130000D03*
X39970000Y-18130000D03*
X40970000Y-17130000D03*
X40970000Y-18130000D03*
X41970000Y-17130000D03*
X41970000Y-18130000D03*
X42970000Y-17130000D03*
X42970000Y-18130000D03*
X43970000Y-17130000D03*
X43970000Y-18130000D03*
G04 #@! TD*
D21*
G04 #@! TO.C,C13*
X63780000Y-32550000D03*
X64420000Y-32550000D03*
G04 #@! TD*
D31*
G04 #@! TO.C,C5*
X39030000Y-32680000D03*
X39990000Y-32680000D03*
G04 #@! TD*
D15*
G04 #@! TO.C,J2*
X38970000Y-46330000D03*
D16*
X38970000Y-47330000D03*
X39970000Y-46330000D03*
X39970000Y-47330000D03*
X40970000Y-46330000D03*
X40970000Y-47330000D03*
X41970000Y-46330000D03*
X41970000Y-47330000D03*
X42970000Y-46330000D03*
X42970000Y-47330000D03*
X43970000Y-46330000D03*
X43970000Y-47330000D03*
G04 #@! TD*
D28*
G04 #@! TO.C,R10*
X40840000Y-61870000D03*
X41860000Y-61870000D03*
G04 #@! TD*
D30*
G04 #@! TO.C,C14*
X42740000Y-61830000D03*
X42740000Y-62790000D03*
G04 #@! TD*
D21*
G04 #@! TO.C,C13*
X43580000Y-61750000D03*
X44220000Y-61750000D03*
G04 #@! TD*
D15*
G04 #@! TO.C,J2*
X18770000Y-46330000D03*
D16*
X18770000Y-47330000D03*
X19770000Y-46330000D03*
X19770000Y-47330000D03*
X20770000Y-46330000D03*
X20770000Y-47330000D03*
X21770000Y-46330000D03*
X21770000Y-47330000D03*
X22770000Y-46330000D03*
X22770000Y-47330000D03*
X23770000Y-46330000D03*
X23770000Y-47330000D03*
G04 #@! TD*
D28*
G04 #@! TO.C,R10*
X40840000Y-32670000D03*
X41860000Y-32670000D03*
G04 #@! TD*
D27*
G04 #@! TO.C,R6*
X58330000Y-61820000D03*
X58330000Y-62840000D03*
G04 #@! TD*
D30*
G04 #@! TO.C,C14*
X62940000Y-61830000D03*
X62940000Y-62790000D03*
G04 #@! TD*
D15*
G04 #@! TO.C,J2*
X59170000Y-17130000D03*
D16*
X59170000Y-18130000D03*
X60170000Y-17130000D03*
X60170000Y-18130000D03*
X61170000Y-17130000D03*
X61170000Y-18130000D03*
X62170000Y-17130000D03*
X62170000Y-18130000D03*
X63170000Y-17130000D03*
X63170000Y-18130000D03*
X64170000Y-17130000D03*
X64170000Y-18130000D03*
G04 #@! TD*
D22*
G04 #@! TO.C,U3*
X24300000Y-60500000D03*
X23500000Y-60500000D03*
X22700000Y-60500000D03*
X21900000Y-60500000D03*
X21100000Y-60500000D03*
X20300000Y-60500000D03*
X19500000Y-60500000D03*
X18700000Y-60500000D03*
X17900000Y-60500000D03*
X17100000Y-60500000D03*
X16300000Y-60500000D03*
D23*
X15400000Y-59400000D03*
X15400000Y-58600000D03*
X15400000Y-57800000D03*
X15400000Y-57000000D03*
X15400000Y-56200000D03*
X15400000Y-55400000D03*
X15400000Y-54600000D03*
X15400000Y-53800000D03*
X15400000Y-53000000D03*
X15400000Y-52200000D03*
X15400000Y-51400000D03*
X15400000Y-50600000D03*
X15400000Y-49800000D03*
D22*
X16300000Y-48700000D03*
X17100000Y-48700000D03*
X17900000Y-48700000D03*
X18700000Y-48700000D03*
X19500000Y-48700000D03*
X20300000Y-48700000D03*
X21100000Y-48700000D03*
X21900000Y-48700000D03*
X22700000Y-48700000D03*
X23500000Y-48700000D03*
X24300000Y-48700000D03*
D23*
X25200000Y-49800000D03*
X25200000Y-50600000D03*
X25200000Y-51400000D03*
X25200000Y-52200000D03*
X25200000Y-53000000D03*
X25200000Y-53800000D03*
X25200000Y-54600000D03*
X25200000Y-55400000D03*
X25200000Y-56200000D03*
X25200000Y-57000000D03*
X25200000Y-57800000D03*
X25200000Y-58600000D03*
X25200000Y-59400000D03*
D24*
X18325000Y-56575000D03*
X20300000Y-56575000D03*
D25*
X22275000Y-56575000D03*
D24*
X18325000Y-54600000D03*
X20300000Y-54600000D03*
X22275000Y-54600000D03*
X18325000Y-52625000D03*
X20300000Y-52625000D03*
X22275000Y-52625000D03*
D26*
X25250000Y-48650000D03*
X15350000Y-48650000D03*
X15350000Y-60550000D03*
X25250000Y-60550000D03*
G04 #@! TD*
D28*
G04 #@! TO.C,R10*
X61040000Y-61870000D03*
X62060000Y-61870000D03*
G04 #@! TD*
D30*
G04 #@! TO.C,C14*
X42740000Y-32630000D03*
X42740000Y-33590000D03*
G04 #@! TD*
D31*
G04 #@! TO.C,C5*
X39030000Y-61880000D03*
X39990000Y-61880000D03*
G04 #@! TD*
D21*
G04 #@! TO.C,C13*
X23380000Y-61750000D03*
X24020000Y-61750000D03*
G04 #@! TD*
D31*
G04 #@! TO.C,C5*
X59230000Y-61880000D03*
X60190000Y-61880000D03*
G04 #@! TD*
D30*
G04 #@! TO.C,C14*
X62940000Y-32630000D03*
X62940000Y-33590000D03*
G04 #@! TD*
D22*
G04 #@! TO.C,U3*
X44500000Y-31300000D03*
X43700000Y-31300000D03*
X42900000Y-31300000D03*
X42100000Y-31300000D03*
X41300000Y-31300000D03*
X40500000Y-31300000D03*
X39700000Y-31300000D03*
X38900000Y-31300000D03*
X38100000Y-31300000D03*
X37300000Y-31300000D03*
X36500000Y-31300000D03*
D23*
X35600000Y-30200000D03*
X35600000Y-29400000D03*
X35600000Y-28600000D03*
X35600000Y-27800000D03*
X35600000Y-27000000D03*
X35600000Y-26200000D03*
X35600000Y-25400000D03*
X35600000Y-24600000D03*
X35600000Y-23800000D03*
X35600000Y-23000000D03*
X35600000Y-22200000D03*
X35600000Y-21400000D03*
X35600000Y-20600000D03*
D22*
X36500000Y-19500000D03*
X37300000Y-19500000D03*
X38100000Y-19500000D03*
X38900000Y-19500000D03*
X39700000Y-19500000D03*
X40500000Y-19500000D03*
X41300000Y-19500000D03*
X42100000Y-19500000D03*
X42900000Y-19500000D03*
X43700000Y-19500000D03*
X44500000Y-19500000D03*
D23*
X45400000Y-20600000D03*
X45400000Y-21400000D03*
X45400000Y-22200000D03*
X45400000Y-23000000D03*
X45400000Y-23800000D03*
X45400000Y-24600000D03*
X45400000Y-25400000D03*
X45400000Y-26200000D03*
X45400000Y-27000000D03*
X45400000Y-27800000D03*
X45400000Y-28600000D03*
X45400000Y-29400000D03*
X45400000Y-30200000D03*
D24*
X38525000Y-27375000D03*
X40500000Y-27375000D03*
D25*
X42475000Y-27375000D03*
D24*
X38525000Y-25400000D03*
X40500000Y-25400000D03*
X42475000Y-25400000D03*
X38525000Y-23425000D03*
X40500000Y-23425000D03*
X42475000Y-23425000D03*
D26*
X45450000Y-19450000D03*
X35550000Y-19450000D03*
X35550000Y-31350000D03*
X45450000Y-31350000D03*
G04 #@! TD*
D15*
G04 #@! TO.C,J2*
X59170000Y-46330000D03*
D16*
X59170000Y-47330000D03*
X60170000Y-46330000D03*
X60170000Y-47330000D03*
X61170000Y-46330000D03*
X61170000Y-47330000D03*
X62170000Y-46330000D03*
X62170000Y-47330000D03*
X63170000Y-46330000D03*
X63170000Y-47330000D03*
X64170000Y-46330000D03*
X64170000Y-47330000D03*
G04 #@! TD*
D31*
G04 #@! TO.C,C5*
X18830000Y-32680000D03*
X19790000Y-32680000D03*
G04 #@! TD*
G04 #@! TO.C,C5*
X59230000Y-32680000D03*
X60190000Y-32680000D03*
G04 #@! TD*
D29*
G04 #@! TO.C,KiKit_FID_B_2*
X68000000Y-3850000D03*
G04 #@! TD*
D31*
G04 #@! TO.C,C5*
X18830000Y-61880000D03*
X19790000Y-61880000D03*
G04 #@! TD*
D28*
G04 #@! TO.C,R10*
X20640000Y-32670000D03*
X21660000Y-32670000D03*
G04 #@! TD*
D29*
G04 #@! TO.C,KiKit_FID_B_1*
X12000000Y-3850000D03*
G04 #@! TD*
%LPD*%
M02*
